<?xml version="1.0" encoding="utf-8" standalone="no"?>
<!DOCTYPE svg PUBLIC "-//W3C//DTD SVG 1.1//EN"
  "http://www.w3.org/Graphics/SVG/1.1/DTD/svg11.dtd">
<!-- Created with matplotlib (https://matplotlib.org/) -->
<svg height="504pt" version="1.1" viewBox="0 0 648 504" width="648pt" xmlns="http://www.w3.org/2000/svg" xmlns:xlink="http://www.w3.org/1999/xlink">
 <metadata>
  <rdf:RDF xmlns:cc="http://creativecommons.org/ns#" xmlns:dc="http://purl.org/dc/elements/1.1/" xmlns:rdf="http://www.w3.org/1999/02/22-rdf-syntax-ns#">
   <cc:Work>
    <dc:type rdf:resource="http://purl.org/dc/dcmitype/StillImage"/>
    <dc:date>2020-11-16T13:13:35.130615</dc:date>
    <dc:format>image/svg+xml</dc:format>
    <dc:creator>
     <cc:Agent>
      <dc:title>Matplotlib v3.3.3, https://matplotlib.org/</dc:title>
     </cc:Agent>
    </dc:creator>
   </cc:Work>
  </rdf:RDF>
 </metadata>
 <defs>
  <style type="text/css">*{stroke-linecap:butt;stroke-linejoin:round;}</style>
 </defs>
 <g id="figure_1">
  <g id="patch_1">
   <path d="M 0 504 
L 648 504 
L 648 0 
L 0 0 
z
" style="fill:none;"/>
  </g>
  <g id="axes_1">
   <g id="patch_2">
    <path clip-path="url(#pf041c2b6db)" d="M 257.7185 55.188488 
L 215.887766 56.141967 
L 140.511388 92.441318 
L 88.349316 157.850487 
L 69.732888 239.414388 
L 88.349316 320.978288 
L 140.511388 386.387458 
L 215.887766 422.686808 
L 299.549234 422.686808 
L 337.651122 405.396188 
L 257.7185 239.414388 
z
" style="fill:#808080;opacity:0.25;"/>
   </g>
   <g id="matplotlib.axis_1">
    <g id="xtick_1">
     <g id="line2d_1">
      <path clip-path="url(#pf041c2b6db)" d="M 257.7185 239.414388 
L 215.887766 56.141967 
" style="fill:none;stroke:#b0b0b0;stroke-linecap:square;stroke-width:0.8;"/>
     </g>
     <g id="text_1">
      <!-- $\rm{FNR}_f$ -->
      <g transform="translate(199.152473 45.804226)scale(0.12 -0.12)">
       <defs>
        <path d="M 9.8125 72.90625 
L 51.703125 72.90625 
L 51.703125 64.59375 
L 19.671875 64.59375 
L 19.671875 43.109375 
L 48.578125 43.109375 
L 48.578125 34.8125 
L 19.671875 34.8125 
L 19.671875 0 
L 9.8125 0 
z
" id="DejaVuSans-70"/>
        <path d="M 9.8125 72.90625 
L 23.09375 72.90625 
L 55.421875 11.921875 
L 55.421875 72.90625 
L 64.984375 72.90625 
L 64.984375 0 
L 51.703125 0 
L 19.390625 60.984375 
L 19.390625 0 
L 9.8125 0 
z
" id="DejaVuSans-78"/>
        <path d="M 44.390625 34.1875 
Q 47.5625 33.109375 50.5625 29.59375 
Q 53.5625 26.078125 56.59375 19.921875 
L 66.609375 0 
L 56 0 
L 46.6875 18.703125 
Q 43.0625 26.03125 39.671875 28.421875 
Q 36.28125 30.8125 30.421875 30.8125 
L 19.671875 30.8125 
L 19.671875 0 
L 9.8125 0 
L 9.8125 72.90625 
L 32.078125 72.90625 
Q 44.578125 72.90625 50.734375 67.671875 
Q 56.890625 62.453125 56.890625 51.90625 
Q 56.890625 45.015625 53.6875 40.46875 
Q 50.484375 35.9375 44.390625 34.1875 
z
M 19.671875 64.796875 
L 19.671875 38.921875 
L 32.078125 38.921875 
Q 39.203125 38.921875 42.84375 42.21875 
Q 46.484375 45.515625 46.484375 51.90625 
Q 46.484375 58.296875 42.84375 61.546875 
Q 39.203125 64.796875 32.078125 64.796875 
z
" id="DejaVuSans-82"/>
        <path d="M 37.109375 75.984375 
L 37.109375 68.5 
L 28.515625 68.5 
Q 23.6875 68.5 21.796875 66.546875 
Q 19.921875 64.59375 19.921875 59.515625 
L 19.921875 54.6875 
L 34.71875 54.6875 
L 34.71875 47.703125 
L 19.921875 47.703125 
L 19.921875 0 
L 10.890625 0 
L 10.890625 47.703125 
L 2.296875 47.703125 
L 2.296875 54.6875 
L 10.890625 54.6875 
L 10.890625 58.5 
Q 10.890625 67.625 15.140625 71.796875 
Q 19.390625 75.984375 28.609375 75.984375 
z
" id="DejaVuSans-102"/>
       </defs>
       <use transform="translate(0 0.09375)" xlink:href="#DejaVuSans-70"/>
       <use transform="translate(57.519531 0.09375)" xlink:href="#DejaVuSans-78"/>
       <use transform="translate(128.699219 0.09375)" xlink:href="#DejaVuSans-82"/>
       <use transform="translate(199.138672 -16.3125)scale(0.7)" xlink:href="#DejaVuSans-102"/>
      </g>
     </g>
    </g>
    <g id="xtick_2">
     <g id="line2d_2">
      <path clip-path="url(#pf041c2b6db)" d="M 257.7185 239.414388 
L 140.511388 92.441318 
" style="fill:none;stroke:#b0b0b0;stroke-linecap:square;stroke-width:0.8;"/>
     </g>
     <g id="text_2">
      <!-- $\rm{FDR}_f$ -->
      <g transform="translate(117.802531 84.806927)scale(0.12 -0.12)">
       <defs>
        <path d="M 19.671875 64.796875 
L 19.671875 8.109375 
L 31.59375 8.109375 
Q 46.6875 8.109375 53.6875 14.9375 
Q 60.6875 21.78125 60.6875 36.53125 
Q 60.6875 51.171875 53.6875 57.984375 
Q 46.6875 64.796875 31.59375 64.796875 
z
M 9.8125 72.90625 
L 30.078125 72.90625 
Q 51.265625 72.90625 61.171875 64.09375 
Q 71.09375 55.28125 71.09375 36.53125 
Q 71.09375 17.671875 61.125 8.828125 
Q 51.171875 0 30.078125 0 
L 9.8125 0 
z
" id="DejaVuSans-68"/>
       </defs>
       <use transform="translate(0 0.09375)" xlink:href="#DejaVuSans-70"/>
       <use transform="translate(57.519531 0.09375)" xlink:href="#DejaVuSans-68"/>
       <use transform="translate(134.521484 0.09375)" xlink:href="#DejaVuSans-82"/>
       <use transform="translate(204.960938 -16.3125)scale(0.7)" xlink:href="#DejaVuSans-102"/>
      </g>
     </g>
    </g>
    <g id="xtick_3">
     <g id="line2d_3">
      <path clip-path="url(#pf041c2b6db)" d="M 257.7185 239.414388 
L 88.349316 157.850487 
" style="fill:none;stroke:#b0b0b0;stroke-linecap:square;stroke-width:0.8;"/>
     </g>
     <g id="text_3">
      <!-- $\rm{F}_f$ -->
      <g transform="translate(70.575752 155.087365)scale(0.12 -0.12)">
       <use transform="translate(0 0.09375)" xlink:href="#DejaVuSans-70"/>
       <use transform="translate(58.476562 -16.3125)scale(0.7)" xlink:href="#DejaVuSans-102"/>
      </g>
     </g>
    </g>
    <g id="xtick_4">
     <g id="line2d_4">
      <path clip-path="url(#pf041c2b6db)" d="M 257.7185 239.414388 
L 69.732888 239.414388 
" style="fill:none;stroke:#b0b0b0;stroke-linecap:square;stroke-width:0.8;"/>
     </g>
     <g id="text_4">
      <!-- $\rm{M}_f$ -->
      <g transform="translate(48.832888 242.725638)scale(0.12 -0.12)">
       <defs>
        <path d="M 9.8125 72.90625 
L 24.515625 72.90625 
L 43.109375 23.296875 
L 61.8125 72.90625 
L 76.515625 72.90625 
L 76.515625 0 
L 66.890625 0 
L 66.890625 64.015625 
L 48.09375 14.015625 
L 38.1875 14.015625 
L 19.390625 64.015625 
L 19.390625 0 
L 9.8125 0 
z
" id="DejaVuSans-77"/>
       </defs>
       <use transform="translate(0 0.09375)" xlink:href="#DejaVuSans-77"/>
       <use transform="translate(87.236328 -16.3125)scale(0.7)" xlink:href="#DejaVuSans-102"/>
      </g>
     </g>
    </g>
    <g id="xtick_5">
     <g id="line2d_5">
      <path clip-path="url(#pf041c2b6db)" d="M 257.7185 239.414388 
L 88.349316 320.978288 
" style="fill:none;stroke:#b0b0b0;stroke-linecap:square;stroke-width:0.8;"/>
     </g>
     <g id="text_5">
      <!-- $\rm{D}_f$ -->
      <g transform="translate(69.375752 330.36391)scale(0.12 -0.12)">
       <use transform="translate(0 0.09375)" xlink:href="#DejaVuSans-68"/>
       <use transform="translate(77.958984 -16.3125)scale(0.7)" xlink:href="#DejaVuSans-102"/>
      </g>
     </g>
    </g>
    <g id="xtick_6">
     <g id="line2d_6">
      <path clip-path="url(#pf041c2b6db)" d="M 257.7185 239.414388 
L 140.511388 386.387458 
" style="fill:none;stroke:#b0b0b0;stroke-linecap:square;stroke-width:0.8;"/>
     </g>
     <g id="text_6">
      <!-- $\rm{I}_f$ -->
      <g transform="translate(128.302531 400.644348)scale(0.12 -0.12)">
       <defs>
        <path d="M 9.8125 72.90625 
L 19.671875 72.90625 
L 19.671875 0 
L 9.8125 0 
z
" id="DejaVuSans-73"/>
       </defs>
       <use transform="translate(0 0.09375)" xlink:href="#DejaVuSans-73"/>
       <use transform="translate(30.449219 -16.3125)scale(0.7)" xlink:href="#DejaVuSans-102"/>
      </g>
     </g>
    </g>
    <g id="xtick_7">
     <g id="line2d_7">
      <path clip-path="url(#pf041c2b6db)" d="M 257.7185 239.414388 
L 215.887766 422.686808 
" style="fill:none;stroke:#b0b0b0;stroke-linecap:square;stroke-width:0.8;"/>
     </g>
     <g id="text_7">
      <!-- $\rm{U}_f$ -->
      <g transform="translate(206.652473 439.647049)scale(0.12 -0.12)">
       <defs>
        <path d="M 8.6875 72.90625 
L 18.609375 72.90625 
L 18.609375 28.609375 
Q 18.609375 16.890625 22.84375 11.734375 
Q 27.09375 6.59375 36.625 6.59375 
Q 46.09375 6.59375 50.34375 11.734375 
Q 54.59375 16.890625 54.59375 28.609375 
L 54.59375 72.90625 
L 64.5 72.90625 
L 64.5 27.390625 
Q 64.5 13.140625 57.4375 5.859375 
Q 50.390625 -1.421875 36.625 -1.421875 
Q 22.796875 -1.421875 15.734375 5.859375 
Q 8.6875 13.140625 8.6875 27.390625 
z
" id="DejaVuSans-85"/>
       </defs>
       <use transform="translate(0 0.09375)" xlink:href="#DejaVuSans-85"/>
       <use transform="translate(74.150391 -16.3125)scale(0.7)" xlink:href="#DejaVuSans-102"/>
      </g>
     </g>
    </g>
    <g id="xtick_8">
     <g id="line2d_8">
      <path clip-path="url(#pf041c2b6db)" d="M 257.7185 239.414388 
L 299.549234 422.686808 
" style="fill:none;stroke:#b0b0b0;stroke-linecap:square;stroke-width:0.8;"/>
     </g>
     <g id="text_8">
      <!-- $\rm{O}_f$ -->
      <g transform="translate(296.184527 439.647049)scale(0.12 -0.12)">
       <defs>
        <path d="M 39.40625 66.21875 
Q 28.65625 66.21875 22.328125 58.203125 
Q 16.015625 50.203125 16.015625 36.375 
Q 16.015625 22.609375 22.328125 14.59375 
Q 28.65625 6.59375 39.40625 6.59375 
Q 50.140625 6.59375 56.421875 14.59375 
Q 62.703125 22.609375 62.703125 36.375 
Q 62.703125 50.203125 56.421875 58.203125 
Q 50.140625 66.21875 39.40625 66.21875 
z
M 39.40625 74.21875 
Q 54.734375 74.21875 63.90625 63.9375 
Q 73.09375 53.65625 73.09375 36.375 
Q 73.09375 19.140625 63.90625 8.859375 
Q 54.734375 -1.421875 39.40625 -1.421875 
Q 24.03125 -1.421875 14.8125 8.828125 
Q 5.609375 19.09375 5.609375 36.375 
Q 5.609375 53.65625 14.8125 63.9375 
Q 24.03125 74.21875 39.40625 74.21875 
z
" id="DejaVuSans-79"/>
       </defs>
       <use transform="translate(0 0.78125)" xlink:href="#DejaVuSans-79"/>
       <use transform="translate(79.667969 -15.625)scale(0.7)" xlink:href="#DejaVuSans-102"/>
      </g>
     </g>
    </g>
    <g id="xtick_9">
     <g id="line2d_9">
      <path clip-path="url(#pf041c2b6db)" d="M 257.7185 239.414388 
L 374.925612 386.387458 
" style="fill:none;stroke:#b0b0b0;stroke-linecap:square;stroke-width:0.8;"/>
     </g>
     <g id="text_9">
      <!-- $\rm{I}_b$ -->
      <g transform="translate(378.974469 400.644348)scale(0.12 -0.12)">
       <defs>
        <path d="M 48.6875 27.296875 
Q 48.6875 37.203125 44.609375 42.84375 
Q 40.53125 48.484375 33.40625 48.484375 
Q 26.265625 48.484375 22.1875 42.84375 
Q 18.109375 37.203125 18.109375 27.296875 
Q 18.109375 17.390625 22.1875 11.75 
Q 26.265625 6.109375 33.40625 6.109375 
Q 40.53125 6.109375 44.609375 11.75 
Q 48.6875 17.390625 48.6875 27.296875 
z
M 18.109375 46.390625 
Q 20.953125 51.265625 25.265625 53.625 
Q 29.59375 56 35.59375 56 
Q 45.5625 56 51.78125 48.09375 
Q 58.015625 40.1875 58.015625 27.296875 
Q 58.015625 14.40625 51.78125 6.484375 
Q 45.5625 -1.421875 35.59375 -1.421875 
Q 29.59375 -1.421875 25.265625 0.953125 
Q 20.953125 3.328125 18.109375 8.203125 
L 18.109375 0 
L 9.078125 0 
L 9.078125 75.984375 
L 18.109375 75.984375 
z
" id="DejaVuSans-98"/>
       </defs>
       <use transform="translate(0 0.09375)" xlink:href="#DejaVuSans-73"/>
       <use transform="translate(30.449219 -16.3125)scale(0.7)" xlink:href="#DejaVuSans-98"/>
      </g>
     </g>
    </g>
    <g id="xtick_10">
     <g id="line2d_10">
      <path clip-path="url(#pf041c2b6db)" d="M 257.7185 239.414388 
L 427.087684 320.978288 
" style="fill:none;stroke:#b0b0b0;stroke-linecap:square;stroke-width:0.8;"/>
     </g>
     <g id="text_10">
      <!-- $\rm{D}_b$ -->
      <g transform="translate(432.141248 330.36391)scale(0.12 -0.12)">
       <use transform="translate(0 0.09375)" xlink:href="#DejaVuSans-68"/>
       <use transform="translate(77.958984 -16.3125)scale(0.7)" xlink:href="#DejaVuSans-98"/>
      </g>
     </g>
    </g>
    <g id="xtick_11">
     <g id="line2d_11">
      <path clip-path="url(#pf041c2b6db)" d="M 257.7185 239.414388 
L 445.704112 239.414388 
" style="fill:none;stroke:#b0b0b0;stroke-linecap:square;stroke-width:0.8;"/>
     </g>
     <g id="text_11">
      <!-- $\rm{M}_b$ -->
      <g transform="translate(451.604112 242.725638)scale(0.12 -0.12)">
       <use transform="translate(0 0.09375)" xlink:href="#DejaVuSans-77"/>
       <use transform="translate(87.236328 -16.3125)scale(0.7)" xlink:href="#DejaVuSans-98"/>
      </g>
     </g>
    </g>
    <g id="xtick_12">
     <g id="line2d_12">
      <path clip-path="url(#pf041c2b6db)" d="M 257.7185 239.414388 
L 427.087684 157.850487 
" style="fill:none;stroke:#b0b0b0;stroke-linecap:square;stroke-width:0.8;"/>
     </g>
     <g id="text_12">
      <!-- $\rm{F}_b$ -->
      <g transform="translate(433.341248 155.087365)scale(0.12 -0.12)">
       <use transform="translate(0 0.09375)" xlink:href="#DejaVuSans-70"/>
       <use transform="translate(58.476562 -16.3125)scale(0.7)" xlink:href="#DejaVuSans-98"/>
      </g>
     </g>
    </g>
    <g id="xtick_13">
     <g id="line2d_13">
      <path clip-path="url(#pf041c2b6db)" d="M 257.7185 239.414388 
L 374.925612 92.441318 
" style="fill:none;stroke:#b0b0b0;stroke-linecap:square;stroke-width:0.8;"/>
     </g>
     <g id="text_13">
      <!-- $\rm{FDR}_b$ -->
      <g transform="translate(368.474469 84.806927)scale(0.12 -0.12)">
       <use transform="translate(0 0.09375)" xlink:href="#DejaVuSans-70"/>
       <use transform="translate(57.519531 0.09375)" xlink:href="#DejaVuSans-68"/>
       <use transform="translate(134.521484 0.09375)" xlink:href="#DejaVuSans-82"/>
       <use transform="translate(204.960938 -16.3125)scale(0.7)" xlink:href="#DejaVuSans-98"/>
      </g>
     </g>
    </g>
    <g id="xtick_14">
     <g id="line2d_14">
      <path clip-path="url(#pf041c2b6db)" d="M 257.7185 239.414388 
L 299.549234 56.141967 
" style="fill:none;stroke:#b0b0b0;stroke-linecap:square;stroke-width:0.8;"/>
     </g>
     <g id="text_14">
      <!-- $\rm{FNR}_b$ -->
      <g transform="translate(287.844527 45.804226)scale(0.12 -0.12)">
       <use transform="translate(0 0.09375)" xlink:href="#DejaVuSans-70"/>
       <use transform="translate(57.519531 0.09375)" xlink:href="#DejaVuSans-78"/>
       <use transform="translate(128.699219 0.09375)" xlink:href="#DejaVuSans-82"/>
       <use transform="translate(199.138672 -16.3125)scale(0.7)" xlink:href="#DejaVuSans-98"/>
      </g>
     </g>
    </g>
   </g>
   <g id="matplotlib.axis_2">
    <g id="ytick_1">
     <g id="line2d_15">
      <path clip-path="url(#pf041c2b6db)" d="M 295.315622 239.414388 
C 295.315622 234.477179 294.3431 229.587978 292.453712 225.026592 
C 290.564324 220.465206 287.794814 216.320341 284.30368 212.829207 
C 280.812546 209.338074 276.667682 206.568564 272.106296 204.679176 
C 267.54491 202.789788 262.655709 201.817265 257.7185 201.817265 
C 252.781291 201.817265 247.89209 202.789788 243.330704 204.679176 
C 238.769318 206.568564 234.624454 209.338074 231.13332 212.829207 
C 227.642186 216.320341 224.872676 220.465206 222.983288 225.026592 
C 221.0939 229.587978 220.121378 234.477179 220.121378 239.414388 
C 220.121378 244.351597 221.0939 249.240797 222.983288 253.802184 
C 224.872676 258.36357 227.642186 262.508434 231.13332 265.999568 
C 234.624454 269.490702 238.769318 272.260212 243.330704 274.1496 
C 247.89209 276.038988 252.781291 277.01151 257.7185 277.01151 
C 262.655709 277.01151 267.54491 276.038988 272.106296 274.1496 
C 276.667682 272.260212 280.812546 269.490702 284.30368 265.999568 
C 287.794814 262.508434 290.564324 258.36357 292.453712 253.802184 
C 294.3431 249.240797 295.315622 244.351597 295.315622 239.414388 
" style="fill:none;stroke:#b0b0b0;stroke-linecap:square;stroke-width:0.8;"/>
     </g>
     <g id="text_15">
      <!-- 0.8 -->
      <g transform="translate(292.453712 222.946904)scale(0.1 -0.1)">
       <defs>
        <path d="M 31.78125 66.40625 
Q 24.171875 66.40625 20.328125 58.90625 
Q 16.5 51.421875 16.5 36.375 
Q 16.5 21.390625 20.328125 13.890625 
Q 24.171875 6.390625 31.78125 6.390625 
Q 39.453125 6.390625 43.28125 13.890625 
Q 47.125 21.390625 47.125 36.375 
Q 47.125 51.421875 43.28125 58.90625 
Q 39.453125 66.40625 31.78125 66.40625 
z
M 31.78125 74.21875 
Q 44.046875 74.21875 50.515625 64.515625 
Q 56.984375 54.828125 56.984375 36.375 
Q 56.984375 17.96875 50.515625 8.265625 
Q 44.046875 -1.421875 31.78125 -1.421875 
Q 19.53125 -1.421875 13.0625 8.265625 
Q 6.59375 17.96875 6.59375 36.375 
Q 6.59375 54.828125 13.0625 64.515625 
Q 19.53125 74.21875 31.78125 74.21875 
z
" id="DejaVuSans-48"/>
        <path d="M 10.6875 12.40625 
L 21 12.40625 
L 21 0 
L 10.6875 0 
z
" id="DejaVuSans-46"/>
        <path d="M 31.78125 34.625 
Q 24.75 34.625 20.71875 30.859375 
Q 16.703125 27.09375 16.703125 20.515625 
Q 16.703125 13.921875 20.71875 10.15625 
Q 24.75 6.390625 31.78125 6.390625 
Q 38.8125 6.390625 42.859375 10.171875 
Q 46.921875 13.96875 46.921875 20.515625 
Q 46.921875 27.09375 42.890625 30.859375 
Q 38.875 34.625 31.78125 34.625 
z
M 21.921875 38.8125 
Q 15.578125 40.375 12.03125 44.71875 
Q 8.5 49.078125 8.5 55.328125 
Q 8.5 64.0625 14.71875 69.140625 
Q 20.953125 74.21875 31.78125 74.21875 
Q 42.671875 74.21875 48.875 69.140625 
Q 55.078125 64.0625 55.078125 55.328125 
Q 55.078125 49.078125 51.53125 44.71875 
Q 48 40.375 41.703125 38.8125 
Q 48.828125 37.15625 52.796875 32.3125 
Q 56.78125 27.484375 56.78125 20.515625 
Q 56.78125 9.90625 50.3125 4.234375 
Q 43.84375 -1.421875 31.78125 -1.421875 
Q 19.734375 -1.421875 13.25 4.234375 
Q 6.78125 9.90625 6.78125 20.515625 
Q 6.78125 27.484375 10.78125 32.3125 
Q 14.796875 37.15625 21.921875 38.8125 
z
M 18.3125 54.390625 
Q 18.3125 48.734375 21.84375 45.5625 
Q 25.390625 42.390625 31.78125 42.390625 
Q 38.140625 42.390625 41.71875 45.5625 
Q 45.3125 48.734375 45.3125 54.390625 
Q 45.3125 60.0625 41.71875 63.234375 
Q 38.140625 66.40625 31.78125 66.40625 
Q 25.390625 66.40625 21.84375 63.234375 
Q 18.3125 60.0625 18.3125 54.390625 
z
" id="DejaVuSans-56"/>
       </defs>
       <use xlink:href="#DejaVuSans-48"/>
       <use x="63.623047" xlink:href="#DejaVuSans-46"/>
       <use x="95.410156" xlink:href="#DejaVuSans-56"/>
      </g>
     </g>
    </g>
    <g id="ytick_2">
     <g id="line2d_16">
      <path clip-path="url(#pf041c2b6db)" d="M 332.912745 239.414388 
C 332.912745 229.53997 330.9677 219.761568 327.188924 210.638796 
C 323.410148 201.516023 317.871128 193.226295 310.88886 186.244027 
C 303.906593 179.261759 295.616864 173.72274 286.494092 169.943964 
C 277.371319 166.165188 267.592918 164.220143 257.7185 164.220143 
C 247.844082 164.220143 238.065681 166.165188 228.942908 169.943964 
C 219.820136 173.72274 211.530407 179.261759 204.54814 186.244027 
C 197.565872 193.226295 192.026852 201.516023 188.248076 210.638796 
C 184.4693 219.761568 182.524255 229.53997 182.524255 239.414388 
C 182.524255 249.288805 184.4693 259.067207 188.248076 268.189979 
C 192.026852 277.312752 197.565872 285.60248 204.54814 292.584748 
C 211.530407 299.567016 219.820136 305.106035 228.942908 308.884812 
C 238.065681 312.663588 247.844082 314.608633 257.7185 314.608633 
C 267.592918 314.608633 277.371319 312.663588 286.494092 308.884812 
C 295.616864 305.106035 303.906593 299.567016 310.88886 292.584748 
C 317.871128 285.60248 323.410148 277.312752 327.188924 268.189979 
C 330.9677 259.067207 332.912745 249.288805 332.912745 239.414388 
" style="fill:none;stroke:#b0b0b0;stroke-linecap:square;stroke-width:0.8;"/>
     </g>
     <g id="text_16">
      <!-- 0.6 -->
      <g transform="translate(327.188924 208.559108)scale(0.1 -0.1)">
       <defs>
        <path d="M 33.015625 40.375 
Q 26.375 40.375 22.484375 35.828125 
Q 18.609375 31.296875 18.609375 23.390625 
Q 18.609375 15.53125 22.484375 10.953125 
Q 26.375 6.390625 33.015625 6.390625 
Q 39.65625 6.390625 43.53125 10.953125 
Q 47.40625 15.53125 47.40625 23.390625 
Q 47.40625 31.296875 43.53125 35.828125 
Q 39.65625 40.375 33.015625 40.375 
z
M 52.59375 71.296875 
L 52.59375 62.3125 
Q 48.875 64.0625 45.09375 64.984375 
Q 41.3125 65.921875 37.59375 65.921875 
Q 27.828125 65.921875 22.671875 59.328125 
Q 17.53125 52.734375 16.796875 39.40625 
Q 19.671875 43.65625 24.015625 45.921875 
Q 28.375 48.1875 33.59375 48.1875 
Q 44.578125 48.1875 50.953125 41.515625 
Q 57.328125 34.859375 57.328125 23.390625 
Q 57.328125 12.15625 50.6875 5.359375 
Q 44.046875 -1.421875 33.015625 -1.421875 
Q 20.359375 -1.421875 13.671875 8.265625 
Q 6.984375 17.96875 6.984375 36.375 
Q 6.984375 53.65625 15.1875 63.9375 
Q 23.390625 74.21875 37.203125 74.21875 
Q 40.921875 74.21875 44.703125 73.484375 
Q 48.484375 72.75 52.59375 71.296875 
z
" id="DejaVuSans-54"/>
       </defs>
       <use xlink:href="#DejaVuSans-48"/>
       <use x="63.623047" xlink:href="#DejaVuSans-46"/>
       <use x="95.410156" xlink:href="#DejaVuSans-54"/>
      </g>
     </g>
    </g>
    <g id="ytick_3">
     <g id="line2d_17">
      <path clip-path="url(#pf041c2b6db)" d="M 370.509867 239.414388 
C 370.509867 224.602761 367.5923 209.935159 361.924136 196.251 
C 356.255972 182.566841 347.947442 170.132249 337.474041 159.658847 
C 327.000639 149.185445 314.566046 140.876916 300.881888 135.208752 
C 287.197729 129.540588 272.530127 126.62302 257.7185 126.62302 
C 242.906873 126.62302 228.239271 129.540588 214.555112 135.208752 
C 200.870954 140.876916 188.436361 149.185445 177.962959 159.658847 
C 167.489558 170.132249 159.181028 182.566841 153.512864 196.251 
C 147.8447 209.935159 144.927133 224.602761 144.927133 239.414388 
C 144.927133 254.226014 147.8447 268.893617 153.512864 282.577775 
C 159.181028 296.261934 167.489558 308.696527 177.962959 319.169928 
C 188.436361 329.64333 200.870954 337.951859 214.555112 343.620023 
C 228.239271 349.288188 242.906873 352.205755 257.7185 352.205755 
C 272.530127 352.205755 287.197729 349.288188 300.881888 343.620023 
C 314.566046 337.951859 327.000639 329.64333 337.474041 319.169928 
C 347.947442 308.696527 356.255972 296.261934 361.924136 282.577775 
C 367.5923 268.893617 370.509867 254.226014 370.509867 239.414388 
" style="fill:none;stroke:#b0b0b0;stroke-linecap:square;stroke-width:0.8;"/>
     </g>
     <g id="text_17">
      <!-- 0.4 -->
      <g transform="translate(361.924136 194.171313)scale(0.1 -0.1)">
       <defs>
        <path d="M 37.796875 64.3125 
L 12.890625 25.390625 
L 37.796875 25.390625 
z
M 35.203125 72.90625 
L 47.609375 72.90625 
L 47.609375 25.390625 
L 58.015625 25.390625 
L 58.015625 17.1875 
L 47.609375 17.1875 
L 47.609375 0 
L 37.796875 0 
L 37.796875 17.1875 
L 4.890625 17.1875 
L 4.890625 26.703125 
z
" id="DejaVuSans-52"/>
       </defs>
       <use xlink:href="#DejaVuSans-48"/>
       <use x="63.623047" xlink:href="#DejaVuSans-46"/>
       <use x="95.410156" xlink:href="#DejaVuSans-52"/>
      </g>
     </g>
    </g>
    <g id="ytick_4">
     <g id="line2d_18">
      <path clip-path="url(#pf041c2b6db)" d="M 408.10699 239.414388 
C 408.10699 219.665552 404.2169 200.108749 396.659348 181.863204 
C 389.101796 163.617659 378.023757 147.038202 364.059221 133.073667 
C 350.094685 119.109131 333.515228 108.031092 315.269683 100.47354 
C 297.024139 92.915988 277.467336 89.025898 257.7185 89.025898 
C 237.969664 89.025898 218.412861 92.915988 200.167317 100.47354 
C 181.921772 108.031092 165.342315 119.109131 151.377779 133.073667 
C 137.413243 147.038202 126.335204 163.617659 118.777652 181.863204 
C 111.2201 200.108749 107.33001 219.665552 107.33001 239.414388 
C 107.33001 259.163223 111.2201 278.720026 118.777652 296.965571 
C 126.335204 315.211116 137.413243 331.790573 151.377779 345.755109 
C 165.342315 359.719644 181.921772 370.797683 200.167317 378.355235 
C 218.412861 385.912788 237.969664 389.802878 257.7185 389.802878 
C 277.467336 389.802878 297.024139 385.912788 315.269683 378.355235 
C 333.515228 370.797683 350.094685 359.719644 364.059221 345.755109 
C 378.023757 331.790573 389.101796 315.211116 396.659348 296.965571 
C 404.2169 278.720026 408.10699 259.163223 408.10699 239.414388 
" style="fill:none;stroke:#b0b0b0;stroke-linecap:square;stroke-width:0.8;"/>
     </g>
     <g id="text_18">
      <!-- 0.2 -->
      <g transform="translate(396.659348 179.783517)scale(0.1 -0.1)">
       <defs>
        <path d="M 19.1875 8.296875 
L 53.609375 8.296875 
L 53.609375 0 
L 7.328125 0 
L 7.328125 8.296875 
Q 12.9375 14.109375 22.625 23.890625 
Q 32.328125 33.6875 34.8125 36.53125 
Q 39.546875 41.84375 41.421875 45.53125 
Q 43.3125 49.21875 43.3125 52.78125 
Q 43.3125 58.59375 39.234375 62.25 
Q 35.15625 65.921875 28.609375 65.921875 
Q 23.96875 65.921875 18.8125 64.3125 
Q 13.671875 62.703125 7.8125 59.421875 
L 7.8125 69.390625 
Q 13.765625 71.78125 18.9375 73 
Q 24.125 74.21875 28.421875 74.21875 
Q 39.75 74.21875 46.484375 68.546875 
Q 53.21875 62.890625 53.21875 53.421875 
Q 53.21875 48.921875 51.53125 44.890625 
Q 49.859375 40.875 45.40625 35.40625 
Q 44.1875 33.984375 37.640625 27.21875 
Q 31.109375 20.453125 19.1875 8.296875 
z
" id="DejaVuSans-50"/>
       </defs>
       <use xlink:href="#DejaVuSans-48"/>
       <use x="63.623047" xlink:href="#DejaVuSans-46"/>
       <use x="95.410156" xlink:href="#DejaVuSans-50"/>
      </g>
     </g>
    </g>
   </g>
   <g id="line2d_19">
    <path clip-path="url(#pf041c2b6db)" d="M 215.887766 56.141967 
L 140.511388 92.441318 
L 88.349316 157.850487 
L 69.732888 239.414388 
L 88.349316 320.978288 
L 140.511388 386.387458 
L 215.887766 422.686808 
L 299.549234 422.686808 
L 374.925612 386.387458 
L 427.087684 320.978288 
L 445.704112 239.414388 
L 427.087684 157.850487 
L 374.925612 92.441318 
L 299.549234 56.141967 
L 215.887766 56.141967 
" style="fill:none;stroke:#000000;stroke-linecap:square;"/>
   </g>
   <g id="line2d_20">
    <path clip-path="url(#pf041c2b6db)" d="M 69.732888 239.414388 
M 140.511388 386.387458 
M 299.549234 422.686808 
" style="fill:none;stroke:#1f77b4;stroke-linecap:square;stroke-width:2;"/>
   </g>
   <g id="line2d_21">
    <path clip-path="url(#pf041c2b6db)" d="M 69.732888 239.414388 
M 140.511388 386.387458 
M 299.549234 422.686808 
" style="fill:none;stroke:#ff7f0e;stroke-linecap:square;stroke-width:2;"/>
   </g>
   <g id="line2d_22">
    <path clip-path="url(#pf041c2b6db)" d="M 69.732888 239.414388 
M 140.511388 386.387458 
M 299.549234 422.686808 
" style="fill:none;stroke:#2ca02c;stroke-linecap:square;stroke-width:2;"/>
   </g>
   <g id="line2d_23">
    <path clip-path="url(#pf041c2b6db)" d="M 69.732888 239.414388 
M 140.511388 386.387458 
M 299.549234 422.686808 
" style="fill:none;stroke:#d62728;stroke-linecap:square;stroke-width:2;"/>
   </g>
   <g id="legend_1">
    <g id="patch_3">
     <path d="M 15.737204 466.2275 
L 180.789704 466.2275 
Q 183.189704 466.2275 183.189704 463.8275 
L 183.189704 429.8 
Q 183.189704 427.4 180.789704 427.4 
L 15.737204 427.4 
Q 13.337204 427.4 13.337204 429.8 
L 13.337204 463.8275 
Q 13.337204 466.2275 15.737204 466.2275 
z
" style="fill:none;opacity:0;"/>
    </g>
    <g id="patch_4">
     <path d="M 18.137204 441.318125 
L 42.137204 441.318125 
L 42.137204 432.918125 
L 18.137204 432.918125 
z
" style="fill:#d3d3d3;stroke:#000000;stroke-linejoin:miter;"/>
    </g>
    <g id="text_19">
     <!-- Frame-based metrics -->
     <g transform="translate(51.737204 441.318125)scale(0.12 -0.12)">
      <defs>
       <path d="M 41.109375 46.296875 
Q 39.59375 47.171875 37.8125 47.578125 
Q 36.03125 48 33.890625 48 
Q 26.265625 48 22.1875 43.046875 
Q 18.109375 38.09375 18.109375 28.8125 
L 18.109375 0 
L 9.078125 0 
L 9.078125 54.6875 
L 18.109375 54.6875 
L 18.109375 46.1875 
Q 20.953125 51.171875 25.484375 53.578125 
Q 30.03125 56 36.53125 56 
Q 37.453125 56 38.578125 55.875 
Q 39.703125 55.765625 41.0625 55.515625 
z
" id="DejaVuSans-114"/>
       <path d="M 34.28125 27.484375 
Q 23.390625 27.484375 19.1875 25 
Q 14.984375 22.515625 14.984375 16.5 
Q 14.984375 11.71875 18.140625 8.90625 
Q 21.296875 6.109375 26.703125 6.109375 
Q 34.1875 6.109375 38.703125 11.40625 
Q 43.21875 16.703125 43.21875 25.484375 
L 43.21875 27.484375 
z
M 52.203125 31.203125 
L 52.203125 0 
L 43.21875 0 
L 43.21875 8.296875 
Q 40.140625 3.328125 35.546875 0.953125 
Q 30.953125 -1.421875 24.3125 -1.421875 
Q 15.921875 -1.421875 10.953125 3.296875 
Q 6 8.015625 6 15.921875 
Q 6 25.140625 12.171875 29.828125 
Q 18.359375 34.515625 30.609375 34.515625 
L 43.21875 34.515625 
L 43.21875 35.40625 
Q 43.21875 41.609375 39.140625 45 
Q 35.0625 48.390625 27.6875 48.390625 
Q 23 48.390625 18.546875 47.265625 
Q 14.109375 46.140625 10.015625 43.890625 
L 10.015625 52.203125 
Q 14.9375 54.109375 19.578125 55.046875 
Q 24.21875 56 28.609375 56 
Q 40.484375 56 46.34375 49.84375 
Q 52.203125 43.703125 52.203125 31.203125 
z
" id="DejaVuSans-97"/>
       <path d="M 52 44.1875 
Q 55.375 50.25 60.0625 53.125 
Q 64.75 56 71.09375 56 
Q 79.640625 56 84.28125 50.015625 
Q 88.921875 44.046875 88.921875 33.015625 
L 88.921875 0 
L 79.890625 0 
L 79.890625 32.71875 
Q 79.890625 40.578125 77.09375 44.375 
Q 74.3125 48.1875 68.609375 48.1875 
Q 61.625 48.1875 57.5625 43.546875 
Q 53.515625 38.921875 53.515625 30.90625 
L 53.515625 0 
L 44.484375 0 
L 44.484375 32.71875 
Q 44.484375 40.625 41.703125 44.40625 
Q 38.921875 48.1875 33.109375 48.1875 
Q 26.21875 48.1875 22.15625 43.53125 
Q 18.109375 38.875 18.109375 30.90625 
L 18.109375 0 
L 9.078125 0 
L 9.078125 54.6875 
L 18.109375 54.6875 
L 18.109375 46.1875 
Q 21.1875 51.21875 25.484375 53.609375 
Q 29.78125 56 35.6875 56 
Q 41.65625 56 45.828125 52.96875 
Q 50 49.953125 52 44.1875 
z
" id="DejaVuSans-109"/>
       <path d="M 56.203125 29.59375 
L 56.203125 25.203125 
L 14.890625 25.203125 
Q 15.484375 15.921875 20.484375 11.0625 
Q 25.484375 6.203125 34.421875 6.203125 
Q 39.59375 6.203125 44.453125 7.46875 
Q 49.3125 8.734375 54.109375 11.28125 
L 54.109375 2.78125 
Q 49.265625 0.734375 44.1875 -0.34375 
Q 39.109375 -1.421875 33.890625 -1.421875 
Q 20.796875 -1.421875 13.15625 6.1875 
Q 5.515625 13.8125 5.515625 26.8125 
Q 5.515625 40.234375 12.765625 48.109375 
Q 20.015625 56 32.328125 56 
Q 43.359375 56 49.78125 48.890625 
Q 56.203125 41.796875 56.203125 29.59375 
z
M 47.21875 32.234375 
Q 47.125 39.59375 43.09375 43.984375 
Q 39.0625 48.390625 32.421875 48.390625 
Q 24.90625 48.390625 20.390625 44.140625 
Q 15.875 39.890625 15.1875 32.171875 
z
" id="DejaVuSans-101"/>
       <path d="M 4.890625 31.390625 
L 31.203125 31.390625 
L 31.203125 23.390625 
L 4.890625 23.390625 
z
" id="DejaVuSans-45"/>
       <path d="M 44.28125 53.078125 
L 44.28125 44.578125 
Q 40.484375 46.53125 36.375 47.5 
Q 32.28125 48.484375 27.875 48.484375 
Q 21.1875 48.484375 17.84375 46.4375 
Q 14.5 44.390625 14.5 40.28125 
Q 14.5 37.15625 16.890625 35.375 
Q 19.28125 33.59375 26.515625 31.984375 
L 29.59375 31.296875 
Q 39.15625 29.25 43.1875 25.515625 
Q 47.21875 21.78125 47.21875 15.09375 
Q 47.21875 7.46875 41.1875 3.015625 
Q 35.15625 -1.421875 24.609375 -1.421875 
Q 20.21875 -1.421875 15.453125 -0.5625 
Q 10.6875 0.296875 5.421875 2 
L 5.421875 11.28125 
Q 10.40625 8.6875 15.234375 7.390625 
Q 20.0625 6.109375 24.8125 6.109375 
Q 31.15625 6.109375 34.5625 8.28125 
Q 37.984375 10.453125 37.984375 14.40625 
Q 37.984375 18.0625 35.515625 20.015625 
Q 33.0625 21.96875 24.703125 23.78125 
L 21.578125 24.515625 
Q 13.234375 26.265625 9.515625 29.90625 
Q 5.8125 33.546875 5.8125 39.890625 
Q 5.8125 47.609375 11.28125 51.796875 
Q 16.75 56 26.8125 56 
Q 31.78125 56 36.171875 55.265625 
Q 40.578125 54.546875 44.28125 53.078125 
z
" id="DejaVuSans-115"/>
       <path d="M 45.40625 46.390625 
L 45.40625 75.984375 
L 54.390625 75.984375 
L 54.390625 0 
L 45.40625 0 
L 45.40625 8.203125 
Q 42.578125 3.328125 38.25 0.953125 
Q 33.9375 -1.421875 27.875 -1.421875 
Q 17.96875 -1.421875 11.734375 6.484375 
Q 5.515625 14.40625 5.515625 27.296875 
Q 5.515625 40.1875 11.734375 48.09375 
Q 17.96875 56 27.875 56 
Q 33.9375 56 38.25 53.625 
Q 42.578125 51.265625 45.40625 46.390625 
z
M 14.796875 27.296875 
Q 14.796875 17.390625 18.875 11.75 
Q 22.953125 6.109375 30.078125 6.109375 
Q 37.203125 6.109375 41.296875 11.75 
Q 45.40625 17.390625 45.40625 27.296875 
Q 45.40625 37.203125 41.296875 42.84375 
Q 37.203125 48.484375 30.078125 48.484375 
Q 22.953125 48.484375 18.875 42.84375 
Q 14.796875 37.203125 14.796875 27.296875 
z
" id="DejaVuSans-100"/>
       <path id="DejaVuSans-32"/>
       <path d="M 18.3125 70.21875 
L 18.3125 54.6875 
L 36.8125 54.6875 
L 36.8125 47.703125 
L 18.3125 47.703125 
L 18.3125 18.015625 
Q 18.3125 11.328125 20.140625 9.421875 
Q 21.96875 7.515625 27.59375 7.515625 
L 36.8125 7.515625 
L 36.8125 0 
L 27.59375 0 
Q 17.1875 0 13.234375 3.875 
Q 9.28125 7.765625 9.28125 18.015625 
L 9.28125 47.703125 
L 2.6875 47.703125 
L 2.6875 54.6875 
L 9.28125 54.6875 
L 9.28125 70.21875 
z
" id="DejaVuSans-116"/>
       <path d="M 9.421875 54.6875 
L 18.40625 54.6875 
L 18.40625 0 
L 9.421875 0 
z
M 9.421875 75.984375 
L 18.40625 75.984375 
L 18.40625 64.59375 
L 9.421875 64.59375 
z
" id="DejaVuSans-105"/>
       <path d="M 48.78125 52.59375 
L 48.78125 44.1875 
Q 44.96875 46.296875 41.140625 47.34375 
Q 37.3125 48.390625 33.40625 48.390625 
Q 24.65625 48.390625 19.8125 42.84375 
Q 14.984375 37.3125 14.984375 27.296875 
Q 14.984375 17.28125 19.8125 11.734375 
Q 24.65625 6.203125 33.40625 6.203125 
Q 37.3125 6.203125 41.140625 7.25 
Q 44.96875 8.296875 48.78125 10.40625 
L 48.78125 2.09375 
Q 45.015625 0.34375 40.984375 -0.53125 
Q 36.96875 -1.421875 32.421875 -1.421875 
Q 20.0625 -1.421875 12.78125 6.34375 
Q 5.515625 14.109375 5.515625 27.296875 
Q 5.515625 40.671875 12.859375 48.328125 
Q 20.21875 56 33.015625 56 
Q 37.15625 56 41.109375 55.140625 
Q 45.0625 54.296875 48.78125 52.59375 
z
" id="DejaVuSans-99"/>
      </defs>
      <use xlink:href="#DejaVuSans-70"/>
      <use x="50.269531" xlink:href="#DejaVuSans-114"/>
      <use x="91.382812" xlink:href="#DejaVuSans-97"/>
      <use x="152.662109" xlink:href="#DejaVuSans-109"/>
      <use x="250.074219" xlink:href="#DejaVuSans-101"/>
      <use x="311.597656" xlink:href="#DejaVuSans-45"/>
      <use x="347.681641" xlink:href="#DejaVuSans-98"/>
      <use x="411.158203" xlink:href="#DejaVuSans-97"/>
      <use x="472.4375" xlink:href="#DejaVuSans-115"/>
      <use x="524.537109" xlink:href="#DejaVuSans-101"/>
      <use x="586.060547" xlink:href="#DejaVuSans-100"/>
      <use x="649.537109" xlink:href="#DejaVuSans-32"/>
      <use x="681.324219" xlink:href="#DejaVuSans-109"/>
      <use x="778.736328" xlink:href="#DejaVuSans-101"/>
      <use x="840.259766" xlink:href="#DejaVuSans-116"/>
      <use x="879.46875" xlink:href="#DejaVuSans-114"/>
      <use x="920.582031" xlink:href="#DejaVuSans-105"/>
      <use x="948.365234" xlink:href="#DejaVuSans-99"/>
      <use x="1003.345703" xlink:href="#DejaVuSans-115"/>
     </g>
    </g>
    <g id="patch_5">
     <path d="M 18.137204 458.931875 
L 42.137204 458.931875 
L 42.137204 450.531875 
L 18.137204 450.531875 
z
" style="fill:#ffffff;stroke:#000000;stroke-linejoin:miter;"/>
    </g>
    <g id="text_20">
     <!-- Block-based metrics -->
     <g transform="translate(51.737204 458.931875)scale(0.12 -0.12)">
      <defs>
       <path d="M 19.671875 34.8125 
L 19.671875 8.109375 
L 35.5 8.109375 
Q 43.453125 8.109375 47.28125 11.40625 
Q 51.125 14.703125 51.125 21.484375 
Q 51.125 28.328125 47.28125 31.5625 
Q 43.453125 34.8125 35.5 34.8125 
z
M 19.671875 64.796875 
L 19.671875 42.828125 
L 34.28125 42.828125 
Q 41.5 42.828125 45.03125 45.53125 
Q 48.578125 48.25 48.578125 53.8125 
Q 48.578125 59.328125 45.03125 62.0625 
Q 41.5 64.796875 34.28125 64.796875 
z
M 9.8125 72.90625 
L 35.015625 72.90625 
Q 46.296875 72.90625 52.390625 68.21875 
Q 58.5 63.53125 58.5 54.890625 
Q 58.5 48.1875 55.375 44.234375 
Q 52.25 40.28125 46.1875 39.3125 
Q 53.46875 37.75 57.5 32.78125 
Q 61.53125 27.828125 61.53125 20.40625 
Q 61.53125 10.640625 54.890625 5.3125 
Q 48.25 0 35.984375 0 
L 9.8125 0 
z
" id="DejaVuSans-66"/>
       <path d="M 9.421875 75.984375 
L 18.40625 75.984375 
L 18.40625 0 
L 9.421875 0 
z
" id="DejaVuSans-108"/>
       <path d="M 30.609375 48.390625 
Q 23.390625 48.390625 19.1875 42.75 
Q 14.984375 37.109375 14.984375 27.296875 
Q 14.984375 17.484375 19.15625 11.84375 
Q 23.34375 6.203125 30.609375 6.203125 
Q 37.796875 6.203125 41.984375 11.859375 
Q 46.1875 17.53125 46.1875 27.296875 
Q 46.1875 37.015625 41.984375 42.703125 
Q 37.796875 48.390625 30.609375 48.390625 
z
M 30.609375 56 
Q 42.328125 56 49.015625 48.375 
Q 55.71875 40.765625 55.71875 27.296875 
Q 55.71875 13.875 49.015625 6.21875 
Q 42.328125 -1.421875 30.609375 -1.421875 
Q 18.84375 -1.421875 12.171875 6.21875 
Q 5.515625 13.875 5.515625 27.296875 
Q 5.515625 40.765625 12.171875 48.375 
Q 18.84375 56 30.609375 56 
z
" id="DejaVuSans-111"/>
       <path d="M 9.078125 75.984375 
L 18.109375 75.984375 
L 18.109375 31.109375 
L 44.921875 54.6875 
L 56.390625 54.6875 
L 27.390625 29.109375 
L 57.625 0 
L 45.90625 0 
L 18.109375 26.703125 
L 18.109375 0 
L 9.078125 0 
z
" id="DejaVuSans-107"/>
      </defs>
      <use xlink:href="#DejaVuSans-66"/>
      <use x="68.603516" xlink:href="#DejaVuSans-108"/>
      <use x="96.386719" xlink:href="#DejaVuSans-111"/>
      <use x="157.568359" xlink:href="#DejaVuSans-99"/>
      <use x="212.548828" xlink:href="#DejaVuSans-107"/>
      <use x="270.458984" xlink:href="#DejaVuSans-45"/>
      <use x="306.542969" xlink:href="#DejaVuSans-98"/>
      <use x="370.019531" xlink:href="#DejaVuSans-97"/>
      <use x="431.298828" xlink:href="#DejaVuSans-115"/>
      <use x="483.398438" xlink:href="#DejaVuSans-101"/>
      <use x="544.921875" xlink:href="#DejaVuSans-100"/>
      <use x="608.398438" xlink:href="#DejaVuSans-32"/>
      <use x="640.185547" xlink:href="#DejaVuSans-109"/>
      <use x="737.597656" xlink:href="#DejaVuSans-101"/>
      <use x="799.121094" xlink:href="#DejaVuSans-116"/>
      <use x="838.330078" xlink:href="#DejaVuSans-114"/>
      <use x="879.443359" xlink:href="#DejaVuSans-105"/>
      <use x="907.226562" xlink:href="#DejaVuSans-99"/>
      <use x="962.207031" xlink:href="#DejaVuSans-115"/>
     </g>
    </g>
   </g>
   <g id="legend_2">
    <g id="patch_6">
     <path d="M 510.499796 112.685214 
L 636.023546 112.685214 
Q 638.423546 112.685214 638.423546 110.285214 
L 638.423546 41.030214 
Q 638.423546 38.630214 636.023546 38.630214 
L 510.499796 38.630214 
Q 508.099796 38.630214 508.099796 41.030214 
L 508.099796 110.285214 
Q 508.099796 112.685214 510.499796 112.685214 
z
" style="fill:#ffffff;opacity:0.8;stroke:#cccccc;stroke-linejoin:miter;"/>
    </g>
    <g id="line2d_24">
     <path d="M 512.899796 48.348339 
L 536.899796 48.348339 
" style="fill:none;stroke:#1f77b4;stroke-linecap:square;stroke-width:2;"/>
    </g>
    <g id="line2d_25"/>
    <g id="text_21">
     <!-- BUFAR -->
     <g transform="translate(546.499796 52.548339)scale(0.12 -0.12)">
      <defs>
       <path d="M 34.1875 63.1875 
L 20.796875 26.90625 
L 47.609375 26.90625 
z
M 28.609375 72.90625 
L 39.796875 72.90625 
L 67.578125 0 
L 57.328125 0 
L 50.6875 18.703125 
L 17.828125 18.703125 
L 11.1875 0 
L 0.78125 0 
z
" id="DejaVuSans-65"/>
      </defs>
      <use xlink:href="#DejaVuSans-66"/>
      <use x="68.603516" xlink:href="#DejaVuSans-85"/>
      <use x="141.796875" xlink:href="#DejaVuSans-70"/>
      <use x="190.191406" xlink:href="#DejaVuSans-65"/>
      <use x="258.599609" xlink:href="#DejaVuSans-82"/>
     </g>
    </g>
    <g id="line2d_26">
     <path d="M 512.899796 65.962089 
L 536.899796 65.962089 
" style="fill:none;stroke:#ff7f0e;stroke-linecap:square;stroke-width:2;"/>
    </g>
    <g id="line2d_27"/>
    <g id="text_22">
     <!-- RAFAR original -->
     <g transform="translate(546.499796 70.162089)scale(0.12 -0.12)">
      <defs>
       <path d="M 45.40625 27.984375 
Q 45.40625 37.75 41.375 43.109375 
Q 37.359375 48.484375 30.078125 48.484375 
Q 22.859375 48.484375 18.828125 43.109375 
Q 14.796875 37.75 14.796875 27.984375 
Q 14.796875 18.265625 18.828125 12.890625 
Q 22.859375 7.515625 30.078125 7.515625 
Q 37.359375 7.515625 41.375 12.890625 
Q 45.40625 18.265625 45.40625 27.984375 
z
M 54.390625 6.78125 
Q 54.390625 -7.171875 48.1875 -13.984375 
Q 42 -20.796875 29.203125 -20.796875 
Q 24.46875 -20.796875 20.265625 -20.09375 
Q 16.0625 -19.390625 12.109375 -17.921875 
L 12.109375 -9.1875 
Q 16.0625 -11.328125 19.921875 -12.34375 
Q 23.78125 -13.375 27.78125 -13.375 
Q 36.625 -13.375 41.015625 -8.765625 
Q 45.40625 -4.15625 45.40625 5.171875 
L 45.40625 9.625 
Q 42.625 4.78125 38.28125 2.390625 
Q 33.9375 0 27.875 0 
Q 17.828125 0 11.671875 7.65625 
Q 5.515625 15.328125 5.515625 27.984375 
Q 5.515625 40.671875 11.671875 48.328125 
Q 17.828125 56 27.875 56 
Q 33.9375 56 38.28125 53.609375 
Q 42.625 51.21875 45.40625 46.390625 
L 45.40625 54.6875 
L 54.390625 54.6875 
z
" id="DejaVuSans-103"/>
       <path d="M 54.890625 33.015625 
L 54.890625 0 
L 45.90625 0 
L 45.90625 32.71875 
Q 45.90625 40.484375 42.875 44.328125 
Q 39.84375 48.1875 33.796875 48.1875 
Q 26.515625 48.1875 22.3125 43.546875 
Q 18.109375 38.921875 18.109375 30.90625 
L 18.109375 0 
L 9.078125 0 
L 9.078125 54.6875 
L 18.109375 54.6875 
L 18.109375 46.1875 
Q 21.34375 51.125 25.703125 53.5625 
Q 30.078125 56 35.796875 56 
Q 45.21875 56 50.046875 50.171875 
Q 54.890625 44.34375 54.890625 33.015625 
z
" id="DejaVuSans-110"/>
      </defs>
      <use xlink:href="#DejaVuSans-82"/>
      <use x="65.482422" xlink:href="#DejaVuSans-65"/>
      <use x="133.890625" xlink:href="#DejaVuSans-70"/>
      <use x="182.285156" xlink:href="#DejaVuSans-65"/>
      <use x="250.693359" xlink:href="#DejaVuSans-82"/>
      <use x="320.175781" xlink:href="#DejaVuSans-32"/>
      <use x="351.962891" xlink:href="#DejaVuSans-111"/>
      <use x="413.144531" xlink:href="#DejaVuSans-114"/>
      <use x="454.257812" xlink:href="#DejaVuSans-105"/>
      <use x="482.041016" xlink:href="#DejaVuSans-103"/>
      <use x="545.517578" xlink:href="#DejaVuSans-105"/>
      <use x="573.300781" xlink:href="#DejaVuSans-110"/>
      <use x="636.679688" xlink:href="#DejaVuSans-97"/>
      <use x="697.958984" xlink:href="#DejaVuSans-108"/>
     </g>
    </g>
    <g id="line2d_28">
     <path d="M 512.899796 83.575839 
L 536.899796 83.575839 
" style="fill:none;stroke:#2ca02c;stroke-linecap:square;stroke-width:2;"/>
    </g>
    <g id="line2d_29"/>
    <g id="text_23">
     <!-- RAFAR empiric -->
     <g transform="translate(546.499796 87.775839)scale(0.12 -0.12)">
      <defs>
       <path d="M 18.109375 8.203125 
L 18.109375 -20.796875 
L 9.078125 -20.796875 
L 9.078125 54.6875 
L 18.109375 54.6875 
L 18.109375 46.390625 
Q 20.953125 51.265625 25.265625 53.625 
Q 29.59375 56 35.59375 56 
Q 45.5625 56 51.78125 48.09375 
Q 58.015625 40.1875 58.015625 27.296875 
Q 58.015625 14.40625 51.78125 6.484375 
Q 45.5625 -1.421875 35.59375 -1.421875 
Q 29.59375 -1.421875 25.265625 0.953125 
Q 20.953125 3.328125 18.109375 8.203125 
z
M 48.6875 27.296875 
Q 48.6875 37.203125 44.609375 42.84375 
Q 40.53125 48.484375 33.40625 48.484375 
Q 26.265625 48.484375 22.1875 42.84375 
Q 18.109375 37.203125 18.109375 27.296875 
Q 18.109375 17.390625 22.1875 11.75 
Q 26.265625 6.109375 33.40625 6.109375 
Q 40.53125 6.109375 44.609375 11.75 
Q 48.6875 17.390625 48.6875 27.296875 
z
" id="DejaVuSans-112"/>
      </defs>
      <use xlink:href="#DejaVuSans-82"/>
      <use x="65.482422" xlink:href="#DejaVuSans-65"/>
      <use x="133.890625" xlink:href="#DejaVuSans-70"/>
      <use x="182.285156" xlink:href="#DejaVuSans-65"/>
      <use x="250.693359" xlink:href="#DejaVuSans-82"/>
      <use x="320.175781" xlink:href="#DejaVuSans-32"/>
      <use x="351.962891" xlink:href="#DejaVuSans-101"/>
      <use x="413.486328" xlink:href="#DejaVuSans-109"/>
      <use x="510.898438" xlink:href="#DejaVuSans-112"/>
      <use x="574.375" xlink:href="#DejaVuSans-105"/>
      <use x="602.158203" xlink:href="#DejaVuSans-114"/>
      <use x="643.271484" xlink:href="#DejaVuSans-105"/>
      <use x="671.054688" xlink:href="#DejaVuSans-99"/>
     </g>
    </g>
    <g id="line2d_30">
     <path d="M 512.899796 101.189589 
L 536.899796 101.189589 
" style="fill:none;stroke:#d62728;stroke-linecap:square;stroke-width:2;"/>
    </g>
    <g id="line2d_31"/>
    <g id="text_24">
     <!-- RAFAR tuned -->
     <g transform="translate(546.499796 105.389589)scale(0.12 -0.12)">
      <defs>
       <path d="M 8.5 21.578125 
L 8.5 54.6875 
L 17.484375 54.6875 
L 17.484375 21.921875 
Q 17.484375 14.15625 20.5 10.265625 
Q 23.53125 6.390625 29.59375 6.390625 
Q 36.859375 6.390625 41.078125 11.03125 
Q 45.3125 15.671875 45.3125 23.6875 
L 45.3125 54.6875 
L 54.296875 54.6875 
L 54.296875 0 
L 45.3125 0 
L 45.3125 8.40625 
Q 42.046875 3.421875 37.71875 1 
Q 33.40625 -1.421875 27.6875 -1.421875 
Q 18.265625 -1.421875 13.375 4.4375 
Q 8.5 10.296875 8.5 21.578125 
z
M 31.109375 56 
z
" id="DejaVuSans-117"/>
      </defs>
      <use xlink:href="#DejaVuSans-82"/>
      <use x="65.482422" xlink:href="#DejaVuSans-65"/>
      <use x="133.890625" xlink:href="#DejaVuSans-70"/>
      <use x="182.285156" xlink:href="#DejaVuSans-65"/>
      <use x="250.693359" xlink:href="#DejaVuSans-82"/>
      <use x="320.175781" xlink:href="#DejaVuSans-32"/>
      <use x="351.962891" xlink:href="#DejaVuSans-116"/>
      <use x="391.171875" xlink:href="#DejaVuSans-117"/>
      <use x="454.550781" xlink:href="#DejaVuSans-110"/>
      <use x="517.929688" xlink:href="#DejaVuSans-101"/>
      <use x="579.453125" xlink:href="#DejaVuSans-100"/>
     </g>
    </g>
   </g>
  </g>
 </g>
 <defs>
  <clipPath id="pf041c2b6db">
   <path d="M 445.704112 239.414388 
C 445.704112 214.728343 440.8415 190.282339 431.39456 167.475408 
C 421.947619 144.668477 408.100071 123.944156 390.644401 106.488486 
C 373.188732 89.032817 352.464411 75.185268 329.657479 65.738328 
C 306.850548 56.291388 282.404544 51.428775 257.7185 51.428775 
C 233.032456 51.428775 208.586452 56.291388 185.779521 65.738328 
C 162.972589 75.185268 142.248268 89.032817 124.792599 106.488486 
C 107.336929 123.944156 93.489381 144.668477 84.04244 167.475408 
C 74.5955 190.282339 69.732888 214.728343 69.732888 239.414388 
C 69.732888 264.100432 74.5955 288.546436 84.04244 311.353367 
C 93.489381 334.160298 107.336929 354.884619 124.792599 372.340289 
C 142.248268 389.795958 162.972589 403.643507 185.779521 413.090447 
C 208.586452 422.537388 233.032456 427.4 257.7185 427.4 
C 282.404544 427.4 306.850548 422.537388 329.657479 413.090447 
C 352.464411 403.643507 373.188732 389.795958 390.644401 372.340289 
C 408.100071 354.884619 421.947619 334.160298 431.39456 311.353367 
C 440.8415 288.546436 445.704112 264.100432 445.704112 239.414388 
M 257.7185 239.414388 
C 257.7185 239.414388 257.7185 239.414388 257.7185 239.414388 
C 257.7185 239.414388 257.7185 239.414388 257.7185 239.414388 
C 257.7185 239.414388 257.7185 239.414388 257.7185 239.414388 
C 257.7185 239.414388 257.7185 239.414388 257.7185 239.414388 
C 257.7185 239.414388 257.7185 239.414388 257.7185 239.414388 
C 257.7185 239.414388 257.7185 239.414388 257.7185 239.414388 
C 257.7185 239.414388 257.7185 239.414388 257.7185 239.414388 
C 257.7185 239.414388 257.7185 239.414388 257.7185 239.414388 
C 257.7185 239.414388 257.7185 239.414388 257.7185 239.414388 
C 257.7185 239.414388 257.7185 239.414388 257.7185 239.414388 
C 257.7185 239.414388 257.7185 239.414388 257.7185 239.414388 
C 257.7185 239.414388 257.7185 239.414388 257.7185 239.414388 
C 257.7185 239.414388 257.7185 239.414388 257.7185 239.414388 
C 257.7185 239.414388 257.7185 239.414388 257.7185 239.414388 
C 257.7185 239.414388 257.7185 239.414388 257.7185 239.414388 
C 257.7185 239.414388 257.7185 239.414388 257.7185 239.414388 
M 445.704112 239.414388 
z
"/>
  </clipPath>
 </defs>
</svg>
