<?xml version="1.0" encoding="utf-8" standalone="no"?>
<!DOCTYPE svg PUBLIC "-//W3C//DTD SVG 1.1//EN"
  "http://www.w3.org/Graphics/SVG/1.1/DTD/svg11.dtd">
<!-- Created with matplotlib (https://matplotlib.org/) -->
<svg height="288pt" version="1.1" viewBox="0 0 432 288" width="432pt" xmlns="http://www.w3.org/2000/svg" xmlns:xlink="http://www.w3.org/1999/xlink">
 <metadata>
  <rdf:RDF xmlns:cc="http://creativecommons.org/ns#" xmlns:dc="http://purl.org/dc/elements/1.1/" xmlns:rdf="http://www.w3.org/1999/02/22-rdf-syntax-ns#">
   <cc:Work>
    <dc:type rdf:resource="http://purl.org/dc/dcmitype/StillImage"/>
    <dc:date>2020-11-16T13:12:01.661990</dc:date>
    <dc:format>image/svg+xml</dc:format>
    <dc:creator>
     <cc:Agent>
      <dc:title>Matplotlib v3.3.3, https://matplotlib.org/</dc:title>
     </cc:Agent>
    </dc:creator>
   </cc:Work>
  </rdf:RDF>
 </metadata>
 <defs>
  <style type="text/css">*{stroke-linecap:butt;stroke-linejoin:round;}</style>
 </defs>
 <g id="figure_1">
  <g id="patch_1">
   <path d="M 0 288 
L 432 288 
L 432 0 
L 0 0 
z
" style="fill:none;"/>
  </g>
  <g id="axes_1">
   <g id="patch_2">
    <path d="M 90.55 246.2 
L 421.2 246.2 
L 421.2 39.8 
L 90.55 39.8 
z
" style="fill:#ffffff;"/>
   </g>
   <g id="PolyCollection_1">
    <path clip-path="url(#pb65db33e73)" d="M 168.137306 77.843724 
L 168.137306 53.934607 
L 170.231929 53.66916 
L 172.326553 53.410568 
L 174.421176 53.158936 
L 176.515799 52.914331 
L 178.610423 52.676781 
L 180.705046 52.44629 
L 182.79967 52.222838 
L 184.894293 52.00639 
L 186.988917 51.796908 
L 189.08354 51.594351 
L 191.178163 51.398689 
L 193.272787 51.209907 
L 195.36741 51.028012 
L 197.462034 50.853041 
L 199.556657 50.685065 
L 201.651281 50.524196 
L 203.745904 50.37059 
L 205.840527 50.224449 
L 207.935151 50.086025 
L 210.029774 49.955622 
L 212.124398 49.833591 
L 214.219021 49.720336 
L 216.313645 49.616305 
L 218.408268 49.521989 
L 220.502891 49.437921 
L 222.597515 49.364665 
L 224.692138 49.302813 
L 226.786762 49.252977 
L 228.881385 49.215781 
L 230.976009 49.191854 
L 233.070632 49.181818 
L 235.165255 49.186284 
L 237.259879 49.205839 
L 239.354502 49.241036 
L 241.449126 49.292388 
L 243.543749 49.360358 
L 245.638373 49.44535 
L 247.732996 49.547703 
L 249.827619 49.667679 
L 251.922243 49.805463 
L 254.016866 49.961153 
L 256.11149 50.134756 
L 258.206113 50.326187 
L 260.300737 50.535261 
L 262.39536 50.761697 
L 264.489983 51.005115 
L 266.584607 51.265036 
L 268.67923 51.540884 
L 270.773854 51.831991 
L 270.773854 79.946341 
L 270.773854 79.946341 
L 268.67923 80.237447 
L 266.584607 80.513296 
L 264.489983 80.773216 
L 262.39536 81.016634 
L 260.300737 81.24307 
L 258.206113 81.452145 
L 256.11149 81.643575 
L 254.016866 81.817179 
L 251.922243 81.972868 
L 249.827619 82.110652 
L 247.732996 82.230629 
L 245.638373 82.332981 
L 243.543749 82.417973 
L 241.449126 82.485943 
L 239.354502 82.537296 
L 237.259879 82.572492 
L 235.165255 82.592047 
L 233.070632 82.596513 
L 230.976009 82.586478 
L 228.881385 82.56255 
L 226.786762 82.525354 
L 224.692138 82.475518 
L 222.597515 82.413666 
L 220.502891 82.34041 
L 218.408268 82.256342 
L 216.313645 82.162027 
L 214.219021 82.057995 
L 212.124398 81.94474 
L 210.029774 81.822709 
L 207.935151 81.692306 
L 205.840527 81.553883 
L 203.745904 81.407742 
L 201.651281 81.254135 
L 199.556657 81.093267 
L 197.462034 80.925291 
L 195.36741 80.750319 
L 193.272787 80.568424 
L 191.178163 80.379642 
L 189.08354 80.18398 
L 186.988917 79.981423 
L 184.894293 79.771941 
L 182.79967 79.555494 
L 180.705046 79.332041 
L 178.610423 79.10155 
L 176.515799 78.864 
L 174.421176 78.619395 
L 172.326553 78.367763 
L 170.231929 78.109171 
L 168.137306 77.843724 
z
" style="fill:#1f77b4;fill-opacity:0.3;"/>
   </g>
   <g id="PolyCollection_2">
    <path clip-path="url(#pb65db33e73)" d="M 250.124565 130.143327 
L 250.124565 104.44945 
L 253.309175 104.16252 
L 256.493785 103.885348 
L 259.678395 103.61832 
L 262.863005 103.361764 
L 266.047615 103.115959 
L 269.232225 102.881134 
L 272.416835 102.657471 
L 275.601445 102.445111 
L 278.786055 102.244158 
L 281.970665 102.054682 
L 285.155275 101.876725 
L 288.339885 101.710306 
L 291.524495 101.555428 
L 294.709105 101.412078 
L 297.893715 101.280238 
L 301.078325 101.159886 
L 304.262935 101.051004 
L 307.447545 100.953575 
L 310.632155 100.867596 
L 313.816765 100.793073 
L 317.001375 100.73003 
L 320.185985 100.678506 
L 323.370595 100.638559 
L 326.555205 100.610265 
L 329.739815 100.593721 
L 332.924425 100.589041 
L 336.109035 100.596356 
L 339.293645 100.615811 
L 342.478255 100.647566 
L 345.662865 100.691789 
L 348.847475 100.748654 
L 352.032085 100.818336 
L 355.216695 100.901008 
L 358.401305 100.996836 
L 361.585915 101.105972 
L 364.770525 101.228552 
L 367.955135 101.364688 
L 371.139745 101.514462 
L 374.324355 101.677925 
L 377.508965 101.855087 
L 380.693575 102.045917 
L 383.878185 102.250332 
L 387.062795 102.4682 
L 390.247405 102.699332 
L 393.432015 102.94348 
L 396.616625 103.200334 
L 399.801235 103.469524 
L 402.985845 103.750611 
L 406.170455 104.043095 
L 406.170455 130.549682 
L 406.170455 130.549682 
L 402.985845 130.842166 
L 399.801235 131.123253 
L 396.616625 131.392443 
L 393.432015 131.649297 
L 390.247405 131.893445 
L 387.062795 132.124577 
L 383.878185 132.342445 
L 380.693575 132.54686 
L 377.508965 132.73769 
L 374.324355 132.914852 
L 371.139745 133.078315 
L 367.955135 133.228089 
L 364.770525 133.364225 
L 361.585915 133.486805 
L 358.401305 133.595941 
L 355.216695 133.691769 
L 352.032085 133.774441 
L 348.847475 133.844123 
L 345.662865 133.900988 
L 342.478255 133.945211 
L 339.293645 133.976966 
L 336.109035 133.996421 
L 332.924425 134.003736 
L 329.739815 133.999056 
L 326.555205 133.982512 
L 323.370595 133.954218 
L 320.185985 133.914271 
L 317.001375 133.862747 
L 313.816765 133.799704 
L 310.632155 133.725182 
L 307.447545 133.639202 
L 304.262935 133.541774 
L 301.078325 133.432891 
L 297.893715 133.312539 
L 294.709105 133.180699 
L 291.524495 133.03735 
L 288.339885 132.882471 
L 285.155275 132.716052 
L 281.970665 132.538095 
L 278.786055 132.348619 
L 275.601445 132.147666 
L 272.416835 131.935306 
L 269.232225 131.711643 
L 266.047615 131.476818 
L 262.863005 131.231013 
L 259.678395 130.974457 
L 256.493785 130.707429 
L 253.309175 130.430257 
L 250.124565 130.143327 
z
" style="fill:#ff7f0e;fill-opacity:0.3;"/>
   </g>
   <g id="PolyCollection_3">
    <path clip-path="url(#pb65db33e73)" d="M 250.124565 180.31597 
L 250.124565 157.091253 
L 252.509022 156.836597 
L 254.893479 156.587895 
L 257.277935 156.345147 
L 259.662392 156.108312 
L 262.046849 155.877319 
L 264.431306 155.652073 
L 266.815762 155.432465 
L 269.200219 155.218378 
L 271.584676 155.009696 
L 273.969132 154.806317 
L 276.353589 154.608154 
L 278.738046 154.41515 
L 281.122503 154.227283 
L 283.506959 154.044573 
L 285.891416 153.86709 
L 288.275873 153.694958 
L 290.66033 153.52836 
L 293.044786 153.36754 
L 295.429243 153.21281 
L 297.8137 153.064544 
L 300.198156 152.923182 
L 302.582613 152.789227 
L 304.96707 152.663242 
L 307.351527 152.545846 
L 309.735983 152.437706 
L 312.12044 152.339535 
L 314.504897 152.252078 
L 316.889353 152.176109 
L 319.27381 152.112418 
L 321.658267 152.061802 
L 324.042724 152.025056 
L 326.42718 152.002959 
L 328.811637 151.996264 
L 331.196094 152.005689 
L 333.580551 152.031903 
L 335.965007 152.075519 
L 338.349464 152.13708 
L 340.733921 152.217056 
L 343.118377 152.315827 
L 345.502834 152.433682 
L 347.887291 152.570812 
L 350.271748 152.727302 
L 352.656204 152.903128 
L 355.040661 153.098153 
L 357.425118 153.31213 
L 359.809574 153.544696 
L 362.194031 153.795375 
L 364.578488 154.063581 
L 366.962945 154.348624 
L 366.962945 183.058599 
L 366.962945 183.058599 
L 364.578488 183.343641 
L 362.194031 183.611848 
L 359.809574 183.862527 
L 357.425118 184.095093 
L 355.040661 184.30907 
L 352.656204 184.504095 
L 350.271748 184.679921 
L 347.887291 184.836411 
L 345.502834 184.973541 
L 343.118377 185.091396 
L 340.733921 185.190167 
L 338.349464 185.270143 
L 335.965007 185.331704 
L 333.580551 185.37532 
L 331.196094 185.401534 
L 328.811637 185.410959 
L 326.42718 185.404264 
L 324.042724 185.382166 
L 321.658267 185.34542 
L 319.27381 185.294805 
L 316.889353 185.231114 
L 314.504897 185.155145 
L 312.12044 185.067688 
L 309.735983 184.969517 
L 307.351527 184.861377 
L 304.96707 184.743981 
L 302.582613 184.617996 
L 300.198156 184.484041 
L 297.8137 184.342679 
L 295.429243 184.194413 
L 293.044786 184.039683 
L 290.66033 183.878863 
L 288.275873 183.712265 
L 285.891416 183.540133 
L 283.506959 183.36265 
L 281.122503 183.17994 
L 278.738046 182.992073 
L 276.353589 182.799069 
L 273.969132 182.600906 
L 271.584676 182.397527 
L 269.200219 182.188845 
L 266.815762 181.974758 
L 264.431306 181.75515 
L 262.046849 181.529904 
L 259.662392 181.298911 
L 257.277935 181.062076 
L 254.893479 180.819328 
L 252.509022 180.570626 
L 250.124565 180.31597 
z
" style="fill:#2ca02c;fill-opacity:0.3;"/>
   </g>
   <g id="PolyCollection_4">
    <path clip-path="url(#pb65db33e73)" d="M 105.579545 231.409297 
L 105.579545 208.812371 
L 109.270919 208.568703 
L 112.962293 208.330254 
L 116.653667 208.096923 
L 120.34504 207.868577 
L 124.036414 207.645049 
L 127.727788 207.426155 
L 131.419161 207.2117 
L 135.110535 207.001483 
L 138.801909 206.795317 
L 142.493283 206.593028 
L 146.184656 206.394471 
L 149.87603 206.199538 
L 153.567404 206.008166 
L 157.258778 205.820344 
L 160.950151 205.636124 
L 164.641525 205.455622 
L 168.332899 205.279027 
L 172.024272 205.106604 
L 175.715646 204.938694 
L 179.40702 204.775719 
L 183.098394 204.618175 
L 186.789767 204.466638 
L 190.481141 204.321754 
L 194.172515 204.184238 
L 197.863888 204.054865 
L 201.555262 203.934464 
L 205.246636 203.823908 
L 208.93801 203.724105 
L 212.629383 203.635988 
L 216.320757 203.560501 
L 220.012131 203.498588 
L 223.703504 203.451182 
L 227.394878 203.419192 
L 231.086252 203.403487 
L 234.777626 203.404888 
L 238.468999 203.424155 
L 242.160373 203.461974 
L 245.851747 203.518945 
L 249.543121 203.595578 
L 253.234494 203.692279 
L 256.925868 203.809344 
L 260.617242 203.946953 
L 264.308615 204.105166 
L 267.999989 204.283917 
L 271.691363 204.483015 
L 275.382737 204.702141 
L 279.07411 204.940852 
L 282.765484 205.198579 
L 286.456858 205.474635 
L 286.456858 234.747033 
L 286.456858 234.747033 
L 282.765484 235.02309 
L 279.07411 235.280817 
L 275.382737 235.519527 
L 271.691363 235.738654 
L 267.999989 235.937752 
L 264.308615 236.116503 
L 260.617242 236.274715 
L 256.925868 236.412325 
L 253.234494 236.52939 
L 249.543121 236.62609 
L 245.851747 236.702724 
L 242.160373 236.759695 
L 238.468999 236.797513 
L 234.777626 236.81678 
L 231.086252 236.818182 
L 227.394878 236.802477 
L 223.703504 236.770486 
L 220.012131 236.723081 
L 216.320757 236.661168 
L 212.629383 236.585681 
L 208.93801 236.497563 
L 205.246636 236.397761 
L 201.555262 236.287205 
L 197.863888 236.166804 
L 194.172515 236.037431 
L 190.481141 235.899915 
L 186.789767 235.755031 
L 183.098394 235.603494 
L 179.40702 235.44595 
L 175.715646 235.282974 
L 172.024272 235.115065 
L 168.332899 234.942642 
L 164.641525 234.766047 
L 160.950151 234.585545 
L 157.258778 234.401325 
L 153.567404 234.213503 
L 149.87603 234.022131 
L 146.184656 233.827198 
L 142.493283 233.628641 
L 138.801909 233.426352 
L 135.110535 233.220185 
L 131.419161 233.009969 
L 127.727788 232.795513 
L 124.036414 232.57662 
L 120.34504 232.353092 
L 116.653667 232.124745 
L 112.962293 231.891415 
L 109.270919 231.652965 
L 105.579545 231.409297 
z
" style="fill:#d62728;fill-opacity:0.3;"/>
   </g>
   <g id="matplotlib.axis_1">
    <g id="xtick_1">
     <g id="line2d_1">
      <defs>
       <path d="M 0 0 
L 0 3.5 
" id="m63827c95ed" style="stroke:#000000;stroke-width:0.8;"/>
      </defs>
      <g>
       <use style="stroke:#000000;stroke-width:0.8;" x="127.18724" xlink:href="#m63827c95ed" y="246.2"/>
      </g>
     </g>
     <g id="text_1">
      <!-- −40 -->
      <g transform="translate(116.634896 260.798437)scale(0.1 -0.1)">
       <defs>
        <path d="M 10.59375 35.5 
L 73.1875 35.5 
L 73.1875 27.203125 
L 10.59375 27.203125 
z
" id="DejaVuSans-8722"/>
        <path d="M 37.796875 64.3125 
L 12.890625 25.390625 
L 37.796875 25.390625 
z
M 35.203125 72.90625 
L 47.609375 72.90625 
L 47.609375 25.390625 
L 58.015625 25.390625 
L 58.015625 17.1875 
L 47.609375 17.1875 
L 47.609375 0 
L 37.796875 0 
L 37.796875 17.1875 
L 4.890625 17.1875 
L 4.890625 26.703125 
z
" id="DejaVuSans-52"/>
        <path d="M 31.78125 66.40625 
Q 24.171875 66.40625 20.328125 58.90625 
Q 16.5 51.421875 16.5 36.375 
Q 16.5 21.390625 20.328125 13.890625 
Q 24.171875 6.390625 31.78125 6.390625 
Q 39.453125 6.390625 43.28125 13.890625 
Q 47.125 21.390625 47.125 36.375 
Q 47.125 51.421875 43.28125 58.90625 
Q 39.453125 66.40625 31.78125 66.40625 
z
M 31.78125 74.21875 
Q 44.046875 74.21875 50.515625 64.515625 
Q 56.984375 54.828125 56.984375 36.375 
Q 56.984375 17.96875 50.515625 8.265625 
Q 44.046875 -1.421875 31.78125 -1.421875 
Q 19.53125 -1.421875 13.0625 8.265625 
Q 6.59375 17.96875 6.59375 36.375 
Q 6.59375 54.828125 13.0625 64.515625 
Q 19.53125 74.21875 31.78125 74.21875 
z
" id="DejaVuSans-48"/>
       </defs>
       <use xlink:href="#DejaVuSans-8722"/>
       <use x="83.789062" xlink:href="#DejaVuSans-52"/>
       <use x="147.412109" xlink:href="#DejaVuSans-48"/>
      </g>
     </g>
    </g>
    <g id="xtick_2">
     <g id="line2d_2">
      <g>
       <use style="stroke:#000000;stroke-width:0.8;" x="179.46392" xlink:href="#m63827c95ed" y="246.2"/>
      </g>
     </g>
     <g id="text_2">
      <!-- −30 -->
      <g transform="translate(168.911576 260.798437)scale(0.1 -0.1)">
       <defs>
        <path d="M 40.578125 39.3125 
Q 47.65625 37.796875 51.625 33 
Q 55.609375 28.21875 55.609375 21.1875 
Q 55.609375 10.40625 48.1875 4.484375 
Q 40.765625 -1.421875 27.09375 -1.421875 
Q 22.515625 -1.421875 17.65625 -0.515625 
Q 12.796875 0.390625 7.625 2.203125 
L 7.625 11.71875 
Q 11.71875 9.328125 16.59375 8.109375 
Q 21.484375 6.890625 26.8125 6.890625 
Q 36.078125 6.890625 40.9375 10.546875 
Q 45.796875 14.203125 45.796875 21.1875 
Q 45.796875 27.640625 41.28125 31.265625 
Q 36.765625 34.90625 28.71875 34.90625 
L 20.21875 34.90625 
L 20.21875 43.015625 
L 29.109375 43.015625 
Q 36.375 43.015625 40.234375 45.921875 
Q 44.09375 48.828125 44.09375 54.296875 
Q 44.09375 59.90625 40.109375 62.90625 
Q 36.140625 65.921875 28.71875 65.921875 
Q 24.65625 65.921875 20.015625 65.03125 
Q 15.375 64.15625 9.8125 62.3125 
L 9.8125 71.09375 
Q 15.4375 72.65625 20.34375 73.4375 
Q 25.25 74.21875 29.59375 74.21875 
Q 40.828125 74.21875 47.359375 69.109375 
Q 53.90625 64.015625 53.90625 55.328125 
Q 53.90625 49.265625 50.4375 45.09375 
Q 46.96875 40.921875 40.578125 39.3125 
z
" id="DejaVuSans-51"/>
       </defs>
       <use xlink:href="#DejaVuSans-8722"/>
       <use x="83.789062" xlink:href="#DejaVuSans-51"/>
       <use x="147.412109" xlink:href="#DejaVuSans-48"/>
      </g>
     </g>
    </g>
    <g id="xtick_3">
     <g id="line2d_3">
      <g>
       <use style="stroke:#000000;stroke-width:0.8;" x="231.740599" xlink:href="#m63827c95ed" y="246.2"/>
      </g>
     </g>
     <g id="text_3">
      <!-- −20 -->
      <g transform="translate(221.188256 260.798437)scale(0.1 -0.1)">
       <defs>
        <path d="M 19.1875 8.296875 
L 53.609375 8.296875 
L 53.609375 0 
L 7.328125 0 
L 7.328125 8.296875 
Q 12.9375 14.109375 22.625 23.890625 
Q 32.328125 33.6875 34.8125 36.53125 
Q 39.546875 41.84375 41.421875 45.53125 
Q 43.3125 49.21875 43.3125 52.78125 
Q 43.3125 58.59375 39.234375 62.25 
Q 35.15625 65.921875 28.609375 65.921875 
Q 23.96875 65.921875 18.8125 64.3125 
Q 13.671875 62.703125 7.8125 59.421875 
L 7.8125 69.390625 
Q 13.765625 71.78125 18.9375 73 
Q 24.125 74.21875 28.421875 74.21875 
Q 39.75 74.21875 46.484375 68.546875 
Q 53.21875 62.890625 53.21875 53.421875 
Q 53.21875 48.921875 51.53125 44.890625 
Q 49.859375 40.875 45.40625 35.40625 
Q 44.1875 33.984375 37.640625 27.21875 
Q 31.109375 20.453125 19.1875 8.296875 
z
" id="DejaVuSans-50"/>
       </defs>
       <use xlink:href="#DejaVuSans-8722"/>
       <use x="83.789062" xlink:href="#DejaVuSans-50"/>
       <use x="147.412109" xlink:href="#DejaVuSans-48"/>
      </g>
     </g>
    </g>
    <g id="xtick_4">
     <g id="line2d_4">
      <g>
       <use style="stroke:#000000;stroke-width:0.8;" x="284.017279" xlink:href="#m63827c95ed" y="246.2"/>
      </g>
     </g>
     <g id="text_4">
      <!-- −10 -->
      <g transform="translate(273.464936 260.798437)scale(0.1 -0.1)">
       <defs>
        <path d="M 12.40625 8.296875 
L 28.515625 8.296875 
L 28.515625 63.921875 
L 10.984375 60.40625 
L 10.984375 69.390625 
L 28.421875 72.90625 
L 38.28125 72.90625 
L 38.28125 8.296875 
L 54.390625 8.296875 
L 54.390625 0 
L 12.40625 0 
z
" id="DejaVuSans-49"/>
       </defs>
       <use xlink:href="#DejaVuSans-8722"/>
       <use x="83.789062" xlink:href="#DejaVuSans-49"/>
       <use x="147.412109" xlink:href="#DejaVuSans-48"/>
      </g>
     </g>
    </g>
    <g id="xtick_5">
     <g id="line2d_5">
      <g>
       <use style="stroke:#000000;stroke-width:0.8;" x="336.293959" xlink:href="#m63827c95ed" y="246.2"/>
      </g>
     </g>
     <g id="text_5">
      <!-- 0 -->
      <g transform="translate(333.112709 260.798437)scale(0.1 -0.1)">
       <use xlink:href="#DejaVuSans-48"/>
      </g>
     </g>
    </g>
    <g id="xtick_6">
     <g id="line2d_6">
      <g>
       <use style="stroke:#000000;stroke-width:0.8;" x="388.570639" xlink:href="#m63827c95ed" y="246.2"/>
      </g>
     </g>
     <g id="text_6">
      <!-- 10 -->
      <g transform="translate(382.208139 260.798437)scale(0.1 -0.1)">
       <use xlink:href="#DejaVuSans-49"/>
       <use x="63.623047" xlink:href="#DejaVuSans-48"/>
      </g>
     </g>
    </g>
    <g id="xtick_7">
     <g id="line2d_7">
      <defs>
       <path d="M 0 0 
L 0 2 
" id="m8b1ac093ca" style="stroke:#000000;stroke-width:0.6;"/>
      </defs>
      <g>
       <use style="stroke:#000000;stroke-width:0.6;" x="95.821232" xlink:href="#m8b1ac093ca" y="246.2"/>
      </g>
     </g>
    </g>
    <g id="xtick_8">
     <g id="line2d_8">
      <g>
       <use style="stroke:#000000;stroke-width:0.6;" x="106.276568" xlink:href="#m8b1ac093ca" y="246.2"/>
      </g>
     </g>
    </g>
    <g id="xtick_9">
     <g id="line2d_9">
      <g>
       <use style="stroke:#000000;stroke-width:0.6;" x="116.731904" xlink:href="#m8b1ac093ca" y="246.2"/>
      </g>
     </g>
    </g>
    <g id="xtick_10">
     <g id="line2d_10">
      <g>
       <use style="stroke:#000000;stroke-width:0.6;" x="137.642576" xlink:href="#m8b1ac093ca" y="246.2"/>
      </g>
     </g>
    </g>
    <g id="xtick_11">
     <g id="line2d_11">
      <g>
       <use style="stroke:#000000;stroke-width:0.6;" x="148.097912" xlink:href="#m8b1ac093ca" y="246.2"/>
      </g>
     </g>
    </g>
    <g id="xtick_12">
     <g id="line2d_12">
      <g>
       <use style="stroke:#000000;stroke-width:0.6;" x="158.553248" xlink:href="#m8b1ac093ca" y="246.2"/>
      </g>
     </g>
    </g>
    <g id="xtick_13">
     <g id="line2d_13">
      <g>
       <use style="stroke:#000000;stroke-width:0.6;" x="169.008584" xlink:href="#m8b1ac093ca" y="246.2"/>
      </g>
     </g>
    </g>
    <g id="xtick_14">
     <g id="line2d_14">
      <g>
       <use style="stroke:#000000;stroke-width:0.6;" x="189.919256" xlink:href="#m8b1ac093ca" y="246.2"/>
      </g>
     </g>
    </g>
    <g id="xtick_15">
     <g id="line2d_15">
      <g>
       <use style="stroke:#000000;stroke-width:0.6;" x="200.374592" xlink:href="#m8b1ac093ca" y="246.2"/>
      </g>
     </g>
    </g>
    <g id="xtick_16">
     <g id="line2d_16">
      <g>
       <use style="stroke:#000000;stroke-width:0.6;" x="210.829928" xlink:href="#m8b1ac093ca" y="246.2"/>
      </g>
     </g>
    </g>
    <g id="xtick_17">
     <g id="line2d_17">
      <g>
       <use style="stroke:#000000;stroke-width:0.6;" x="221.285264" xlink:href="#m8b1ac093ca" y="246.2"/>
      </g>
     </g>
    </g>
    <g id="xtick_18">
     <g id="line2d_18">
      <g>
       <use style="stroke:#000000;stroke-width:0.6;" x="242.195935" xlink:href="#m8b1ac093ca" y="246.2"/>
      </g>
     </g>
    </g>
    <g id="xtick_19">
     <g id="line2d_19">
      <g>
       <use style="stroke:#000000;stroke-width:0.6;" x="252.651271" xlink:href="#m8b1ac093ca" y="246.2"/>
      </g>
     </g>
    </g>
    <g id="xtick_20">
     <g id="line2d_20">
      <g>
       <use style="stroke:#000000;stroke-width:0.6;" x="263.106607" xlink:href="#m8b1ac093ca" y="246.2"/>
      </g>
     </g>
    </g>
    <g id="xtick_21">
     <g id="line2d_21">
      <g>
       <use style="stroke:#000000;stroke-width:0.6;" x="273.561943" xlink:href="#m8b1ac093ca" y="246.2"/>
      </g>
     </g>
    </g>
    <g id="xtick_22">
     <g id="line2d_22">
      <g>
       <use style="stroke:#000000;stroke-width:0.6;" x="294.472615" xlink:href="#m8b1ac093ca" y="246.2"/>
      </g>
     </g>
    </g>
    <g id="xtick_23">
     <g id="line2d_23">
      <g>
       <use style="stroke:#000000;stroke-width:0.6;" x="304.927951" xlink:href="#m8b1ac093ca" y="246.2"/>
      </g>
     </g>
    </g>
    <g id="xtick_24">
     <g id="line2d_24">
      <g>
       <use style="stroke:#000000;stroke-width:0.6;" x="315.383287" xlink:href="#m8b1ac093ca" y="246.2"/>
      </g>
     </g>
    </g>
    <g id="xtick_25">
     <g id="line2d_25">
      <g>
       <use style="stroke:#000000;stroke-width:0.6;" x="325.838623" xlink:href="#m8b1ac093ca" y="246.2"/>
      </g>
     </g>
    </g>
    <g id="xtick_26">
     <g id="line2d_26">
      <g>
       <use style="stroke:#000000;stroke-width:0.6;" x="346.749295" xlink:href="#m8b1ac093ca" y="246.2"/>
      </g>
     </g>
    </g>
    <g id="xtick_27">
     <g id="line2d_27">
      <g>
       <use style="stroke:#000000;stroke-width:0.6;" x="357.204631" xlink:href="#m8b1ac093ca" y="246.2"/>
      </g>
     </g>
    </g>
    <g id="xtick_28">
     <g id="line2d_28">
      <g>
       <use style="stroke:#000000;stroke-width:0.6;" x="367.659967" xlink:href="#m8b1ac093ca" y="246.2"/>
      </g>
     </g>
    </g>
    <g id="xtick_29">
     <g id="line2d_29">
      <g>
       <use style="stroke:#000000;stroke-width:0.6;" x="378.115303" xlink:href="#m8b1ac093ca" y="246.2"/>
      </g>
     </g>
    </g>
    <g id="xtick_30">
     <g id="line2d_30">
      <g>
       <use style="stroke:#000000;stroke-width:0.6;" x="399.025975" xlink:href="#m8b1ac093ca" y="246.2"/>
      </g>
     </g>
    </g>
    <g id="xtick_31">
     <g id="line2d_31">
      <g>
       <use style="stroke:#000000;stroke-width:0.6;" x="409.481311" xlink:href="#m8b1ac093ca" y="246.2"/>
      </g>
     </g>
    </g>
    <g id="xtick_32">
     <g id="line2d_32">
      <g>
       <use style="stroke:#000000;stroke-width:0.6;" x="419.936647" xlink:href="#m8b1ac093ca" y="246.2"/>
      </g>
     </g>
    </g>
    <g id="text_7">
     <!-- Time Estimation Error (min) -->
     <g transform="translate(186.734375 274.476562)scale(0.1 -0.1)">
      <defs>
       <path d="M -0.296875 72.90625 
L 61.375 72.90625 
L 61.375 64.59375 
L 35.5 64.59375 
L 35.5 0 
L 25.59375 0 
L 25.59375 64.59375 
L -0.296875 64.59375 
z
" id="DejaVuSans-84"/>
       <path d="M 9.421875 54.6875 
L 18.40625 54.6875 
L 18.40625 0 
L 9.421875 0 
z
M 9.421875 75.984375 
L 18.40625 75.984375 
L 18.40625 64.59375 
L 9.421875 64.59375 
z
" id="DejaVuSans-105"/>
       <path d="M 52 44.1875 
Q 55.375 50.25 60.0625 53.125 
Q 64.75 56 71.09375 56 
Q 79.640625 56 84.28125 50.015625 
Q 88.921875 44.046875 88.921875 33.015625 
L 88.921875 0 
L 79.890625 0 
L 79.890625 32.71875 
Q 79.890625 40.578125 77.09375 44.375 
Q 74.3125 48.1875 68.609375 48.1875 
Q 61.625 48.1875 57.5625 43.546875 
Q 53.515625 38.921875 53.515625 30.90625 
L 53.515625 0 
L 44.484375 0 
L 44.484375 32.71875 
Q 44.484375 40.625 41.703125 44.40625 
Q 38.921875 48.1875 33.109375 48.1875 
Q 26.21875 48.1875 22.15625 43.53125 
Q 18.109375 38.875 18.109375 30.90625 
L 18.109375 0 
L 9.078125 0 
L 9.078125 54.6875 
L 18.109375 54.6875 
L 18.109375 46.1875 
Q 21.1875 51.21875 25.484375 53.609375 
Q 29.78125 56 35.6875 56 
Q 41.65625 56 45.828125 52.96875 
Q 50 49.953125 52 44.1875 
z
" id="DejaVuSans-109"/>
       <path d="M 56.203125 29.59375 
L 56.203125 25.203125 
L 14.890625 25.203125 
Q 15.484375 15.921875 20.484375 11.0625 
Q 25.484375 6.203125 34.421875 6.203125 
Q 39.59375 6.203125 44.453125 7.46875 
Q 49.3125 8.734375 54.109375 11.28125 
L 54.109375 2.78125 
Q 49.265625 0.734375 44.1875 -0.34375 
Q 39.109375 -1.421875 33.890625 -1.421875 
Q 20.796875 -1.421875 13.15625 6.1875 
Q 5.515625 13.8125 5.515625 26.8125 
Q 5.515625 40.234375 12.765625 48.109375 
Q 20.015625 56 32.328125 56 
Q 43.359375 56 49.78125 48.890625 
Q 56.203125 41.796875 56.203125 29.59375 
z
M 47.21875 32.234375 
Q 47.125 39.59375 43.09375 43.984375 
Q 39.0625 48.390625 32.421875 48.390625 
Q 24.90625 48.390625 20.390625 44.140625 
Q 15.875 39.890625 15.1875 32.171875 
z
" id="DejaVuSans-101"/>
       <path id="DejaVuSans-32"/>
       <path d="M 9.8125 72.90625 
L 55.90625 72.90625 
L 55.90625 64.59375 
L 19.671875 64.59375 
L 19.671875 43.015625 
L 54.390625 43.015625 
L 54.390625 34.71875 
L 19.671875 34.71875 
L 19.671875 8.296875 
L 56.78125 8.296875 
L 56.78125 0 
L 9.8125 0 
z
" id="DejaVuSans-69"/>
       <path d="M 44.28125 53.078125 
L 44.28125 44.578125 
Q 40.484375 46.53125 36.375 47.5 
Q 32.28125 48.484375 27.875 48.484375 
Q 21.1875 48.484375 17.84375 46.4375 
Q 14.5 44.390625 14.5 40.28125 
Q 14.5 37.15625 16.890625 35.375 
Q 19.28125 33.59375 26.515625 31.984375 
L 29.59375 31.296875 
Q 39.15625 29.25 43.1875 25.515625 
Q 47.21875 21.78125 47.21875 15.09375 
Q 47.21875 7.46875 41.1875 3.015625 
Q 35.15625 -1.421875 24.609375 -1.421875 
Q 20.21875 -1.421875 15.453125 -0.5625 
Q 10.6875 0.296875 5.421875 2 
L 5.421875 11.28125 
Q 10.40625 8.6875 15.234375 7.390625 
Q 20.0625 6.109375 24.8125 6.109375 
Q 31.15625 6.109375 34.5625 8.28125 
Q 37.984375 10.453125 37.984375 14.40625 
Q 37.984375 18.0625 35.515625 20.015625 
Q 33.0625 21.96875 24.703125 23.78125 
L 21.578125 24.515625 
Q 13.234375 26.265625 9.515625 29.90625 
Q 5.8125 33.546875 5.8125 39.890625 
Q 5.8125 47.609375 11.28125 51.796875 
Q 16.75 56 26.8125 56 
Q 31.78125 56 36.171875 55.265625 
Q 40.578125 54.546875 44.28125 53.078125 
z
" id="DejaVuSans-115"/>
       <path d="M 18.3125 70.21875 
L 18.3125 54.6875 
L 36.8125 54.6875 
L 36.8125 47.703125 
L 18.3125 47.703125 
L 18.3125 18.015625 
Q 18.3125 11.328125 20.140625 9.421875 
Q 21.96875 7.515625 27.59375 7.515625 
L 36.8125 7.515625 
L 36.8125 0 
L 27.59375 0 
Q 17.1875 0 13.234375 3.875 
Q 9.28125 7.765625 9.28125 18.015625 
L 9.28125 47.703125 
L 2.6875 47.703125 
L 2.6875 54.6875 
L 9.28125 54.6875 
L 9.28125 70.21875 
z
" id="DejaVuSans-116"/>
       <path d="M 34.28125 27.484375 
Q 23.390625 27.484375 19.1875 25 
Q 14.984375 22.515625 14.984375 16.5 
Q 14.984375 11.71875 18.140625 8.90625 
Q 21.296875 6.109375 26.703125 6.109375 
Q 34.1875 6.109375 38.703125 11.40625 
Q 43.21875 16.703125 43.21875 25.484375 
L 43.21875 27.484375 
z
M 52.203125 31.203125 
L 52.203125 0 
L 43.21875 0 
L 43.21875 8.296875 
Q 40.140625 3.328125 35.546875 0.953125 
Q 30.953125 -1.421875 24.3125 -1.421875 
Q 15.921875 -1.421875 10.953125 3.296875 
Q 6 8.015625 6 15.921875 
Q 6 25.140625 12.171875 29.828125 
Q 18.359375 34.515625 30.609375 34.515625 
L 43.21875 34.515625 
L 43.21875 35.40625 
Q 43.21875 41.609375 39.140625 45 
Q 35.0625 48.390625 27.6875 48.390625 
Q 23 48.390625 18.546875 47.265625 
Q 14.109375 46.140625 10.015625 43.890625 
L 10.015625 52.203125 
Q 14.9375 54.109375 19.578125 55.046875 
Q 24.21875 56 28.609375 56 
Q 40.484375 56 46.34375 49.84375 
Q 52.203125 43.703125 52.203125 31.203125 
z
" id="DejaVuSans-97"/>
       <path d="M 30.609375 48.390625 
Q 23.390625 48.390625 19.1875 42.75 
Q 14.984375 37.109375 14.984375 27.296875 
Q 14.984375 17.484375 19.15625 11.84375 
Q 23.34375 6.203125 30.609375 6.203125 
Q 37.796875 6.203125 41.984375 11.859375 
Q 46.1875 17.53125 46.1875 27.296875 
Q 46.1875 37.015625 41.984375 42.703125 
Q 37.796875 48.390625 30.609375 48.390625 
z
M 30.609375 56 
Q 42.328125 56 49.015625 48.375 
Q 55.71875 40.765625 55.71875 27.296875 
Q 55.71875 13.875 49.015625 6.21875 
Q 42.328125 -1.421875 30.609375 -1.421875 
Q 18.84375 -1.421875 12.171875 6.21875 
Q 5.515625 13.875 5.515625 27.296875 
Q 5.515625 40.765625 12.171875 48.375 
Q 18.84375 56 30.609375 56 
z
" id="DejaVuSans-111"/>
       <path d="M 54.890625 33.015625 
L 54.890625 0 
L 45.90625 0 
L 45.90625 32.71875 
Q 45.90625 40.484375 42.875 44.328125 
Q 39.84375 48.1875 33.796875 48.1875 
Q 26.515625 48.1875 22.3125 43.546875 
Q 18.109375 38.921875 18.109375 30.90625 
L 18.109375 0 
L 9.078125 0 
L 9.078125 54.6875 
L 18.109375 54.6875 
L 18.109375 46.1875 
Q 21.34375 51.125 25.703125 53.5625 
Q 30.078125 56 35.796875 56 
Q 45.21875 56 50.046875 50.171875 
Q 54.890625 44.34375 54.890625 33.015625 
z
" id="DejaVuSans-110"/>
       <path d="M 41.109375 46.296875 
Q 39.59375 47.171875 37.8125 47.578125 
Q 36.03125 48 33.890625 48 
Q 26.265625 48 22.1875 43.046875 
Q 18.109375 38.09375 18.109375 28.8125 
L 18.109375 0 
L 9.078125 0 
L 9.078125 54.6875 
L 18.109375 54.6875 
L 18.109375 46.1875 
Q 20.953125 51.171875 25.484375 53.578125 
Q 30.03125 56 36.53125 56 
Q 37.453125 56 38.578125 55.875 
Q 39.703125 55.765625 41.0625 55.515625 
z
" id="DejaVuSans-114"/>
       <path d="M 31 75.875 
Q 24.46875 64.65625 21.28125 53.65625 
Q 18.109375 42.671875 18.109375 31.390625 
Q 18.109375 20.125 21.3125 9.0625 
Q 24.515625 -2 31 -13.1875 
L 23.1875 -13.1875 
Q 15.875 -1.703125 12.234375 9.375 
Q 8.59375 20.453125 8.59375 31.390625 
Q 8.59375 42.28125 12.203125 53.3125 
Q 15.828125 64.359375 23.1875 75.875 
z
" id="DejaVuSans-40"/>
       <path d="M 8.015625 75.875 
L 15.828125 75.875 
Q 23.140625 64.359375 26.78125 53.3125 
Q 30.421875 42.28125 30.421875 31.390625 
Q 30.421875 20.453125 26.78125 9.375 
Q 23.140625 -1.703125 15.828125 -13.1875 
L 8.015625 -13.1875 
Q 14.5 -2 17.703125 9.0625 
Q 20.90625 20.125 20.90625 31.390625 
Q 20.90625 42.671875 17.703125 53.65625 
Q 14.5 64.65625 8.015625 75.875 
z
" id="DejaVuSans-41"/>
      </defs>
      <use xlink:href="#DejaVuSans-84"/>
      <use x="57.958984" xlink:href="#DejaVuSans-105"/>
      <use x="85.742188" xlink:href="#DejaVuSans-109"/>
      <use x="183.154297" xlink:href="#DejaVuSans-101"/>
      <use x="244.677734" xlink:href="#DejaVuSans-32"/>
      <use x="276.464844" xlink:href="#DejaVuSans-69"/>
      <use x="339.648438" xlink:href="#DejaVuSans-115"/>
      <use x="391.748047" xlink:href="#DejaVuSans-116"/>
      <use x="430.957031" xlink:href="#DejaVuSans-105"/>
      <use x="458.740234" xlink:href="#DejaVuSans-109"/>
      <use x="556.152344" xlink:href="#DejaVuSans-97"/>
      <use x="617.431641" xlink:href="#DejaVuSans-116"/>
      <use x="656.640625" xlink:href="#DejaVuSans-105"/>
      <use x="684.423828" xlink:href="#DejaVuSans-111"/>
      <use x="745.605469" xlink:href="#DejaVuSans-110"/>
      <use x="808.984375" xlink:href="#DejaVuSans-32"/>
      <use x="840.771484" xlink:href="#DejaVuSans-69"/>
      <use x="903.955078" xlink:href="#DejaVuSans-114"/>
      <use x="943.318359" xlink:href="#DejaVuSans-114"/>
      <use x="982.181641" xlink:href="#DejaVuSans-111"/>
      <use x="1043.363281" xlink:href="#DejaVuSans-114"/>
      <use x="1084.476562" xlink:href="#DejaVuSans-32"/>
      <use x="1116.263672" xlink:href="#DejaVuSans-40"/>
      <use x="1155.277344" xlink:href="#DejaVuSans-109"/>
      <use x="1252.689453" xlink:href="#DejaVuSans-105"/>
      <use x="1280.472656" xlink:href="#DejaVuSans-110"/>
      <use x="1343.851562" xlink:href="#DejaVuSans-41"/>
     </g>
    </g>
   </g>
   <g id="matplotlib.axis_2">
    <g id="ytick_1">
     <g id="line2d_33">
      <defs>
       <path d="M 0 0 
L -3.5 0 
" id="m7ef7e11cd1" style="stroke:#000000;stroke-width:0.8;"/>
      </defs>
      <g>
       <use style="stroke:#000000;stroke-width:0.8;" x="90.55" xlink:href="#m7ef7e11cd1" y="65.889166"/>
      </g>
     </g>
     <g id="text_8">
      <!-- BUFAR -->
      <g transform="translate(50.742187 69.688384)scale(0.1 -0.1)">
       <defs>
        <path d="M 19.671875 34.8125 
L 19.671875 8.109375 
L 35.5 8.109375 
Q 43.453125 8.109375 47.28125 11.40625 
Q 51.125 14.703125 51.125 21.484375 
Q 51.125 28.328125 47.28125 31.5625 
Q 43.453125 34.8125 35.5 34.8125 
z
M 19.671875 64.796875 
L 19.671875 42.828125 
L 34.28125 42.828125 
Q 41.5 42.828125 45.03125 45.53125 
Q 48.578125 48.25 48.578125 53.8125 
Q 48.578125 59.328125 45.03125 62.0625 
Q 41.5 64.796875 34.28125 64.796875 
z
M 9.8125 72.90625 
L 35.015625 72.90625 
Q 46.296875 72.90625 52.390625 68.21875 
Q 58.5 63.53125 58.5 54.890625 
Q 58.5 48.1875 55.375 44.234375 
Q 52.25 40.28125 46.1875 39.3125 
Q 53.46875 37.75 57.5 32.78125 
Q 61.53125 27.828125 61.53125 20.40625 
Q 61.53125 10.640625 54.890625 5.3125 
Q 48.25 0 35.984375 0 
L 9.8125 0 
z
" id="DejaVuSans-66"/>
        <path d="M 8.6875 72.90625 
L 18.609375 72.90625 
L 18.609375 28.609375 
Q 18.609375 16.890625 22.84375 11.734375 
Q 27.09375 6.59375 36.625 6.59375 
Q 46.09375 6.59375 50.34375 11.734375 
Q 54.59375 16.890625 54.59375 28.609375 
L 54.59375 72.90625 
L 64.5 72.90625 
L 64.5 27.390625 
Q 64.5 13.140625 57.4375 5.859375 
Q 50.390625 -1.421875 36.625 -1.421875 
Q 22.796875 -1.421875 15.734375 5.859375 
Q 8.6875 13.140625 8.6875 27.390625 
z
" id="DejaVuSans-85"/>
        <path d="M 9.8125 72.90625 
L 51.703125 72.90625 
L 51.703125 64.59375 
L 19.671875 64.59375 
L 19.671875 43.109375 
L 48.578125 43.109375 
L 48.578125 34.8125 
L 19.671875 34.8125 
L 19.671875 0 
L 9.8125 0 
z
" id="DejaVuSans-70"/>
        <path d="M 34.1875 63.1875 
L 20.796875 26.90625 
L 47.609375 26.90625 
z
M 28.609375 72.90625 
L 39.796875 72.90625 
L 67.578125 0 
L 57.328125 0 
L 50.6875 18.703125 
L 17.828125 18.703125 
L 11.1875 0 
L 0.78125 0 
z
" id="DejaVuSans-65"/>
        <path d="M 44.390625 34.1875 
Q 47.5625 33.109375 50.5625 29.59375 
Q 53.5625 26.078125 56.59375 19.921875 
L 66.609375 0 
L 56 0 
L 46.6875 18.703125 
Q 43.0625 26.03125 39.671875 28.421875 
Q 36.28125 30.8125 30.421875 30.8125 
L 19.671875 30.8125 
L 19.671875 0 
L 9.8125 0 
L 9.8125 72.90625 
L 32.078125 72.90625 
Q 44.578125 72.90625 50.734375 67.671875 
Q 56.890625 62.453125 56.890625 51.90625 
Q 56.890625 45.015625 53.6875 40.46875 
Q 50.484375 35.9375 44.390625 34.1875 
z
M 19.671875 64.796875 
L 19.671875 38.921875 
L 32.078125 38.921875 
Q 39.203125 38.921875 42.84375 42.21875 
Q 46.484375 45.515625 46.484375 51.90625 
Q 46.484375 58.296875 42.84375 61.546875 
Q 39.203125 64.796875 32.078125 64.796875 
z
" id="DejaVuSans-82"/>
       </defs>
       <use xlink:href="#DejaVuSans-66"/>
       <use x="68.603516" xlink:href="#DejaVuSans-85"/>
       <use x="141.796875" xlink:href="#DejaVuSans-70"/>
       <use x="190.191406" xlink:href="#DejaVuSans-65"/>
       <use x="258.599609" xlink:href="#DejaVuSans-82"/>
      </g>
     </g>
    </g>
    <g id="ytick_2">
     <g id="line2d_34">
      <g>
       <use style="stroke:#000000;stroke-width:0.8;" x="90.55" xlink:href="#m7ef7e11cd1" y="117.296389"/>
      </g>
     </g>
     <g id="text_9">
      <!-- RAFAR original -->
      <g transform="translate(10.976562 121.095607)scale(0.1 -0.1)">
       <defs>
        <path d="M 45.40625 27.984375 
Q 45.40625 37.75 41.375 43.109375 
Q 37.359375 48.484375 30.078125 48.484375 
Q 22.859375 48.484375 18.828125 43.109375 
Q 14.796875 37.75 14.796875 27.984375 
Q 14.796875 18.265625 18.828125 12.890625 
Q 22.859375 7.515625 30.078125 7.515625 
Q 37.359375 7.515625 41.375 12.890625 
Q 45.40625 18.265625 45.40625 27.984375 
z
M 54.390625 6.78125 
Q 54.390625 -7.171875 48.1875 -13.984375 
Q 42 -20.796875 29.203125 -20.796875 
Q 24.46875 -20.796875 20.265625 -20.09375 
Q 16.0625 -19.390625 12.109375 -17.921875 
L 12.109375 -9.1875 
Q 16.0625 -11.328125 19.921875 -12.34375 
Q 23.78125 -13.375 27.78125 -13.375 
Q 36.625 -13.375 41.015625 -8.765625 
Q 45.40625 -4.15625 45.40625 5.171875 
L 45.40625 9.625 
Q 42.625 4.78125 38.28125 2.390625 
Q 33.9375 0 27.875 0 
Q 17.828125 0 11.671875 7.65625 
Q 5.515625 15.328125 5.515625 27.984375 
Q 5.515625 40.671875 11.671875 48.328125 
Q 17.828125 56 27.875 56 
Q 33.9375 56 38.28125 53.609375 
Q 42.625 51.21875 45.40625 46.390625 
L 45.40625 54.6875 
L 54.390625 54.6875 
z
" id="DejaVuSans-103"/>
        <path d="M 9.421875 75.984375 
L 18.40625 75.984375 
L 18.40625 0 
L 9.421875 0 
z
" id="DejaVuSans-108"/>
       </defs>
       <use xlink:href="#DejaVuSans-82"/>
       <use x="65.482422" xlink:href="#DejaVuSans-65"/>
       <use x="133.890625" xlink:href="#DejaVuSans-70"/>
       <use x="182.285156" xlink:href="#DejaVuSans-65"/>
       <use x="250.693359" xlink:href="#DejaVuSans-82"/>
       <use x="320.175781" xlink:href="#DejaVuSans-32"/>
       <use x="351.962891" xlink:href="#DejaVuSans-111"/>
       <use x="413.144531" xlink:href="#DejaVuSans-114"/>
       <use x="454.257812" xlink:href="#DejaVuSans-105"/>
       <use x="482.041016" xlink:href="#DejaVuSans-103"/>
       <use x="545.517578" xlink:href="#DejaVuSans-105"/>
       <use x="573.300781" xlink:href="#DejaVuSans-110"/>
       <use x="636.679688" xlink:href="#DejaVuSans-97"/>
       <use x="697.958984" xlink:href="#DejaVuSans-108"/>
      </g>
     </g>
    </g>
    <g id="ytick_3">
     <g id="line2d_35">
      <g>
       <use style="stroke:#000000;stroke-width:0.8;" x="90.55" xlink:href="#m7ef7e11cd1" y="168.703611"/>
      </g>
     </g>
     <g id="text_10">
      <!-- RAFAR empiric -->
      <g transform="translate(10.946875 172.50283)scale(0.1 -0.1)">
       <defs>
        <path d="M 18.109375 8.203125 
L 18.109375 -20.796875 
L 9.078125 -20.796875 
L 9.078125 54.6875 
L 18.109375 54.6875 
L 18.109375 46.390625 
Q 20.953125 51.265625 25.265625 53.625 
Q 29.59375 56 35.59375 56 
Q 45.5625 56 51.78125 48.09375 
Q 58.015625 40.1875 58.015625 27.296875 
Q 58.015625 14.40625 51.78125 6.484375 
Q 45.5625 -1.421875 35.59375 -1.421875 
Q 29.59375 -1.421875 25.265625 0.953125 
Q 20.953125 3.328125 18.109375 8.203125 
z
M 48.6875 27.296875 
Q 48.6875 37.203125 44.609375 42.84375 
Q 40.53125 48.484375 33.40625 48.484375 
Q 26.265625 48.484375 22.1875 42.84375 
Q 18.109375 37.203125 18.109375 27.296875 
Q 18.109375 17.390625 22.1875 11.75 
Q 26.265625 6.109375 33.40625 6.109375 
Q 40.53125 6.109375 44.609375 11.75 
Q 48.6875 17.390625 48.6875 27.296875 
z
" id="DejaVuSans-112"/>
        <path d="M 48.78125 52.59375 
L 48.78125 44.1875 
Q 44.96875 46.296875 41.140625 47.34375 
Q 37.3125 48.390625 33.40625 48.390625 
Q 24.65625 48.390625 19.8125 42.84375 
Q 14.984375 37.3125 14.984375 27.296875 
Q 14.984375 17.28125 19.8125 11.734375 
Q 24.65625 6.203125 33.40625 6.203125 
Q 37.3125 6.203125 41.140625 7.25 
Q 44.96875 8.296875 48.78125 10.40625 
L 48.78125 2.09375 
Q 45.015625 0.34375 40.984375 -0.53125 
Q 36.96875 -1.421875 32.421875 -1.421875 
Q 20.0625 -1.421875 12.78125 6.34375 
Q 5.515625 14.109375 5.515625 27.296875 
Q 5.515625 40.671875 12.859375 48.328125 
Q 20.21875 56 33.015625 56 
Q 37.15625 56 41.109375 55.140625 
Q 45.0625 54.296875 48.78125 52.59375 
z
" id="DejaVuSans-99"/>
       </defs>
       <use xlink:href="#DejaVuSans-82"/>
       <use x="65.482422" xlink:href="#DejaVuSans-65"/>
       <use x="133.890625" xlink:href="#DejaVuSans-70"/>
       <use x="182.285156" xlink:href="#DejaVuSans-65"/>
       <use x="250.693359" xlink:href="#DejaVuSans-82"/>
       <use x="320.175781" xlink:href="#DejaVuSans-32"/>
       <use x="351.962891" xlink:href="#DejaVuSans-101"/>
       <use x="413.486328" xlink:href="#DejaVuSans-109"/>
       <use x="510.898438" xlink:href="#DejaVuSans-112"/>
       <use x="574.375" xlink:href="#DejaVuSans-105"/>
       <use x="602.158203" xlink:href="#DejaVuSans-114"/>
       <use x="643.271484" xlink:href="#DejaVuSans-105"/>
       <use x="671.054688" xlink:href="#DejaVuSans-99"/>
      </g>
     </g>
    </g>
    <g id="ytick_4">
     <g id="line2d_36">
      <g>
       <use style="stroke:#000000;stroke-width:0.8;" x="90.55" xlink:href="#m7ef7e11cd1" y="220.110834"/>
      </g>
     </g>
     <g id="text_11">
      <!-- RAFAR tuned -->
      <g transform="translate(19.257812 223.910053)scale(0.1 -0.1)">
       <defs>
        <path d="M 8.5 21.578125 
L 8.5 54.6875 
L 17.484375 54.6875 
L 17.484375 21.921875 
Q 17.484375 14.15625 20.5 10.265625 
Q 23.53125 6.390625 29.59375 6.390625 
Q 36.859375 6.390625 41.078125 11.03125 
Q 45.3125 15.671875 45.3125 23.6875 
L 45.3125 54.6875 
L 54.296875 54.6875 
L 54.296875 0 
L 45.3125 0 
L 45.3125 8.40625 
Q 42.046875 3.421875 37.71875 1 
Q 33.40625 -1.421875 27.6875 -1.421875 
Q 18.265625 -1.421875 13.375 4.4375 
Q 8.5 10.296875 8.5 21.578125 
z
M 31.109375 56 
z
" id="DejaVuSans-117"/>
        <path d="M 45.40625 46.390625 
L 45.40625 75.984375 
L 54.390625 75.984375 
L 54.390625 0 
L 45.40625 0 
L 45.40625 8.203125 
Q 42.578125 3.328125 38.25 0.953125 
Q 33.9375 -1.421875 27.875 -1.421875 
Q 17.96875 -1.421875 11.734375 6.484375 
Q 5.515625 14.40625 5.515625 27.296875 
Q 5.515625 40.1875 11.734375 48.09375 
Q 17.96875 56 27.875 56 
Q 33.9375 56 38.25 53.625 
Q 42.578125 51.265625 45.40625 46.390625 
z
M 14.796875 27.296875 
Q 14.796875 17.390625 18.875 11.75 
Q 22.953125 6.109375 30.078125 6.109375 
Q 37.203125 6.109375 41.296875 11.75 
Q 45.40625 17.390625 45.40625 27.296875 
Q 45.40625 37.203125 41.296875 42.84375 
Q 37.203125 48.484375 30.078125 48.484375 
Q 22.953125 48.484375 18.875 42.84375 
Q 14.796875 37.203125 14.796875 27.296875 
z
" id="DejaVuSans-100"/>
       </defs>
       <use xlink:href="#DejaVuSans-82"/>
       <use x="65.482422" xlink:href="#DejaVuSans-65"/>
       <use x="133.890625" xlink:href="#DejaVuSans-70"/>
       <use x="182.285156" xlink:href="#DejaVuSans-65"/>
       <use x="250.693359" xlink:href="#DejaVuSans-82"/>
       <use x="320.175781" xlink:href="#DejaVuSans-32"/>
       <use x="351.962891" xlink:href="#DejaVuSans-116"/>
       <use x="391.171875" xlink:href="#DejaVuSans-117"/>
       <use x="454.550781" xlink:href="#DejaVuSans-110"/>
       <use x="517.929688" xlink:href="#DejaVuSans-101"/>
       <use x="579.453125" xlink:href="#DejaVuSans-100"/>
      </g>
     </g>
    </g>
    <g id="ytick_5">
     <g id="line2d_37">
      <defs>
       <path d="M 0 0 
L -2 0 
" id="m819b683267" style="stroke:#000000;stroke-width:0.6;"/>
      </defs>
      <g>
       <use style="stroke:#000000;stroke-width:0.6;" x="90.55" xlink:href="#m819b683267" y="45.326276"/>
      </g>
     </g>
    </g>
    <g id="ytick_6">
     <g id="line2d_38">
      <g>
       <use style="stroke:#000000;stroke-width:0.6;" x="90.55" xlink:href="#m819b683267" y="55.607721"/>
      </g>
     </g>
    </g>
    <g id="ytick_7">
     <g id="line2d_39">
      <g>
       <use style="stroke:#000000;stroke-width:0.6;" x="90.55" xlink:href="#m819b683267" y="76.17061"/>
      </g>
     </g>
    </g>
    <g id="ytick_8">
     <g id="line2d_40">
      <g>
       <use style="stroke:#000000;stroke-width:0.6;" x="90.55" xlink:href="#m819b683267" y="86.452055"/>
      </g>
     </g>
    </g>
    <g id="ytick_9">
     <g id="line2d_41">
      <g>
       <use style="stroke:#000000;stroke-width:0.6;" x="90.55" xlink:href="#m819b683267" y="96.733499"/>
      </g>
     </g>
    </g>
    <g id="ytick_10">
     <g id="line2d_42">
      <g>
       <use style="stroke:#000000;stroke-width:0.6;" x="90.55" xlink:href="#m819b683267" y="107.014944"/>
      </g>
     </g>
    </g>
    <g id="ytick_11">
     <g id="line2d_43">
      <g>
       <use style="stroke:#000000;stroke-width:0.6;" x="90.55" xlink:href="#m819b683267" y="127.577833"/>
      </g>
     </g>
    </g>
    <g id="ytick_12">
     <g id="line2d_44">
      <g>
       <use style="stroke:#000000;stroke-width:0.6;" x="90.55" xlink:href="#m819b683267" y="137.859278"/>
      </g>
     </g>
    </g>
    <g id="ytick_13">
     <g id="line2d_45">
      <g>
       <use style="stroke:#000000;stroke-width:0.6;" x="90.55" xlink:href="#m819b683267" y="148.140722"/>
      </g>
     </g>
    </g>
    <g id="ytick_14">
     <g id="line2d_46">
      <g>
       <use style="stroke:#000000;stroke-width:0.6;" x="90.55" xlink:href="#m819b683267" y="158.422167"/>
      </g>
     </g>
    </g>
    <g id="ytick_15">
     <g id="line2d_47">
      <g>
       <use style="stroke:#000000;stroke-width:0.6;" x="90.55" xlink:href="#m819b683267" y="178.985056"/>
      </g>
     </g>
    </g>
    <g id="ytick_16">
     <g id="line2d_48">
      <g>
       <use style="stroke:#000000;stroke-width:0.6;" x="90.55" xlink:href="#m819b683267" y="189.266501"/>
      </g>
     </g>
    </g>
    <g id="ytick_17">
     <g id="line2d_49">
      <g>
       <use style="stroke:#000000;stroke-width:0.6;" x="90.55" xlink:href="#m819b683267" y="199.547945"/>
      </g>
     </g>
    </g>
    <g id="ytick_18">
     <g id="line2d_50">
      <g>
       <use style="stroke:#000000;stroke-width:0.6;" x="90.55" xlink:href="#m819b683267" y="209.82939"/>
      </g>
     </g>
    </g>
    <g id="ytick_19">
     <g id="line2d_51">
      <g>
       <use style="stroke:#000000;stroke-width:0.6;" x="90.55" xlink:href="#m819b683267" y="230.392279"/>
      </g>
     </g>
    </g>
    <g id="ytick_20">
     <g id="line2d_52">
      <g>
       <use style="stroke:#000000;stroke-width:0.6;" x="90.55" xlink:href="#m819b683267" y="240.673724"/>
      </g>
     </g>
    </g>
   </g>
   <g id="LineCollection_1">
    <path clip-path="url(#pb65db33e73)" d="M 270.773854 57.535492 
L 270.773854 74.242839 
" style="fill:none;stroke:#1f77b4;stroke-width:1.5;"/>
   </g>
   <g id="LineCollection_2">
    <path clip-path="url(#pb65db33e73)" d="M 168.137306 57.535492 
L 168.137306 74.242839 
" style="fill:none;stroke:#1f77b4;stroke-width:1.5;"/>
   </g>
   <g id="LineCollection_3">
    <path clip-path="url(#pb65db33e73)" d="M 168.137306 65.889166 
L 270.773854 65.889166 
" style="fill:none;stroke:#1f77b4;stroke-width:1.5;"/>
   </g>
   <g id="LineCollection_4">
    <path clip-path="url(#pb65db33e73)" d="M 229.039638 57.535492 
L 229.039638 74.242839 
" style="fill:none;stroke:#1f77b4;stroke-width:1.5;"/>
   </g>
   <g id="LineCollection_5">
    <path clip-path="url(#pb65db33e73)" d="M 406.170455 108.942715 
L 406.170455 125.650062 
" style="fill:none;stroke:#ff7f0e;stroke-width:1.5;"/>
   </g>
   <g id="LineCollection_6">
    <path clip-path="url(#pb65db33e73)" d="M 250.124565 108.942715 
L 250.124565 125.650062 
" style="fill:none;stroke:#ff7f0e;stroke-width:1.5;"/>
   </g>
   <g id="LineCollection_7">
    <path clip-path="url(#pb65db33e73)" d="M 250.124565 117.296389 
L 406.170455 117.296389 
" style="fill:none;stroke:#ff7f0e;stroke-width:1.5;"/>
   </g>
   <g id="LineCollection_8">
    <path clip-path="url(#pb65db33e73)" d="M 330.892036 108.942715 
L 330.892036 125.650062 
" style="fill:none;stroke:#ff7f0e;stroke-width:1.5;"/>
   </g>
   <g id="LineCollection_9">
    <path clip-path="url(#pb65db33e73)" d="M 366.962945 160.349938 
L 366.962945 177.057285 
" style="fill:none;stroke:#2ca02c;stroke-width:1.5;"/>
   </g>
   <g id="LineCollection_10">
    <path clip-path="url(#pb65db33e73)" d="M 250.124565 160.349938 
L 250.124565 177.057285 
" style="fill:none;stroke:#2ca02c;stroke-width:1.5;"/>
   </g>
   <g id="LineCollection_11">
    <path clip-path="url(#pb65db33e73)" d="M 250.124565 168.703611 
L 366.962945 168.703611 
" style="fill:none;stroke:#2ca02c;stroke-width:1.5;"/>
   </g>
   <g id="LineCollection_12">
    <path clip-path="url(#pb65db33e73)" d="M 323.050534 160.349938 
L 323.050534 177.057285 
" style="fill:none;stroke:#2ca02c;stroke-width:1.5;"/>
   </g>
   <g id="LineCollection_13">
    <path clip-path="url(#pb65db33e73)" d="M 286.456858 211.757161 
L 286.456858 228.464508 
" style="fill:none;stroke:#d62728;stroke-width:1.5;"/>
   </g>
   <g id="LineCollection_14">
    <path clip-path="url(#pb65db33e73)" d="M 105.579545 211.757161 
L 105.579545 228.464508 
" style="fill:none;stroke:#d62728;stroke-width:1.5;"/>
   </g>
   <g id="LineCollection_15">
    <path clip-path="url(#pb65db33e73)" d="M 105.579545 220.110834 
L 286.456858 220.110834 
" style="fill:none;stroke:#d62728;stroke-width:1.5;"/>
   </g>
   <g id="LineCollection_16">
    <path clip-path="url(#pb65db33e73)" d="M 223.986225 211.757161 
L 223.986225 228.464508 
" style="fill:none;stroke:#d62728;stroke-width:1.5;"/>
   </g>
   <g id="line2d_53">
    <path clip-path="url(#pb65db33e73)" d="M 336.293959 246.2 
L 336.293959 39.8 
" style="fill:none;stroke:#000000;stroke-dasharray:5.55,2.4;stroke-dashoffset:0;stroke-width:1.5;"/>
   </g>
   <g id="patch_3">
    <path d="M 90.55 246.2 
L 90.55 39.8 
" style="fill:none;stroke:#000000;stroke-linecap:square;stroke-linejoin:miter;stroke-width:0.8;"/>
   </g>
   <g id="patch_4">
    <path d="M 421.2 246.2 
L 421.2 39.8 
" style="fill:none;stroke:#000000;stroke-linecap:square;stroke-linejoin:miter;stroke-width:0.8;"/>
   </g>
   <g id="patch_5">
    <path d="M 90.55 246.2 
L 421.2 246.2 
" style="fill:none;stroke:#000000;stroke-linecap:square;stroke-linejoin:miter;stroke-width:0.8;"/>
   </g>
   <g id="patch_6">
    <path d="M 90.55 39.8 
L 421.2 39.8 
" style="fill:none;stroke:#000000;stroke-linecap:square;stroke-linejoin:miter;stroke-width:0.8;"/>
   </g>
  </g>
  <g id="axes_2">
   <g id="matplotlib.axis_3">
    <g id="xtick_33">
     <g id="line2d_54">
      <defs>
       <path d="M 0 0 
L 0 -3.5 
" id="m1de752dd6b" style="stroke:#000000;stroke-width:0.8;"/>
      </defs>
      <g>
       <use style="stroke:#000000;stroke-width:0.8;" x="127.18724" xlink:href="#m1de752dd6b" y="39.8"/>
      </g>
     </g>
     <g id="text_12">
      <!-- -15% -->
      <g transform="translate(114.270052 30.720312)scale(0.1 -0.1)">
       <defs>
        <path d="M 4.890625 31.390625 
L 31.203125 31.390625 
L 31.203125 23.390625 
L 4.890625 23.390625 
z
" id="DejaVuSans-45"/>
        <path d="M 10.796875 72.90625 
L 49.515625 72.90625 
L 49.515625 64.59375 
L 19.828125 64.59375 
L 19.828125 46.734375 
Q 21.96875 47.46875 24.109375 47.828125 
Q 26.265625 48.1875 28.421875 48.1875 
Q 40.625 48.1875 47.75 41.5 
Q 54.890625 34.8125 54.890625 23.390625 
Q 54.890625 11.625 47.5625 5.09375 
Q 40.234375 -1.421875 26.90625 -1.421875 
Q 22.3125 -1.421875 17.546875 -0.640625 
Q 12.796875 0.140625 7.71875 1.703125 
L 7.71875 11.625 
Q 12.109375 9.234375 16.796875 8.0625 
Q 21.484375 6.890625 26.703125 6.890625 
Q 35.15625 6.890625 40.078125 11.328125 
Q 45.015625 15.765625 45.015625 23.390625 
Q 45.015625 31 40.078125 35.4375 
Q 35.15625 39.890625 26.703125 39.890625 
Q 22.75 39.890625 18.8125 39.015625 
Q 14.890625 38.140625 10.796875 36.28125 
z
" id="DejaVuSans-53"/>
        <path d="M 72.703125 32.078125 
Q 68.453125 32.078125 66.03125 28.46875 
Q 63.625 24.859375 63.625 18.40625 
Q 63.625 12.0625 66.03125 8.421875 
Q 68.453125 4.78125 72.703125 4.78125 
Q 76.859375 4.78125 79.265625 8.421875 
Q 81.6875 12.0625 81.6875 18.40625 
Q 81.6875 24.8125 79.265625 28.4375 
Q 76.859375 32.078125 72.703125 32.078125 
z
M 72.703125 38.28125 
Q 80.421875 38.28125 84.953125 32.90625 
Q 89.5 27.546875 89.5 18.40625 
Q 89.5 9.28125 84.9375 3.921875 
Q 80.375 -1.421875 72.703125 -1.421875 
Q 64.890625 -1.421875 60.34375 3.921875 
Q 55.8125 9.28125 55.8125 18.40625 
Q 55.8125 27.59375 60.375 32.9375 
Q 64.9375 38.28125 72.703125 38.28125 
z
M 22.3125 68.015625 
Q 18.109375 68.015625 15.6875 64.375 
Q 13.28125 60.75 13.28125 54.390625 
Q 13.28125 47.953125 15.671875 44.328125 
Q 18.0625 40.71875 22.3125 40.71875 
Q 26.5625 40.71875 28.96875 44.328125 
Q 31.390625 47.953125 31.390625 54.390625 
Q 31.390625 60.6875 28.953125 64.34375 
Q 26.515625 68.015625 22.3125 68.015625 
z
M 66.40625 74.21875 
L 74.21875 74.21875 
L 28.609375 -1.421875 
L 20.796875 -1.421875 
z
M 22.3125 74.21875 
Q 30.03125 74.21875 34.609375 68.875 
Q 39.203125 63.53125 39.203125 54.390625 
Q 39.203125 45.171875 34.640625 39.84375 
Q 30.078125 34.515625 22.3125 34.515625 
Q 14.546875 34.515625 10.03125 39.859375 
Q 5.515625 45.21875 5.515625 54.390625 
Q 5.515625 63.484375 10.046875 68.84375 
Q 14.59375 74.21875 22.3125 74.21875 
z
" id="DejaVuSans-37"/>
       </defs>
       <use xlink:href="#DejaVuSans-45"/>
       <use x="36.083984" xlink:href="#DejaVuSans-49"/>
       <use x="99.707031" xlink:href="#DejaVuSans-53"/>
       <use x="163.330078" xlink:href="#DejaVuSans-37"/>
      </g>
     </g>
    </g>
    <g id="xtick_34">
     <g id="line2d_55">
      <g>
       <use style="stroke:#000000;stroke-width:0.8;" x="179.46392" xlink:href="#m1de752dd6b" y="39.8"/>
      </g>
     </g>
     <g id="text_13">
      <!-- -11% -->
      <g transform="translate(166.546732 30.720312)scale(0.1 -0.1)">
       <use xlink:href="#DejaVuSans-45"/>
       <use x="36.083984" xlink:href="#DejaVuSans-49"/>
       <use x="99.707031" xlink:href="#DejaVuSans-49"/>
       <use x="163.330078" xlink:href="#DejaVuSans-37"/>
      </g>
     </g>
    </g>
    <g id="xtick_35">
     <g id="line2d_56">
      <g>
       <use style="stroke:#000000;stroke-width:0.8;" x="231.740599" xlink:href="#m1de752dd6b" y="39.8"/>
      </g>
     </g>
     <g id="text_14">
      <!-- -7% -->
      <g transform="translate(222.004662 30.720312)scale(0.1 -0.1)">
       <defs>
        <path d="M 8.203125 72.90625 
L 55.078125 72.90625 
L 55.078125 68.703125 
L 28.609375 0 
L 18.3125 0 
L 43.21875 64.59375 
L 8.203125 64.59375 
z
" id="DejaVuSans-55"/>
       </defs>
       <use xlink:href="#DejaVuSans-45"/>
       <use x="36.083984" xlink:href="#DejaVuSans-55"/>
       <use x="99.707031" xlink:href="#DejaVuSans-37"/>
      </g>
     </g>
    </g>
    <g id="xtick_36">
     <g id="line2d_57">
      <g>
       <use style="stroke:#000000;stroke-width:0.8;" x="284.017279" xlink:href="#m1de752dd6b" y="39.8"/>
      </g>
     </g>
     <g id="text_15">
      <!-- -4% -->
      <g transform="translate(274.281342 30.720312)scale(0.1 -0.1)">
       <use xlink:href="#DejaVuSans-45"/>
       <use x="36.083984" xlink:href="#DejaVuSans-52"/>
       <use x="99.707031" xlink:href="#DejaVuSans-37"/>
      </g>
     </g>
    </g>
    <g id="xtick_37">
     <g id="line2d_58">
      <g>
       <use style="stroke:#000000;stroke-width:0.8;" x="336.293959" xlink:href="#m1de752dd6b" y="39.8"/>
      </g>
     </g>
     <g id="text_16">
      <!-- 0% -->
      <g transform="translate(328.361928 30.720312)scale(0.1 -0.1)">
       <use xlink:href="#DejaVuSans-48"/>
       <use x="63.623047" xlink:href="#DejaVuSans-37"/>
      </g>
     </g>
    </g>
    <g id="xtick_38">
     <g id="line2d_59">
      <g>
       <use style="stroke:#000000;stroke-width:0.8;" x="388.570639" xlink:href="#m1de752dd6b" y="39.8"/>
      </g>
     </g>
     <g id="text_17">
      <!-- 4% -->
      <g transform="translate(380.638608 30.720312)scale(0.1 -0.1)">
       <use xlink:href="#DejaVuSans-52"/>
       <use x="63.623047" xlink:href="#DejaVuSans-37"/>
      </g>
     </g>
    </g>
    <g id="xtick_39">
     <g id="line2d_60">
      <defs>
       <path d="M 0 0 
L 0 -2 
" id="mae92129401" style="stroke:#000000;stroke-width:0.6;"/>
      </defs>
      <g>
       <use style="stroke:#000000;stroke-width:0.6;" x="95.821232" xlink:href="#mae92129401" y="39.8"/>
      </g>
     </g>
    </g>
    <g id="xtick_40">
     <g id="line2d_61">
      <g>
       <use style="stroke:#000000;stroke-width:0.6;" x="106.276568" xlink:href="#mae92129401" y="39.8"/>
      </g>
     </g>
    </g>
    <g id="xtick_41">
     <g id="line2d_62">
      <g>
       <use style="stroke:#000000;stroke-width:0.6;" x="116.731904" xlink:href="#mae92129401" y="39.8"/>
      </g>
     </g>
    </g>
    <g id="xtick_42">
     <g id="line2d_63">
      <g>
       <use style="stroke:#000000;stroke-width:0.6;" x="137.642576" xlink:href="#mae92129401" y="39.8"/>
      </g>
     </g>
    </g>
    <g id="xtick_43">
     <g id="line2d_64">
      <g>
       <use style="stroke:#000000;stroke-width:0.6;" x="148.097912" xlink:href="#mae92129401" y="39.8"/>
      </g>
     </g>
    </g>
    <g id="xtick_44">
     <g id="line2d_65">
      <g>
       <use style="stroke:#000000;stroke-width:0.6;" x="158.553248" xlink:href="#mae92129401" y="39.8"/>
      </g>
     </g>
    </g>
    <g id="xtick_45">
     <g id="line2d_66">
      <g>
       <use style="stroke:#000000;stroke-width:0.6;" x="169.008584" xlink:href="#mae92129401" y="39.8"/>
      </g>
     </g>
    </g>
    <g id="xtick_46">
     <g id="line2d_67">
      <g>
       <use style="stroke:#000000;stroke-width:0.6;" x="189.919256" xlink:href="#mae92129401" y="39.8"/>
      </g>
     </g>
    </g>
    <g id="xtick_47">
     <g id="line2d_68">
      <g>
       <use style="stroke:#000000;stroke-width:0.6;" x="200.374592" xlink:href="#mae92129401" y="39.8"/>
      </g>
     </g>
    </g>
    <g id="xtick_48">
     <g id="line2d_69">
      <g>
       <use style="stroke:#000000;stroke-width:0.6;" x="210.829928" xlink:href="#mae92129401" y="39.8"/>
      </g>
     </g>
    </g>
    <g id="xtick_49">
     <g id="line2d_70">
      <g>
       <use style="stroke:#000000;stroke-width:0.6;" x="221.285264" xlink:href="#mae92129401" y="39.8"/>
      </g>
     </g>
    </g>
    <g id="xtick_50">
     <g id="line2d_71">
      <g>
       <use style="stroke:#000000;stroke-width:0.6;" x="242.195935" xlink:href="#mae92129401" y="39.8"/>
      </g>
     </g>
    </g>
    <g id="xtick_51">
     <g id="line2d_72">
      <g>
       <use style="stroke:#000000;stroke-width:0.6;" x="252.651271" xlink:href="#mae92129401" y="39.8"/>
      </g>
     </g>
    </g>
    <g id="xtick_52">
     <g id="line2d_73">
      <g>
       <use style="stroke:#000000;stroke-width:0.6;" x="263.106607" xlink:href="#mae92129401" y="39.8"/>
      </g>
     </g>
    </g>
    <g id="xtick_53">
     <g id="line2d_74">
      <g>
       <use style="stroke:#000000;stroke-width:0.6;" x="273.561943" xlink:href="#mae92129401" y="39.8"/>
      </g>
     </g>
    </g>
    <g id="xtick_54">
     <g id="line2d_75">
      <g>
       <use style="stroke:#000000;stroke-width:0.6;" x="294.472615" xlink:href="#mae92129401" y="39.8"/>
      </g>
     </g>
    </g>
    <g id="xtick_55">
     <g id="line2d_76">
      <g>
       <use style="stroke:#000000;stroke-width:0.6;" x="304.927951" xlink:href="#mae92129401" y="39.8"/>
      </g>
     </g>
    </g>
    <g id="xtick_56">
     <g id="line2d_77">
      <g>
       <use style="stroke:#000000;stroke-width:0.6;" x="315.383287" xlink:href="#mae92129401" y="39.8"/>
      </g>
     </g>
    </g>
    <g id="xtick_57">
     <g id="line2d_78">
      <g>
       <use style="stroke:#000000;stroke-width:0.6;" x="325.838623" xlink:href="#mae92129401" y="39.8"/>
      </g>
     </g>
    </g>
    <g id="xtick_58">
     <g id="line2d_79">
      <g>
       <use style="stroke:#000000;stroke-width:0.6;" x="346.749295" xlink:href="#mae92129401" y="39.8"/>
      </g>
     </g>
    </g>
    <g id="xtick_59">
     <g id="line2d_80">
      <g>
       <use style="stroke:#000000;stroke-width:0.6;" x="357.204631" xlink:href="#mae92129401" y="39.8"/>
      </g>
     </g>
    </g>
    <g id="xtick_60">
     <g id="line2d_81">
      <g>
       <use style="stroke:#000000;stroke-width:0.6;" x="367.659967" xlink:href="#mae92129401" y="39.8"/>
      </g>
     </g>
    </g>
    <g id="xtick_61">
     <g id="line2d_82">
      <g>
       <use style="stroke:#000000;stroke-width:0.6;" x="378.115303" xlink:href="#mae92129401" y="39.8"/>
      </g>
     </g>
    </g>
    <g id="xtick_62">
     <g id="line2d_83">
      <g>
       <use style="stroke:#000000;stroke-width:0.6;" x="399.025975" xlink:href="#mae92129401" y="39.8"/>
      </g>
     </g>
    </g>
    <g id="xtick_63">
     <g id="line2d_84">
      <g>
       <use style="stroke:#000000;stroke-width:0.6;" x="409.481311" xlink:href="#mae92129401" y="39.8"/>
      </g>
     </g>
    </g>
    <g id="xtick_64">
     <g id="line2d_85">
      <g>
       <use style="stroke:#000000;stroke-width:0.6;" x="419.936647" xlink:href="#mae92129401" y="39.8"/>
      </g>
     </g>
    </g>
    <g id="text_18">
     <!-- Normalized Error -->
     <g transform="translate(213.745313 19.121875)scale(0.1 -0.1)">
      <defs>
       <path d="M 9.8125 72.90625 
L 23.09375 72.90625 
L 55.421875 11.921875 
L 55.421875 72.90625 
L 64.984375 72.90625 
L 64.984375 0 
L 51.703125 0 
L 19.390625 60.984375 
L 19.390625 0 
L 9.8125 0 
z
" id="DejaVuSans-78"/>
       <path d="M 5.515625 54.6875 
L 48.1875 54.6875 
L 48.1875 46.484375 
L 14.40625 7.171875 
L 48.1875 7.171875 
L 48.1875 0 
L 4.296875 0 
L 4.296875 8.203125 
L 38.09375 47.515625 
L 5.515625 47.515625 
z
" id="DejaVuSans-122"/>
      </defs>
      <use xlink:href="#DejaVuSans-78"/>
      <use x="74.804688" xlink:href="#DejaVuSans-111"/>
      <use x="135.986328" xlink:href="#DejaVuSans-114"/>
      <use x="175.349609" xlink:href="#DejaVuSans-109"/>
      <use x="272.761719" xlink:href="#DejaVuSans-97"/>
      <use x="334.041016" xlink:href="#DejaVuSans-108"/>
      <use x="361.824219" xlink:href="#DejaVuSans-105"/>
      <use x="389.607422" xlink:href="#DejaVuSans-122"/>
      <use x="442.097656" xlink:href="#DejaVuSans-101"/>
      <use x="503.621094" xlink:href="#DejaVuSans-100"/>
      <use x="567.097656" xlink:href="#DejaVuSans-32"/>
      <use x="598.884766" xlink:href="#DejaVuSans-69"/>
      <use x="662.068359" xlink:href="#DejaVuSans-114"/>
      <use x="701.431641" xlink:href="#DejaVuSans-114"/>
      <use x="740.294922" xlink:href="#DejaVuSans-111"/>
      <use x="801.476562" xlink:href="#DejaVuSans-114"/>
     </g>
    </g>
   </g>
   <g id="patch_7">
    <path d="M 90.55 246.2 
L 90.55 39.8 
" style="fill:none;stroke:#000000;stroke-linecap:square;stroke-linejoin:miter;stroke-width:0.8;"/>
   </g>
   <g id="patch_8">
    <path d="M 421.2 246.2 
L 421.2 39.8 
" style="fill:none;stroke:#000000;stroke-linecap:square;stroke-linejoin:miter;stroke-width:0.8;"/>
   </g>
   <g id="patch_9">
    <path d="M 90.55 246.2 
L 421.2 246.2 
" style="fill:none;stroke:#000000;stroke-linecap:square;stroke-linejoin:miter;stroke-width:0.8;"/>
   </g>
   <g id="patch_10">
    <path d="M 90.55 39.8 
L 421.2 39.8 
" style="fill:none;stroke:#000000;stroke-linecap:square;stroke-linejoin:miter;stroke-width:0.8;"/>
   </g>
  </g>
 </g>
 <defs>
  <clipPath id="pb65db33e73">
   <rect height="206.4" width="330.65" x="90.55" y="39.8"/>
  </clipPath>
 </defs>
</svg>
