<?xml version="1.0" encoding="utf-8" standalone="no"?>
<!DOCTYPE svg PUBLIC "-//W3C//DTD SVG 1.1//EN"
  "http://www.w3.org/Graphics/SVG/1.1/DTD/svg11.dtd">
<!-- Created with matplotlib (https://matplotlib.org/) -->
<svg height="288pt" version="1.1" viewBox="0 0 432 288" width="432pt" xmlns="http://www.w3.org/2000/svg" xmlns:xlink="http://www.w3.org/1999/xlink">
 <metadata>
  <rdf:RDF xmlns:cc="http://creativecommons.org/ns#" xmlns:dc="http://purl.org/dc/elements/1.1/" xmlns:rdf="http://www.w3.org/1999/02/22-rdf-syntax-ns#">
   <cc:Work>
    <dc:type rdf:resource="http://purl.org/dc/dcmitype/StillImage"/>
    <dc:date>2020-11-16T13:14:00.140049</dc:date>
    <dc:format>image/svg+xml</dc:format>
    <dc:creator>
     <cc:Agent>
      <dc:title>Matplotlib v3.3.3, https://matplotlib.org/</dc:title>
     </cc:Agent>
    </dc:creator>
   </cc:Work>
  </rdf:RDF>
 </metadata>
 <defs>
  <style type="text/css">*{stroke-linecap:butt;stroke-linejoin:round;}</style>
 </defs>
 <g id="figure_1">
  <g id="patch_1">
   <path d="M 0 288 
L 432 288 
L 432 0 
L 0 0 
z
" style="fill:none;"/>
  </g>
  <g id="axes_1">
   <g id="patch_2">
    <path d="M 90.55 246.2 
L 421.2 246.2 
L 421.2 39.8 
L 90.55 39.8 
z
" style="fill:#ffffff;"/>
   </g>
   <g id="PolyCollection_1">
    <path clip-path="url(#p6b87d178a7)" d="M 214.390102 76.553168 
L 214.390102 55.225163 
L 215.524644 55.006817 
L 216.659186 54.79245 
L 217.793728 54.581783 
L 218.92827 54.3745 
L 220.062812 54.170258 
L 221.197354 53.968693 
L 222.331896 53.769438 
L 223.466438 53.572126 
L 224.60098 53.376407 
L 225.735522 53.181956 
L 226.870064 52.988486 
L 228.004606 52.795758 
L 229.139148 52.603592 
L 230.27369 52.411874 
L 231.408232 52.220571 
L 232.542774 52.029731 
L 233.677316 51.839495 
L 234.811858 51.6501 
L 235.9464 51.461882 
L 237.080942 51.27528 
L 238.215484 51.090831 
L 239.350026 50.909177 
L 240.484568 50.731055 
L 241.61911 50.557292 
L 242.753652 50.388803 
L 243.888193 50.22658 
L 245.022735 50.071682 
L 246.157277 49.925224 
L 247.291819 49.788366 
L 248.426361 49.662299 
L 249.560903 49.54823 
L 250.695445 49.44737 
L 251.829987 49.360917 
L 252.964529 49.290039 
L 254.099071 49.235864 
L 255.233613 49.199458 
L 256.368155 49.181818 
L 257.502697 49.183854 
L 258.637239 49.206376 
L 259.771781 49.250085 
L 260.906323 49.315561 
L 262.040865 49.403253 
L 263.175407 49.513476 
L 264.309949 49.6464 
L 265.444491 49.802048 
L 266.579033 49.980296 
L 267.713575 50.180871 
L 268.848117 50.403349 
L 269.982659 50.647165 
L 269.982659 81.131167 
L 269.982659 81.131167 
L 268.848117 81.374982 
L 267.713575 81.597461 
L 266.579033 81.798035 
L 265.444491 81.976283 
L 264.309949 82.131932 
L 263.175407 82.264855 
L 262.040865 82.375078 
L 260.906323 82.46277 
L 259.771781 82.528246 
L 258.637239 82.571955 
L 257.502697 82.594477 
L 256.368155 82.596513 
L 255.233613 82.578873 
L 254.099071 82.542468 
L 252.964529 82.488292 
L 251.829987 82.417414 
L 250.695445 82.330961 
L 249.560903 82.230101 
L 248.426361 82.116033 
L 247.291819 81.989965 
L 246.157277 81.853107 
L 245.022735 81.706649 
L 243.888193 81.551751 
L 242.753652 81.389528 
L 241.61911 81.221039 
L 240.484568 81.047276 
L 239.350026 80.869154 
L 238.215484 80.6875 
L 237.080942 80.503052 
L 235.9464 80.316449 
L 234.811858 80.128231 
L 233.677316 79.938836 
L 232.542774 79.7486 
L 231.408232 79.55776 
L 230.27369 79.366457 
L 229.139148 79.17474 
L 228.004606 78.982573 
L 226.870064 78.789845 
L 225.735522 78.596375 
L 224.60098 78.401924 
L 223.466438 78.206205 
L 222.331896 78.008894 
L 221.197354 77.809638 
L 220.062812 77.608074 
L 218.92827 77.403831 
L 217.793728 77.196548 
L 216.659186 76.985881 
L 215.524644 76.771515 
L 214.390102 76.553168 
z
" style="fill:#1f77b4;fill-opacity:0.3;"/>
   </g>
   <g id="PolyCollection_2">
    <path clip-path="url(#p6b87d178a7)" d="M 257.062278 131.654811 
L 257.062278 102.937966 
L 259.700516 102.653015 
L 262.338754 102.384918 
L 264.976991 102.134367 
L 267.615229 101.901948 
L 270.253467 101.688136 
L 272.891704 101.493293 
L 275.529942 101.317668 
L 278.16818 101.161395 
L 280.806417 101.024497 
L 283.444655 100.906888 
L 286.082893 100.808378 
L 288.72113 100.728676 
L 291.359368 100.667397 
L 293.997606 100.624074 
L 296.635843 100.59816 
L 299.274081 100.589041 
L 301.912319 100.596045 
L 304.550556 100.618454 
L 307.188794 100.655511 
L 309.827032 100.706436 
L 312.465269 100.770432 
L 315.103507 100.8467 
L 317.741745 100.934449 
L 320.379982 101.032902 
L 323.01822 101.141313 
L 325.656458 101.258967 
L 328.294695 101.385196 
L 330.932933 101.519379 
L 333.571171 101.660953 
L 336.209408 101.809414 
L 338.847646 101.964319 
L 341.485884 102.125295 
L 344.124121 102.29203 
L 346.762359 102.464279 
L 349.400597 102.641858 
L 352.038835 102.824643 
L 354.677072 103.012565 
L 357.31531 103.205604 
L 359.953548 103.403783 
L 362.591785 103.60716 
L 365.230023 103.815819 
L 367.868261 104.029868 
L 370.506498 104.249421 
L 373.144736 104.474596 
L 375.782974 104.705503 
L 378.421211 104.94224 
L 381.059449 105.184877 
L 383.697687 105.433456 
L 386.335924 105.687981 
L 386.335924 128.904796 
L 386.335924 128.904796 
L 383.697687 129.159321 
L 381.059449 129.4079 
L 378.421211 129.650537 
L 375.782974 129.887274 
L 373.144736 130.118182 
L 370.506498 130.343356 
L 367.868261 130.562909 
L 365.230023 130.776958 
L 362.591785 130.985618 
L 359.953548 131.188994 
L 357.31531 131.387173 
L 354.677072 131.580212 
L 352.038835 131.768134 
L 349.400597 131.95092 
L 346.762359 132.128498 
L 344.124121 132.300747 
L 341.485884 132.467482 
L 338.847646 132.628458 
L 336.209408 132.783364 
L 333.571171 132.931824 
L 330.932933 133.073398 
L 328.294695 133.207581 
L 325.656458 133.33381 
L 323.01822 133.451464 
L 320.379982 133.559875 
L 317.741745 133.658328 
L 315.103507 133.746077 
L 312.465269 133.822345 
L 309.827032 133.886341 
L 307.188794 133.937266 
L 304.550556 133.974323 
L 301.912319 133.996732 
L 299.274081 134.003736 
L 296.635843 133.994617 
L 293.997606 133.968703 
L 291.359368 133.92538 
L 288.72113 133.864101 
L 286.082893 133.784399 
L 283.444655 133.685889 
L 280.806417 133.56828 
L 278.16818 133.431382 
L 275.529942 133.275109 
L 272.891704 133.099484 
L 270.253467 132.904641 
L 267.615229 132.690829 
L 264.976991 132.45841 
L 262.338754 132.20786 
L 259.700516 131.939762 
L 257.062278 131.654811 
z
" style="fill:#ff7f0e;fill-opacity:0.3;"/>
   </g>
   <g id="PolyCollection_3">
    <path clip-path="url(#p6b87d178a7)" d="M 257.062278 178.56651 
L 257.062278 158.840713 
L 258.075669 158.663452 
L 259.08906 158.488963 
L 260.102452 158.316825 
L 261.115843 158.146576 
L 262.129234 157.977729 
L 263.142625 157.809776 
L 264.156016 157.642198 
L 265.169407 157.474477 
L 266.182798 157.306106 
L 267.19619 157.136596 
L 268.209581 156.965491 
L 269.222972 156.792378 
L 270.236363 156.616895 
L 271.249754 156.438743 
L 272.263145 156.257694 
L 273.276536 156.073603 
L 274.289927 155.88641 
L 275.303319 155.696153 
L 276.31671 155.502968 
L 277.330101 155.3071 
L 278.343492 155.108897 
L 279.356883 154.908821 
L 280.370274 154.70744 
L 281.383665 154.505434 
L 282.397057 154.303584 
L 283.410448 154.102774 
L 284.423839 153.903981 
L 285.43723 153.708268 
L 286.450621 153.516776 
L 287.464012 153.330712 
L 288.477403 153.15134 
L 289.490794 152.979968 
L 290.504186 152.81793 
L 291.517577 152.666579 
L 292.530968 152.527268 
L 293.544359 152.401336 
L 294.55775 152.290094 
L 295.571141 152.194809 
L 296.584532 152.11669 
L 297.597924 152.056875 
L 298.611315 152.016415 
L 299.624706 151.996264 
L 300.638097 151.997265 
L 301.651488 152.020144 
L 302.664879 152.065495 
L 303.67827 152.133779 
L 304.691661 152.225311 
L 305.705053 152.340262 
L 306.718444 152.478654 
L 306.718444 184.928569 
L 306.718444 184.928569 
L 305.705053 185.066961 
L 304.691661 185.181912 
L 303.67827 185.273444 
L 302.664879 185.341728 
L 301.651488 185.387079 
L 300.638097 185.409957 
L 299.624706 185.410959 
L 298.611315 185.390808 
L 297.597924 185.350348 
L 296.584532 185.290533 
L 295.571141 185.212414 
L 294.55775 185.117129 
L 293.544359 185.005887 
L 292.530968 184.879955 
L 291.517577 184.740644 
L 290.504186 184.589293 
L 289.490794 184.427255 
L 288.477403 184.255882 
L 287.464012 184.076511 
L 286.450621 183.890447 
L 285.43723 183.698955 
L 284.423839 183.503242 
L 283.410448 183.304448 
L 282.397057 183.103638 
L 281.383665 182.901789 
L 280.370274 182.699783 
L 279.356883 182.498402 
L 278.343492 182.298326 
L 277.330101 182.100123 
L 276.31671 181.904254 
L 275.303319 181.71107 
L 274.289927 181.520813 
L 273.276536 181.33362 
L 272.263145 181.149529 
L 271.249754 180.96848 
L 270.236363 180.790328 
L 269.222972 180.614845 
L 268.209581 180.441732 
L 267.19619 180.270627 
L 266.182798 180.101117 
L 265.169407 179.932746 
L 264.156016 179.765025 
L 263.142625 179.597447 
L 262.129234 179.429494 
L 261.115843 179.260647 
L 260.102452 179.090398 
L 259.08906 178.918259 
L 258.075669 178.743771 
L 257.062278 178.56651 
z
" style="fill:#2ca02c;fill-opacity:0.3;"/>
   </g>
   <g id="PolyCollection_4">
    <path clip-path="url(#p6b87d178a7)" d="M 105.579545 233.813778 
L 105.579545 206.40789 
L 111.714054 206.113774 
L 117.848562 205.833125 
L 123.983071 205.566552 
L 130.117579 205.314585 
L 136.252087 205.077674 
L 142.386596 204.856186 
L 148.521104 204.650407 
L 154.655612 204.460544 
L 160.790121 204.286723 
L 166.924629 204.128996 
L 173.059137 203.987344 
L 179.193646 203.861678 
L 185.328154 203.751848 
L 191.462662 203.657648 
L 197.597171 203.578819 
L 203.731679 203.515058 
L 209.866187 203.466026 
L 216.000696 203.431352 
L 222.135204 203.410642 
L 228.269712 203.403487 
L 234.404221 203.409467 
L 240.538729 203.42816 
L 246.673237 203.45915 
L 252.807746 203.502027 
L 258.942254 203.556401 
L 265.076763 203.621901 
L 271.211271 203.698179 
L 277.345779 203.784917 
L 283.480288 203.881828 
L 289.614796 203.988656 
L 295.749304 204.105181 
L 301.883813 204.231215 
L 308.018321 204.366603 
L 314.152829 204.511222 
L 320.287338 204.664977 
L 326.421846 204.827797 
L 332.556354 204.999634 
L 338.690863 205.180456 
L 344.825371 205.370242 
L 350.959879 205.568976 
L 357.094388 205.776642 
L 363.228896 205.993219 
L 369.363404 206.21867 
L 375.497913 206.452942 
L 381.632421 206.695954 
L 387.766929 206.947596 
L 393.901438 207.20772 
L 400.035946 207.47614 
L 406.170455 207.752621 
L 406.170455 232.469047 
L 406.170455 232.469047 
L 400.035946 232.745529 
L 393.901438 233.013948 
L 387.766929 233.274073 
L 381.632421 233.525715 
L 375.497913 233.768727 
L 369.363404 234.002998 
L 363.228896 234.22845 
L 357.094388 234.445026 
L 350.959879 234.652693 
L 344.825371 234.851427 
L 338.690863 235.041213 
L 332.556354 235.222035 
L 326.421846 235.393872 
L 320.287338 235.556692 
L 314.152829 235.710447 
L 308.018321 235.855065 
L 301.883813 235.990454 
L 295.749304 236.116488 
L 289.614796 236.233013 
L 283.480288 236.339841 
L 277.345779 236.436752 
L 271.211271 236.52349 
L 265.076763 236.599768 
L 258.942254 236.665267 
L 252.807746 236.719642 
L 246.673237 236.762519 
L 240.538729 236.793509 
L 234.404221 236.812202 
L 228.269712 236.818182 
L 222.135204 236.811027 
L 216.000696 236.790317 
L 209.866187 236.755643 
L 203.731679 236.706611 
L 197.597171 236.64285 
L 191.462662 236.564021 
L 185.328154 236.46982 
L 179.193646 236.359991 
L 173.059137 236.234325 
L 166.924629 236.092673 
L 160.790121 235.934946 
L 154.655612 235.761125 
L 148.521104 235.571262 
L 142.386596 235.365483 
L 136.252087 235.143995 
L 130.117579 234.907084 
L 123.983071 234.655117 
L 117.848562 234.388544 
L 111.714054 234.107894 
L 105.579545 233.813778 
z
" style="fill:#d62728;fill-opacity:0.3;"/>
   </g>
   <g id="matplotlib.axis_1">
    <g id="xtick_1">
     <g id="line2d_1">
      <defs>
       <path d="M 0 0 
L 0 3.5 
" id="m3482fe3632" style="stroke:#000000;stroke-width:0.8;"/>
      </defs>
      <g>
       <use style="stroke:#000000;stroke-width:0.8;" x="101.598671" xlink:href="#m3482fe3632" y="246.2"/>
      </g>
     </g>
     <g id="text_1">
      <!-- −50 -->
      <g transform="translate(91.046328 260.798437)scale(0.1 -0.1)">
       <defs>
        <path d="M 10.59375 35.5 
L 73.1875 35.5 
L 73.1875 27.203125 
L 10.59375 27.203125 
z
" id="DejaVuSans-8722"/>
        <path d="M 10.796875 72.90625 
L 49.515625 72.90625 
L 49.515625 64.59375 
L 19.828125 64.59375 
L 19.828125 46.734375 
Q 21.96875 47.46875 24.109375 47.828125 
Q 26.265625 48.1875 28.421875 48.1875 
Q 40.625 48.1875 47.75 41.5 
Q 54.890625 34.8125 54.890625 23.390625 
Q 54.890625 11.625 47.5625 5.09375 
Q 40.234375 -1.421875 26.90625 -1.421875 
Q 22.3125 -1.421875 17.546875 -0.640625 
Q 12.796875 0.140625 7.71875 1.703125 
L 7.71875 11.625 
Q 12.109375 9.234375 16.796875 8.0625 
Q 21.484375 6.890625 26.703125 6.890625 
Q 35.15625 6.890625 40.078125 11.328125 
Q 45.015625 15.765625 45.015625 23.390625 
Q 45.015625 31 40.078125 35.4375 
Q 35.15625 39.890625 26.703125 39.890625 
Q 22.75 39.890625 18.8125 39.015625 
Q 14.890625 38.140625 10.796875 36.28125 
z
" id="DejaVuSans-53"/>
        <path d="M 31.78125 66.40625 
Q 24.171875 66.40625 20.328125 58.90625 
Q 16.5 51.421875 16.5 36.375 
Q 16.5 21.390625 20.328125 13.890625 
Q 24.171875 6.390625 31.78125 6.390625 
Q 39.453125 6.390625 43.28125 13.890625 
Q 47.125 21.390625 47.125 36.375 
Q 47.125 51.421875 43.28125 58.90625 
Q 39.453125 66.40625 31.78125 66.40625 
z
M 31.78125 74.21875 
Q 44.046875 74.21875 50.515625 64.515625 
Q 56.984375 54.828125 56.984375 36.375 
Q 56.984375 17.96875 50.515625 8.265625 
Q 44.046875 -1.421875 31.78125 -1.421875 
Q 19.53125 -1.421875 13.0625 8.265625 
Q 6.59375 17.96875 6.59375 36.375 
Q 6.59375 54.828125 13.0625 64.515625 
Q 19.53125 74.21875 31.78125 74.21875 
z
" id="DejaVuSans-48"/>
       </defs>
       <use xlink:href="#DejaVuSans-8722"/>
       <use x="83.789062" xlink:href="#DejaVuSans-53"/>
       <use x="147.412109" xlink:href="#DejaVuSans-48"/>
      </g>
     </g>
    </g>
    <g id="xtick_2">
     <g id="line2d_2">
      <g>
       <use style="stroke:#000000;stroke-width:0.8;" x="143.502609" xlink:href="#m3482fe3632" y="246.2"/>
      </g>
     </g>
     <g id="text_2">
      <!-- −40 -->
      <g transform="translate(132.950265 260.798437)scale(0.1 -0.1)">
       <defs>
        <path d="M 37.796875 64.3125 
L 12.890625 25.390625 
L 37.796875 25.390625 
z
M 35.203125 72.90625 
L 47.609375 72.90625 
L 47.609375 25.390625 
L 58.015625 25.390625 
L 58.015625 17.1875 
L 47.609375 17.1875 
L 47.609375 0 
L 37.796875 0 
L 37.796875 17.1875 
L 4.890625 17.1875 
L 4.890625 26.703125 
z
" id="DejaVuSans-52"/>
       </defs>
       <use xlink:href="#DejaVuSans-8722"/>
       <use x="83.789062" xlink:href="#DejaVuSans-52"/>
       <use x="147.412109" xlink:href="#DejaVuSans-48"/>
      </g>
     </g>
    </g>
    <g id="xtick_3">
     <g id="line2d_3">
      <g>
       <use style="stroke:#000000;stroke-width:0.8;" x="185.406546" xlink:href="#m3482fe3632" y="246.2"/>
      </g>
     </g>
     <g id="text_3">
      <!-- −30 -->
      <g transform="translate(174.854202 260.798437)scale(0.1 -0.1)">
       <defs>
        <path d="M 40.578125 39.3125 
Q 47.65625 37.796875 51.625 33 
Q 55.609375 28.21875 55.609375 21.1875 
Q 55.609375 10.40625 48.1875 4.484375 
Q 40.765625 -1.421875 27.09375 -1.421875 
Q 22.515625 -1.421875 17.65625 -0.515625 
Q 12.796875 0.390625 7.625 2.203125 
L 7.625 11.71875 
Q 11.71875 9.328125 16.59375 8.109375 
Q 21.484375 6.890625 26.8125 6.890625 
Q 36.078125 6.890625 40.9375 10.546875 
Q 45.796875 14.203125 45.796875 21.1875 
Q 45.796875 27.640625 41.28125 31.265625 
Q 36.765625 34.90625 28.71875 34.90625 
L 20.21875 34.90625 
L 20.21875 43.015625 
L 29.109375 43.015625 
Q 36.375 43.015625 40.234375 45.921875 
Q 44.09375 48.828125 44.09375 54.296875 
Q 44.09375 59.90625 40.109375 62.90625 
Q 36.140625 65.921875 28.71875 65.921875 
Q 24.65625 65.921875 20.015625 65.03125 
Q 15.375 64.15625 9.8125 62.3125 
L 9.8125 71.09375 
Q 15.4375 72.65625 20.34375 73.4375 
Q 25.25 74.21875 29.59375 74.21875 
Q 40.828125 74.21875 47.359375 69.109375 
Q 53.90625 64.015625 53.90625 55.328125 
Q 53.90625 49.265625 50.4375 45.09375 
Q 46.96875 40.921875 40.578125 39.3125 
z
" id="DejaVuSans-51"/>
       </defs>
       <use xlink:href="#DejaVuSans-8722"/>
       <use x="83.789062" xlink:href="#DejaVuSans-51"/>
       <use x="147.412109" xlink:href="#DejaVuSans-48"/>
      </g>
     </g>
    </g>
    <g id="xtick_4">
     <g id="line2d_4">
      <g>
       <use style="stroke:#000000;stroke-width:0.8;" x="227.310483" xlink:href="#m3482fe3632" y="246.2"/>
      </g>
     </g>
     <g id="text_4">
      <!-- −20 -->
      <g transform="translate(216.758139 260.798437)scale(0.1 -0.1)">
       <defs>
        <path d="M 19.1875 8.296875 
L 53.609375 8.296875 
L 53.609375 0 
L 7.328125 0 
L 7.328125 8.296875 
Q 12.9375 14.109375 22.625 23.890625 
Q 32.328125 33.6875 34.8125 36.53125 
Q 39.546875 41.84375 41.421875 45.53125 
Q 43.3125 49.21875 43.3125 52.78125 
Q 43.3125 58.59375 39.234375 62.25 
Q 35.15625 65.921875 28.609375 65.921875 
Q 23.96875 65.921875 18.8125 64.3125 
Q 13.671875 62.703125 7.8125 59.421875 
L 7.8125 69.390625 
Q 13.765625 71.78125 18.9375 73 
Q 24.125 74.21875 28.421875 74.21875 
Q 39.75 74.21875 46.484375 68.546875 
Q 53.21875 62.890625 53.21875 53.421875 
Q 53.21875 48.921875 51.53125 44.890625 
Q 49.859375 40.875 45.40625 35.40625 
Q 44.1875 33.984375 37.640625 27.21875 
Q 31.109375 20.453125 19.1875 8.296875 
z
" id="DejaVuSans-50"/>
       </defs>
       <use xlink:href="#DejaVuSans-8722"/>
       <use x="83.789062" xlink:href="#DejaVuSans-50"/>
       <use x="147.412109" xlink:href="#DejaVuSans-48"/>
      </g>
     </g>
    </g>
    <g id="xtick_5">
     <g id="line2d_5">
      <g>
       <use style="stroke:#000000;stroke-width:0.8;" x="269.21442" xlink:href="#m3482fe3632" y="246.2"/>
      </g>
     </g>
     <g id="text_5">
      <!-- −10 -->
      <g transform="translate(258.662076 260.798437)scale(0.1 -0.1)">
       <defs>
        <path d="M 12.40625 8.296875 
L 28.515625 8.296875 
L 28.515625 63.921875 
L 10.984375 60.40625 
L 10.984375 69.390625 
L 28.421875 72.90625 
L 38.28125 72.90625 
L 38.28125 8.296875 
L 54.390625 8.296875 
L 54.390625 0 
L 12.40625 0 
z
" id="DejaVuSans-49"/>
       </defs>
       <use xlink:href="#DejaVuSans-8722"/>
       <use x="83.789062" xlink:href="#DejaVuSans-49"/>
       <use x="147.412109" xlink:href="#DejaVuSans-48"/>
      </g>
     </g>
    </g>
    <g id="xtick_6">
     <g id="line2d_6">
      <g>
       <use style="stroke:#000000;stroke-width:0.8;" x="311.118357" xlink:href="#m3482fe3632" y="246.2"/>
      </g>
     </g>
     <g id="text_6">
      <!-- 0 -->
      <g transform="translate(307.937107 260.798437)scale(0.1 -0.1)">
       <use xlink:href="#DejaVuSans-48"/>
      </g>
     </g>
    </g>
    <g id="xtick_7">
     <g id="line2d_7">
      <g>
       <use style="stroke:#000000;stroke-width:0.8;" x="353.022294" xlink:href="#m3482fe3632" y="246.2"/>
      </g>
     </g>
     <g id="text_7">
      <!-- 10 -->
      <g transform="translate(346.659794 260.798437)scale(0.1 -0.1)">
       <use xlink:href="#DejaVuSans-49"/>
       <use x="63.623047" xlink:href="#DejaVuSans-48"/>
      </g>
     </g>
    </g>
    <g id="xtick_8">
     <g id="line2d_8">
      <g>
       <use style="stroke:#000000;stroke-width:0.8;" x="394.926231" xlink:href="#m3482fe3632" y="246.2"/>
      </g>
     </g>
     <g id="text_8">
      <!-- 20 -->
      <g transform="translate(388.563731 260.798437)scale(0.1 -0.1)">
       <use xlink:href="#DejaVuSans-50"/>
       <use x="63.623047" xlink:href="#DejaVuSans-48"/>
      </g>
     </g>
    </g>
    <g id="xtick_9">
     <g id="line2d_9">
      <defs>
       <path d="M 0 0 
L 0 2 
" id="m5f46b21daf" style="stroke:#000000;stroke-width:0.6;"/>
      </defs>
      <g>
       <use style="stroke:#000000;stroke-width:0.6;" x="93.217884" xlink:href="#m5f46b21daf" y="246.2"/>
      </g>
     </g>
    </g>
    <g id="xtick_10">
     <g id="line2d_10">
      <g>
       <use style="stroke:#000000;stroke-width:0.6;" x="109.979459" xlink:href="#m5f46b21daf" y="246.2"/>
      </g>
     </g>
    </g>
    <g id="xtick_11">
     <g id="line2d_11">
      <g>
       <use style="stroke:#000000;stroke-width:0.6;" x="118.360246" xlink:href="#m5f46b21daf" y="246.2"/>
      </g>
     </g>
    </g>
    <g id="xtick_12">
     <g id="line2d_12">
      <g>
       <use style="stroke:#000000;stroke-width:0.6;" x="126.741034" xlink:href="#m5f46b21daf" y="246.2"/>
      </g>
     </g>
    </g>
    <g id="xtick_13">
     <g id="line2d_13">
      <g>
       <use style="stroke:#000000;stroke-width:0.6;" x="135.121821" xlink:href="#m5f46b21daf" y="246.2"/>
      </g>
     </g>
    </g>
    <g id="xtick_14">
     <g id="line2d_14">
      <g>
       <use style="stroke:#000000;stroke-width:0.6;" x="151.883396" xlink:href="#m5f46b21daf" y="246.2"/>
      </g>
     </g>
    </g>
    <g id="xtick_15">
     <g id="line2d_15">
      <g>
       <use style="stroke:#000000;stroke-width:0.6;" x="160.264183" xlink:href="#m5f46b21daf" y="246.2"/>
      </g>
     </g>
    </g>
    <g id="xtick_16">
     <g id="line2d_16">
      <g>
       <use style="stroke:#000000;stroke-width:0.6;" x="168.644971" xlink:href="#m5f46b21daf" y="246.2"/>
      </g>
     </g>
    </g>
    <g id="xtick_17">
     <g id="line2d_17">
      <g>
       <use style="stroke:#000000;stroke-width:0.6;" x="177.025758" xlink:href="#m5f46b21daf" y="246.2"/>
      </g>
     </g>
    </g>
    <g id="xtick_18">
     <g id="line2d_18">
      <g>
       <use style="stroke:#000000;stroke-width:0.6;" x="193.787333" xlink:href="#m5f46b21daf" y="246.2"/>
      </g>
     </g>
    </g>
    <g id="xtick_19">
     <g id="line2d_19">
      <g>
       <use style="stroke:#000000;stroke-width:0.6;" x="202.168121" xlink:href="#m5f46b21daf" y="246.2"/>
      </g>
     </g>
    </g>
    <g id="xtick_20">
     <g id="line2d_20">
      <g>
       <use style="stroke:#000000;stroke-width:0.6;" x="210.548908" xlink:href="#m5f46b21daf" y="246.2"/>
      </g>
     </g>
    </g>
    <g id="xtick_21">
     <g id="line2d_21">
      <g>
       <use style="stroke:#000000;stroke-width:0.6;" x="218.929695" xlink:href="#m5f46b21daf" y="246.2"/>
      </g>
     </g>
    </g>
    <g id="xtick_22">
     <g id="line2d_22">
      <g>
       <use style="stroke:#000000;stroke-width:0.6;" x="235.69127" xlink:href="#m5f46b21daf" y="246.2"/>
      </g>
     </g>
    </g>
    <g id="xtick_23">
     <g id="line2d_23">
      <g>
       <use style="stroke:#000000;stroke-width:0.6;" x="244.072058" xlink:href="#m5f46b21daf" y="246.2"/>
      </g>
     </g>
    </g>
    <g id="xtick_24">
     <g id="line2d_24">
      <g>
       <use style="stroke:#000000;stroke-width:0.6;" x="252.452845" xlink:href="#m5f46b21daf" y="246.2"/>
      </g>
     </g>
    </g>
    <g id="xtick_25">
     <g id="line2d_25">
      <g>
       <use style="stroke:#000000;stroke-width:0.6;" x="260.833633" xlink:href="#m5f46b21daf" y="246.2"/>
      </g>
     </g>
    </g>
    <g id="xtick_26">
     <g id="line2d_26">
      <g>
       <use style="stroke:#000000;stroke-width:0.6;" x="277.595207" xlink:href="#m5f46b21daf" y="246.2"/>
      </g>
     </g>
    </g>
    <g id="xtick_27">
     <g id="line2d_27">
      <g>
       <use style="stroke:#000000;stroke-width:0.6;" x="285.975995" xlink:href="#m5f46b21daf" y="246.2"/>
      </g>
     </g>
    </g>
    <g id="xtick_28">
     <g id="line2d_28">
      <g>
       <use style="stroke:#000000;stroke-width:0.6;" x="294.356782" xlink:href="#m5f46b21daf" y="246.2"/>
      </g>
     </g>
    </g>
    <g id="xtick_29">
     <g id="line2d_29">
      <g>
       <use style="stroke:#000000;stroke-width:0.6;" x="302.73757" xlink:href="#m5f46b21daf" y="246.2"/>
      </g>
     </g>
    </g>
    <g id="xtick_30">
     <g id="line2d_30">
      <g>
       <use style="stroke:#000000;stroke-width:0.6;" x="319.499145" xlink:href="#m5f46b21daf" y="246.2"/>
      </g>
     </g>
    </g>
    <g id="xtick_31">
     <g id="line2d_31">
      <g>
       <use style="stroke:#000000;stroke-width:0.6;" x="327.879932" xlink:href="#m5f46b21daf" y="246.2"/>
      </g>
     </g>
    </g>
    <g id="xtick_32">
     <g id="line2d_32">
      <g>
       <use style="stroke:#000000;stroke-width:0.6;" x="336.260719" xlink:href="#m5f46b21daf" y="246.2"/>
      </g>
     </g>
    </g>
    <g id="xtick_33">
     <g id="line2d_33">
      <g>
       <use style="stroke:#000000;stroke-width:0.6;" x="344.641507" xlink:href="#m5f46b21daf" y="246.2"/>
      </g>
     </g>
    </g>
    <g id="xtick_34">
     <g id="line2d_34">
      <g>
       <use style="stroke:#000000;stroke-width:0.6;" x="361.403082" xlink:href="#m5f46b21daf" y="246.2"/>
      </g>
     </g>
    </g>
    <g id="xtick_35">
     <g id="line2d_35">
      <g>
       <use style="stroke:#000000;stroke-width:0.6;" x="369.783869" xlink:href="#m5f46b21daf" y="246.2"/>
      </g>
     </g>
    </g>
    <g id="xtick_36">
     <g id="line2d_36">
      <g>
       <use style="stroke:#000000;stroke-width:0.6;" x="378.164657" xlink:href="#m5f46b21daf" y="246.2"/>
      </g>
     </g>
    </g>
    <g id="xtick_37">
     <g id="line2d_37">
      <g>
       <use style="stroke:#000000;stroke-width:0.6;" x="386.545444" xlink:href="#m5f46b21daf" y="246.2"/>
      </g>
     </g>
    </g>
    <g id="xtick_38">
     <g id="line2d_38">
      <g>
       <use style="stroke:#000000;stroke-width:0.6;" x="403.307019" xlink:href="#m5f46b21daf" y="246.2"/>
      </g>
     </g>
    </g>
    <g id="xtick_39">
     <g id="line2d_39">
      <g>
       <use style="stroke:#000000;stroke-width:0.6;" x="411.687806" xlink:href="#m5f46b21daf" y="246.2"/>
      </g>
     </g>
    </g>
    <g id="xtick_40">
     <g id="line2d_40">
      <g>
       <use style="stroke:#000000;stroke-width:0.6;" x="420.068594" xlink:href="#m5f46b21daf" y="246.2"/>
      </g>
     </g>
    </g>
    <g id="text_9">
     <!-- Time Estimation Error (min) -->
     <g transform="translate(186.734375 274.476562)scale(0.1 -0.1)">
      <defs>
       <path d="M -0.296875 72.90625 
L 61.375 72.90625 
L 61.375 64.59375 
L 35.5 64.59375 
L 35.5 0 
L 25.59375 0 
L 25.59375 64.59375 
L -0.296875 64.59375 
z
" id="DejaVuSans-84"/>
       <path d="M 9.421875 54.6875 
L 18.40625 54.6875 
L 18.40625 0 
L 9.421875 0 
z
M 9.421875 75.984375 
L 18.40625 75.984375 
L 18.40625 64.59375 
L 9.421875 64.59375 
z
" id="DejaVuSans-105"/>
       <path d="M 52 44.1875 
Q 55.375 50.25 60.0625 53.125 
Q 64.75 56 71.09375 56 
Q 79.640625 56 84.28125 50.015625 
Q 88.921875 44.046875 88.921875 33.015625 
L 88.921875 0 
L 79.890625 0 
L 79.890625 32.71875 
Q 79.890625 40.578125 77.09375 44.375 
Q 74.3125 48.1875 68.609375 48.1875 
Q 61.625 48.1875 57.5625 43.546875 
Q 53.515625 38.921875 53.515625 30.90625 
L 53.515625 0 
L 44.484375 0 
L 44.484375 32.71875 
Q 44.484375 40.625 41.703125 44.40625 
Q 38.921875 48.1875 33.109375 48.1875 
Q 26.21875 48.1875 22.15625 43.53125 
Q 18.109375 38.875 18.109375 30.90625 
L 18.109375 0 
L 9.078125 0 
L 9.078125 54.6875 
L 18.109375 54.6875 
L 18.109375 46.1875 
Q 21.1875 51.21875 25.484375 53.609375 
Q 29.78125 56 35.6875 56 
Q 41.65625 56 45.828125 52.96875 
Q 50 49.953125 52 44.1875 
z
" id="DejaVuSans-109"/>
       <path d="M 56.203125 29.59375 
L 56.203125 25.203125 
L 14.890625 25.203125 
Q 15.484375 15.921875 20.484375 11.0625 
Q 25.484375 6.203125 34.421875 6.203125 
Q 39.59375 6.203125 44.453125 7.46875 
Q 49.3125 8.734375 54.109375 11.28125 
L 54.109375 2.78125 
Q 49.265625 0.734375 44.1875 -0.34375 
Q 39.109375 -1.421875 33.890625 -1.421875 
Q 20.796875 -1.421875 13.15625 6.1875 
Q 5.515625 13.8125 5.515625 26.8125 
Q 5.515625 40.234375 12.765625 48.109375 
Q 20.015625 56 32.328125 56 
Q 43.359375 56 49.78125 48.890625 
Q 56.203125 41.796875 56.203125 29.59375 
z
M 47.21875 32.234375 
Q 47.125 39.59375 43.09375 43.984375 
Q 39.0625 48.390625 32.421875 48.390625 
Q 24.90625 48.390625 20.390625 44.140625 
Q 15.875 39.890625 15.1875 32.171875 
z
" id="DejaVuSans-101"/>
       <path id="DejaVuSans-32"/>
       <path d="M 9.8125 72.90625 
L 55.90625 72.90625 
L 55.90625 64.59375 
L 19.671875 64.59375 
L 19.671875 43.015625 
L 54.390625 43.015625 
L 54.390625 34.71875 
L 19.671875 34.71875 
L 19.671875 8.296875 
L 56.78125 8.296875 
L 56.78125 0 
L 9.8125 0 
z
" id="DejaVuSans-69"/>
       <path d="M 44.28125 53.078125 
L 44.28125 44.578125 
Q 40.484375 46.53125 36.375 47.5 
Q 32.28125 48.484375 27.875 48.484375 
Q 21.1875 48.484375 17.84375 46.4375 
Q 14.5 44.390625 14.5 40.28125 
Q 14.5 37.15625 16.890625 35.375 
Q 19.28125 33.59375 26.515625 31.984375 
L 29.59375 31.296875 
Q 39.15625 29.25 43.1875 25.515625 
Q 47.21875 21.78125 47.21875 15.09375 
Q 47.21875 7.46875 41.1875 3.015625 
Q 35.15625 -1.421875 24.609375 -1.421875 
Q 20.21875 -1.421875 15.453125 -0.5625 
Q 10.6875 0.296875 5.421875 2 
L 5.421875 11.28125 
Q 10.40625 8.6875 15.234375 7.390625 
Q 20.0625 6.109375 24.8125 6.109375 
Q 31.15625 6.109375 34.5625 8.28125 
Q 37.984375 10.453125 37.984375 14.40625 
Q 37.984375 18.0625 35.515625 20.015625 
Q 33.0625 21.96875 24.703125 23.78125 
L 21.578125 24.515625 
Q 13.234375 26.265625 9.515625 29.90625 
Q 5.8125 33.546875 5.8125 39.890625 
Q 5.8125 47.609375 11.28125 51.796875 
Q 16.75 56 26.8125 56 
Q 31.78125 56 36.171875 55.265625 
Q 40.578125 54.546875 44.28125 53.078125 
z
" id="DejaVuSans-115"/>
       <path d="M 18.3125 70.21875 
L 18.3125 54.6875 
L 36.8125 54.6875 
L 36.8125 47.703125 
L 18.3125 47.703125 
L 18.3125 18.015625 
Q 18.3125 11.328125 20.140625 9.421875 
Q 21.96875 7.515625 27.59375 7.515625 
L 36.8125 7.515625 
L 36.8125 0 
L 27.59375 0 
Q 17.1875 0 13.234375 3.875 
Q 9.28125 7.765625 9.28125 18.015625 
L 9.28125 47.703125 
L 2.6875 47.703125 
L 2.6875 54.6875 
L 9.28125 54.6875 
L 9.28125 70.21875 
z
" id="DejaVuSans-116"/>
       <path d="M 34.28125 27.484375 
Q 23.390625 27.484375 19.1875 25 
Q 14.984375 22.515625 14.984375 16.5 
Q 14.984375 11.71875 18.140625 8.90625 
Q 21.296875 6.109375 26.703125 6.109375 
Q 34.1875 6.109375 38.703125 11.40625 
Q 43.21875 16.703125 43.21875 25.484375 
L 43.21875 27.484375 
z
M 52.203125 31.203125 
L 52.203125 0 
L 43.21875 0 
L 43.21875 8.296875 
Q 40.140625 3.328125 35.546875 0.953125 
Q 30.953125 -1.421875 24.3125 -1.421875 
Q 15.921875 -1.421875 10.953125 3.296875 
Q 6 8.015625 6 15.921875 
Q 6 25.140625 12.171875 29.828125 
Q 18.359375 34.515625 30.609375 34.515625 
L 43.21875 34.515625 
L 43.21875 35.40625 
Q 43.21875 41.609375 39.140625 45 
Q 35.0625 48.390625 27.6875 48.390625 
Q 23 48.390625 18.546875 47.265625 
Q 14.109375 46.140625 10.015625 43.890625 
L 10.015625 52.203125 
Q 14.9375 54.109375 19.578125 55.046875 
Q 24.21875 56 28.609375 56 
Q 40.484375 56 46.34375 49.84375 
Q 52.203125 43.703125 52.203125 31.203125 
z
" id="DejaVuSans-97"/>
       <path d="M 30.609375 48.390625 
Q 23.390625 48.390625 19.1875 42.75 
Q 14.984375 37.109375 14.984375 27.296875 
Q 14.984375 17.484375 19.15625 11.84375 
Q 23.34375 6.203125 30.609375 6.203125 
Q 37.796875 6.203125 41.984375 11.859375 
Q 46.1875 17.53125 46.1875 27.296875 
Q 46.1875 37.015625 41.984375 42.703125 
Q 37.796875 48.390625 30.609375 48.390625 
z
M 30.609375 56 
Q 42.328125 56 49.015625 48.375 
Q 55.71875 40.765625 55.71875 27.296875 
Q 55.71875 13.875 49.015625 6.21875 
Q 42.328125 -1.421875 30.609375 -1.421875 
Q 18.84375 -1.421875 12.171875 6.21875 
Q 5.515625 13.875 5.515625 27.296875 
Q 5.515625 40.765625 12.171875 48.375 
Q 18.84375 56 30.609375 56 
z
" id="DejaVuSans-111"/>
       <path d="M 54.890625 33.015625 
L 54.890625 0 
L 45.90625 0 
L 45.90625 32.71875 
Q 45.90625 40.484375 42.875 44.328125 
Q 39.84375 48.1875 33.796875 48.1875 
Q 26.515625 48.1875 22.3125 43.546875 
Q 18.109375 38.921875 18.109375 30.90625 
L 18.109375 0 
L 9.078125 0 
L 9.078125 54.6875 
L 18.109375 54.6875 
L 18.109375 46.1875 
Q 21.34375 51.125 25.703125 53.5625 
Q 30.078125 56 35.796875 56 
Q 45.21875 56 50.046875 50.171875 
Q 54.890625 44.34375 54.890625 33.015625 
z
" id="DejaVuSans-110"/>
       <path d="M 41.109375 46.296875 
Q 39.59375 47.171875 37.8125 47.578125 
Q 36.03125 48 33.890625 48 
Q 26.265625 48 22.1875 43.046875 
Q 18.109375 38.09375 18.109375 28.8125 
L 18.109375 0 
L 9.078125 0 
L 9.078125 54.6875 
L 18.109375 54.6875 
L 18.109375 46.1875 
Q 20.953125 51.171875 25.484375 53.578125 
Q 30.03125 56 36.53125 56 
Q 37.453125 56 38.578125 55.875 
Q 39.703125 55.765625 41.0625 55.515625 
z
" id="DejaVuSans-114"/>
       <path d="M 31 75.875 
Q 24.46875 64.65625 21.28125 53.65625 
Q 18.109375 42.671875 18.109375 31.390625 
Q 18.109375 20.125 21.3125 9.0625 
Q 24.515625 -2 31 -13.1875 
L 23.1875 -13.1875 
Q 15.875 -1.703125 12.234375 9.375 
Q 8.59375 20.453125 8.59375 31.390625 
Q 8.59375 42.28125 12.203125 53.3125 
Q 15.828125 64.359375 23.1875 75.875 
z
" id="DejaVuSans-40"/>
       <path d="M 8.015625 75.875 
L 15.828125 75.875 
Q 23.140625 64.359375 26.78125 53.3125 
Q 30.421875 42.28125 30.421875 31.390625 
Q 30.421875 20.453125 26.78125 9.375 
Q 23.140625 -1.703125 15.828125 -13.1875 
L 8.015625 -13.1875 
Q 14.5 -2 17.703125 9.0625 
Q 20.90625 20.125 20.90625 31.390625 
Q 20.90625 42.671875 17.703125 53.65625 
Q 14.5 64.65625 8.015625 75.875 
z
" id="DejaVuSans-41"/>
      </defs>
      <use xlink:href="#DejaVuSans-84"/>
      <use x="57.958984" xlink:href="#DejaVuSans-105"/>
      <use x="85.742188" xlink:href="#DejaVuSans-109"/>
      <use x="183.154297" xlink:href="#DejaVuSans-101"/>
      <use x="244.677734" xlink:href="#DejaVuSans-32"/>
      <use x="276.464844" xlink:href="#DejaVuSans-69"/>
      <use x="339.648438" xlink:href="#DejaVuSans-115"/>
      <use x="391.748047" xlink:href="#DejaVuSans-116"/>
      <use x="430.957031" xlink:href="#DejaVuSans-105"/>
      <use x="458.740234" xlink:href="#DejaVuSans-109"/>
      <use x="556.152344" xlink:href="#DejaVuSans-97"/>
      <use x="617.431641" xlink:href="#DejaVuSans-116"/>
      <use x="656.640625" xlink:href="#DejaVuSans-105"/>
      <use x="684.423828" xlink:href="#DejaVuSans-111"/>
      <use x="745.605469" xlink:href="#DejaVuSans-110"/>
      <use x="808.984375" xlink:href="#DejaVuSans-32"/>
      <use x="840.771484" xlink:href="#DejaVuSans-69"/>
      <use x="903.955078" xlink:href="#DejaVuSans-114"/>
      <use x="943.318359" xlink:href="#DejaVuSans-114"/>
      <use x="982.181641" xlink:href="#DejaVuSans-111"/>
      <use x="1043.363281" xlink:href="#DejaVuSans-114"/>
      <use x="1084.476562" xlink:href="#DejaVuSans-32"/>
      <use x="1116.263672" xlink:href="#DejaVuSans-40"/>
      <use x="1155.277344" xlink:href="#DejaVuSans-109"/>
      <use x="1252.689453" xlink:href="#DejaVuSans-105"/>
      <use x="1280.472656" xlink:href="#DejaVuSans-110"/>
      <use x="1343.851562" xlink:href="#DejaVuSans-41"/>
     </g>
    </g>
   </g>
   <g id="matplotlib.axis_2">
    <g id="ytick_1">
     <g id="line2d_41">
      <defs>
       <path d="M 0 0 
L -3.5 0 
" id="m93e807861c" style="stroke:#000000;stroke-width:0.8;"/>
      </defs>
      <g>
       <use style="stroke:#000000;stroke-width:0.8;" x="90.55" xlink:href="#m93e807861c" y="65.889166"/>
      </g>
     </g>
     <g id="text_10">
      <!-- BUFAR -->
      <g transform="translate(50.742187 69.688384)scale(0.1 -0.1)">
       <defs>
        <path d="M 19.671875 34.8125 
L 19.671875 8.109375 
L 35.5 8.109375 
Q 43.453125 8.109375 47.28125 11.40625 
Q 51.125 14.703125 51.125 21.484375 
Q 51.125 28.328125 47.28125 31.5625 
Q 43.453125 34.8125 35.5 34.8125 
z
M 19.671875 64.796875 
L 19.671875 42.828125 
L 34.28125 42.828125 
Q 41.5 42.828125 45.03125 45.53125 
Q 48.578125 48.25 48.578125 53.8125 
Q 48.578125 59.328125 45.03125 62.0625 
Q 41.5 64.796875 34.28125 64.796875 
z
M 9.8125 72.90625 
L 35.015625 72.90625 
Q 46.296875 72.90625 52.390625 68.21875 
Q 58.5 63.53125 58.5 54.890625 
Q 58.5 48.1875 55.375 44.234375 
Q 52.25 40.28125 46.1875 39.3125 
Q 53.46875 37.75 57.5 32.78125 
Q 61.53125 27.828125 61.53125 20.40625 
Q 61.53125 10.640625 54.890625 5.3125 
Q 48.25 0 35.984375 0 
L 9.8125 0 
z
" id="DejaVuSans-66"/>
        <path d="M 8.6875 72.90625 
L 18.609375 72.90625 
L 18.609375 28.609375 
Q 18.609375 16.890625 22.84375 11.734375 
Q 27.09375 6.59375 36.625 6.59375 
Q 46.09375 6.59375 50.34375 11.734375 
Q 54.59375 16.890625 54.59375 28.609375 
L 54.59375 72.90625 
L 64.5 72.90625 
L 64.5 27.390625 
Q 64.5 13.140625 57.4375 5.859375 
Q 50.390625 -1.421875 36.625 -1.421875 
Q 22.796875 -1.421875 15.734375 5.859375 
Q 8.6875 13.140625 8.6875 27.390625 
z
" id="DejaVuSans-85"/>
        <path d="M 9.8125 72.90625 
L 51.703125 72.90625 
L 51.703125 64.59375 
L 19.671875 64.59375 
L 19.671875 43.109375 
L 48.578125 43.109375 
L 48.578125 34.8125 
L 19.671875 34.8125 
L 19.671875 0 
L 9.8125 0 
z
" id="DejaVuSans-70"/>
        <path d="M 34.1875 63.1875 
L 20.796875 26.90625 
L 47.609375 26.90625 
z
M 28.609375 72.90625 
L 39.796875 72.90625 
L 67.578125 0 
L 57.328125 0 
L 50.6875 18.703125 
L 17.828125 18.703125 
L 11.1875 0 
L 0.78125 0 
z
" id="DejaVuSans-65"/>
        <path d="M 44.390625 34.1875 
Q 47.5625 33.109375 50.5625 29.59375 
Q 53.5625 26.078125 56.59375 19.921875 
L 66.609375 0 
L 56 0 
L 46.6875 18.703125 
Q 43.0625 26.03125 39.671875 28.421875 
Q 36.28125 30.8125 30.421875 30.8125 
L 19.671875 30.8125 
L 19.671875 0 
L 9.8125 0 
L 9.8125 72.90625 
L 32.078125 72.90625 
Q 44.578125 72.90625 50.734375 67.671875 
Q 56.890625 62.453125 56.890625 51.90625 
Q 56.890625 45.015625 53.6875 40.46875 
Q 50.484375 35.9375 44.390625 34.1875 
z
M 19.671875 64.796875 
L 19.671875 38.921875 
L 32.078125 38.921875 
Q 39.203125 38.921875 42.84375 42.21875 
Q 46.484375 45.515625 46.484375 51.90625 
Q 46.484375 58.296875 42.84375 61.546875 
Q 39.203125 64.796875 32.078125 64.796875 
z
" id="DejaVuSans-82"/>
       </defs>
       <use xlink:href="#DejaVuSans-66"/>
       <use x="68.603516" xlink:href="#DejaVuSans-85"/>
       <use x="141.796875" xlink:href="#DejaVuSans-70"/>
       <use x="190.191406" xlink:href="#DejaVuSans-65"/>
       <use x="258.599609" xlink:href="#DejaVuSans-82"/>
      </g>
     </g>
    </g>
    <g id="ytick_2">
     <g id="line2d_42">
      <g>
       <use style="stroke:#000000;stroke-width:0.8;" x="90.55" xlink:href="#m93e807861c" y="117.296389"/>
      </g>
     </g>
     <g id="text_11">
      <!-- RAFAR original -->
      <g transform="translate(10.976562 121.095607)scale(0.1 -0.1)">
       <defs>
        <path d="M 45.40625 27.984375 
Q 45.40625 37.75 41.375 43.109375 
Q 37.359375 48.484375 30.078125 48.484375 
Q 22.859375 48.484375 18.828125 43.109375 
Q 14.796875 37.75 14.796875 27.984375 
Q 14.796875 18.265625 18.828125 12.890625 
Q 22.859375 7.515625 30.078125 7.515625 
Q 37.359375 7.515625 41.375 12.890625 
Q 45.40625 18.265625 45.40625 27.984375 
z
M 54.390625 6.78125 
Q 54.390625 -7.171875 48.1875 -13.984375 
Q 42 -20.796875 29.203125 -20.796875 
Q 24.46875 -20.796875 20.265625 -20.09375 
Q 16.0625 -19.390625 12.109375 -17.921875 
L 12.109375 -9.1875 
Q 16.0625 -11.328125 19.921875 -12.34375 
Q 23.78125 -13.375 27.78125 -13.375 
Q 36.625 -13.375 41.015625 -8.765625 
Q 45.40625 -4.15625 45.40625 5.171875 
L 45.40625 9.625 
Q 42.625 4.78125 38.28125 2.390625 
Q 33.9375 0 27.875 0 
Q 17.828125 0 11.671875 7.65625 
Q 5.515625 15.328125 5.515625 27.984375 
Q 5.515625 40.671875 11.671875 48.328125 
Q 17.828125 56 27.875 56 
Q 33.9375 56 38.28125 53.609375 
Q 42.625 51.21875 45.40625 46.390625 
L 45.40625 54.6875 
L 54.390625 54.6875 
z
" id="DejaVuSans-103"/>
        <path d="M 9.421875 75.984375 
L 18.40625 75.984375 
L 18.40625 0 
L 9.421875 0 
z
" id="DejaVuSans-108"/>
       </defs>
       <use xlink:href="#DejaVuSans-82"/>
       <use x="65.482422" xlink:href="#DejaVuSans-65"/>
       <use x="133.890625" xlink:href="#DejaVuSans-70"/>
       <use x="182.285156" xlink:href="#DejaVuSans-65"/>
       <use x="250.693359" xlink:href="#DejaVuSans-82"/>
       <use x="320.175781" xlink:href="#DejaVuSans-32"/>
       <use x="351.962891" xlink:href="#DejaVuSans-111"/>
       <use x="413.144531" xlink:href="#DejaVuSans-114"/>
       <use x="454.257812" xlink:href="#DejaVuSans-105"/>
       <use x="482.041016" xlink:href="#DejaVuSans-103"/>
       <use x="545.517578" xlink:href="#DejaVuSans-105"/>
       <use x="573.300781" xlink:href="#DejaVuSans-110"/>
       <use x="636.679688" xlink:href="#DejaVuSans-97"/>
       <use x="697.958984" xlink:href="#DejaVuSans-108"/>
      </g>
     </g>
    </g>
    <g id="ytick_3">
     <g id="line2d_43">
      <g>
       <use style="stroke:#000000;stroke-width:0.8;" x="90.55" xlink:href="#m93e807861c" y="168.703611"/>
      </g>
     </g>
     <g id="text_12">
      <!-- RAFAR empiric -->
      <g transform="translate(10.946875 172.50283)scale(0.1 -0.1)">
       <defs>
        <path d="M 18.109375 8.203125 
L 18.109375 -20.796875 
L 9.078125 -20.796875 
L 9.078125 54.6875 
L 18.109375 54.6875 
L 18.109375 46.390625 
Q 20.953125 51.265625 25.265625 53.625 
Q 29.59375 56 35.59375 56 
Q 45.5625 56 51.78125 48.09375 
Q 58.015625 40.1875 58.015625 27.296875 
Q 58.015625 14.40625 51.78125 6.484375 
Q 45.5625 -1.421875 35.59375 -1.421875 
Q 29.59375 -1.421875 25.265625 0.953125 
Q 20.953125 3.328125 18.109375 8.203125 
z
M 48.6875 27.296875 
Q 48.6875 37.203125 44.609375 42.84375 
Q 40.53125 48.484375 33.40625 48.484375 
Q 26.265625 48.484375 22.1875 42.84375 
Q 18.109375 37.203125 18.109375 27.296875 
Q 18.109375 17.390625 22.1875 11.75 
Q 26.265625 6.109375 33.40625 6.109375 
Q 40.53125 6.109375 44.609375 11.75 
Q 48.6875 17.390625 48.6875 27.296875 
z
" id="DejaVuSans-112"/>
        <path d="M 48.78125 52.59375 
L 48.78125 44.1875 
Q 44.96875 46.296875 41.140625 47.34375 
Q 37.3125 48.390625 33.40625 48.390625 
Q 24.65625 48.390625 19.8125 42.84375 
Q 14.984375 37.3125 14.984375 27.296875 
Q 14.984375 17.28125 19.8125 11.734375 
Q 24.65625 6.203125 33.40625 6.203125 
Q 37.3125 6.203125 41.140625 7.25 
Q 44.96875 8.296875 48.78125 10.40625 
L 48.78125 2.09375 
Q 45.015625 0.34375 40.984375 -0.53125 
Q 36.96875 -1.421875 32.421875 -1.421875 
Q 20.0625 -1.421875 12.78125 6.34375 
Q 5.515625 14.109375 5.515625 27.296875 
Q 5.515625 40.671875 12.859375 48.328125 
Q 20.21875 56 33.015625 56 
Q 37.15625 56 41.109375 55.140625 
Q 45.0625 54.296875 48.78125 52.59375 
z
" id="DejaVuSans-99"/>
       </defs>
       <use xlink:href="#DejaVuSans-82"/>
       <use x="65.482422" xlink:href="#DejaVuSans-65"/>
       <use x="133.890625" xlink:href="#DejaVuSans-70"/>
       <use x="182.285156" xlink:href="#DejaVuSans-65"/>
       <use x="250.693359" xlink:href="#DejaVuSans-82"/>
       <use x="320.175781" xlink:href="#DejaVuSans-32"/>
       <use x="351.962891" xlink:href="#DejaVuSans-101"/>
       <use x="413.486328" xlink:href="#DejaVuSans-109"/>
       <use x="510.898438" xlink:href="#DejaVuSans-112"/>
       <use x="574.375" xlink:href="#DejaVuSans-105"/>
       <use x="602.158203" xlink:href="#DejaVuSans-114"/>
       <use x="643.271484" xlink:href="#DejaVuSans-105"/>
       <use x="671.054688" xlink:href="#DejaVuSans-99"/>
      </g>
     </g>
    </g>
    <g id="ytick_4">
     <g id="line2d_44">
      <g>
       <use style="stroke:#000000;stroke-width:0.8;" x="90.55" xlink:href="#m93e807861c" y="220.110834"/>
      </g>
     </g>
     <g id="text_13">
      <!-- RAFAR tuned -->
      <g transform="translate(19.257812 223.910053)scale(0.1 -0.1)">
       <defs>
        <path d="M 8.5 21.578125 
L 8.5 54.6875 
L 17.484375 54.6875 
L 17.484375 21.921875 
Q 17.484375 14.15625 20.5 10.265625 
Q 23.53125 6.390625 29.59375 6.390625 
Q 36.859375 6.390625 41.078125 11.03125 
Q 45.3125 15.671875 45.3125 23.6875 
L 45.3125 54.6875 
L 54.296875 54.6875 
L 54.296875 0 
L 45.3125 0 
L 45.3125 8.40625 
Q 42.046875 3.421875 37.71875 1 
Q 33.40625 -1.421875 27.6875 -1.421875 
Q 18.265625 -1.421875 13.375 4.4375 
Q 8.5 10.296875 8.5 21.578125 
z
M 31.109375 56 
z
" id="DejaVuSans-117"/>
        <path d="M 45.40625 46.390625 
L 45.40625 75.984375 
L 54.390625 75.984375 
L 54.390625 0 
L 45.40625 0 
L 45.40625 8.203125 
Q 42.578125 3.328125 38.25 0.953125 
Q 33.9375 -1.421875 27.875 -1.421875 
Q 17.96875 -1.421875 11.734375 6.484375 
Q 5.515625 14.40625 5.515625 27.296875 
Q 5.515625 40.1875 11.734375 48.09375 
Q 17.96875 56 27.875 56 
Q 33.9375 56 38.25 53.625 
Q 42.578125 51.265625 45.40625 46.390625 
z
M 14.796875 27.296875 
Q 14.796875 17.390625 18.875 11.75 
Q 22.953125 6.109375 30.078125 6.109375 
Q 37.203125 6.109375 41.296875 11.75 
Q 45.40625 17.390625 45.40625 27.296875 
Q 45.40625 37.203125 41.296875 42.84375 
Q 37.203125 48.484375 30.078125 48.484375 
Q 22.953125 48.484375 18.875 42.84375 
Q 14.796875 37.203125 14.796875 27.296875 
z
" id="DejaVuSans-100"/>
       </defs>
       <use xlink:href="#DejaVuSans-82"/>
       <use x="65.482422" xlink:href="#DejaVuSans-65"/>
       <use x="133.890625" xlink:href="#DejaVuSans-70"/>
       <use x="182.285156" xlink:href="#DejaVuSans-65"/>
       <use x="250.693359" xlink:href="#DejaVuSans-82"/>
       <use x="320.175781" xlink:href="#DejaVuSans-32"/>
       <use x="351.962891" xlink:href="#DejaVuSans-116"/>
       <use x="391.171875" xlink:href="#DejaVuSans-117"/>
       <use x="454.550781" xlink:href="#DejaVuSans-110"/>
       <use x="517.929688" xlink:href="#DejaVuSans-101"/>
       <use x="579.453125" xlink:href="#DejaVuSans-100"/>
      </g>
     </g>
    </g>
    <g id="ytick_5">
     <g id="line2d_45">
      <defs>
       <path d="M 0 0 
L -2 0 
" id="m104a244296" style="stroke:#000000;stroke-width:0.6;"/>
      </defs>
      <g>
       <use style="stroke:#000000;stroke-width:0.6;" x="90.55" xlink:href="#m104a244296" y="45.326276"/>
      </g>
     </g>
    </g>
    <g id="ytick_6">
     <g id="line2d_46">
      <g>
       <use style="stroke:#000000;stroke-width:0.6;" x="90.55" xlink:href="#m104a244296" y="55.607721"/>
      </g>
     </g>
    </g>
    <g id="ytick_7">
     <g id="line2d_47">
      <g>
       <use style="stroke:#000000;stroke-width:0.6;" x="90.55" xlink:href="#m104a244296" y="76.17061"/>
      </g>
     </g>
    </g>
    <g id="ytick_8">
     <g id="line2d_48">
      <g>
       <use style="stroke:#000000;stroke-width:0.6;" x="90.55" xlink:href="#m104a244296" y="86.452055"/>
      </g>
     </g>
    </g>
    <g id="ytick_9">
     <g id="line2d_49">
      <g>
       <use style="stroke:#000000;stroke-width:0.6;" x="90.55" xlink:href="#m104a244296" y="96.733499"/>
      </g>
     </g>
    </g>
    <g id="ytick_10">
     <g id="line2d_50">
      <g>
       <use style="stroke:#000000;stroke-width:0.6;" x="90.55" xlink:href="#m104a244296" y="107.014944"/>
      </g>
     </g>
    </g>
    <g id="ytick_11">
     <g id="line2d_51">
      <g>
       <use style="stroke:#000000;stroke-width:0.6;" x="90.55" xlink:href="#m104a244296" y="127.577833"/>
      </g>
     </g>
    </g>
    <g id="ytick_12">
     <g id="line2d_52">
      <g>
       <use style="stroke:#000000;stroke-width:0.6;" x="90.55" xlink:href="#m104a244296" y="137.859278"/>
      </g>
     </g>
    </g>
    <g id="ytick_13">
     <g id="line2d_53">
      <g>
       <use style="stroke:#000000;stroke-width:0.6;" x="90.55" xlink:href="#m104a244296" y="148.140722"/>
      </g>
     </g>
    </g>
    <g id="ytick_14">
     <g id="line2d_54">
      <g>
       <use style="stroke:#000000;stroke-width:0.6;" x="90.55" xlink:href="#m104a244296" y="158.422167"/>
      </g>
     </g>
    </g>
    <g id="ytick_15">
     <g id="line2d_55">
      <g>
       <use style="stroke:#000000;stroke-width:0.6;" x="90.55" xlink:href="#m104a244296" y="178.985056"/>
      </g>
     </g>
    </g>
    <g id="ytick_16">
     <g id="line2d_56">
      <g>
       <use style="stroke:#000000;stroke-width:0.6;" x="90.55" xlink:href="#m104a244296" y="189.266501"/>
      </g>
     </g>
    </g>
    <g id="ytick_17">
     <g id="line2d_57">
      <g>
       <use style="stroke:#000000;stroke-width:0.6;" x="90.55" xlink:href="#m104a244296" y="199.547945"/>
      </g>
     </g>
    </g>
    <g id="ytick_18">
     <g id="line2d_58">
      <g>
       <use style="stroke:#000000;stroke-width:0.6;" x="90.55" xlink:href="#m104a244296" y="209.82939"/>
      </g>
     </g>
    </g>
    <g id="ytick_19">
     <g id="line2d_59">
      <g>
       <use style="stroke:#000000;stroke-width:0.6;" x="90.55" xlink:href="#m104a244296" y="230.392279"/>
      </g>
     </g>
    </g>
    <g id="ytick_20">
     <g id="line2d_60">
      <g>
       <use style="stroke:#000000;stroke-width:0.6;" x="90.55" xlink:href="#m104a244296" y="240.673724"/>
      </g>
     </g>
    </g>
   </g>
   <g id="LineCollection_1">
    <path clip-path="url(#p6b87d178a7)" d="M 269.982659 57.535492 
L 269.982659 74.242839 
" style="fill:none;stroke:#1f77b4;stroke-width:1.5;"/>
   </g>
   <g id="LineCollection_2">
    <path clip-path="url(#p6b87d178a7)" d="M 214.390102 57.535492 
L 214.390102 74.242839 
" style="fill:none;stroke:#1f77b4;stroke-width:1.5;"/>
   </g>
   <g id="LineCollection_3">
    <path clip-path="url(#p6b87d178a7)" d="M 214.390102 65.889166 
L 269.982659 65.889166 
" style="fill:none;stroke:#1f77b4;stroke-width:1.5;"/>
   </g>
   <g id="LineCollection_4">
    <path clip-path="url(#p6b87d178a7)" d="M 254.827402 57.535492 
L 254.827402 74.242839 
" style="fill:none;stroke:#1f77b4;stroke-width:1.5;"/>
   </g>
   <g id="LineCollection_5">
    <path clip-path="url(#p6b87d178a7)" d="M 386.335924 108.942715 
L 386.335924 125.650062 
" style="fill:none;stroke:#ff7f0e;stroke-width:1.5;"/>
   </g>
   <g id="LineCollection_6">
    <path clip-path="url(#p6b87d178a7)" d="M 257.062278 108.942715 
L 257.062278 125.650062 
" style="fill:none;stroke:#ff7f0e;stroke-width:1.5;"/>
   </g>
   <g id="LineCollection_7">
    <path clip-path="url(#p6b87d178a7)" d="M 257.062278 117.296389 
L 386.335924 117.296389 
" style="fill:none;stroke:#ff7f0e;stroke-width:1.5;"/>
   </g>
   <g id="LineCollection_8">
    <path clip-path="url(#p6b87d178a7)" d="M 305.601005 108.942715 
L 305.601005 125.650062 
" style="fill:none;stroke:#ff7f0e;stroke-width:1.5;"/>
   </g>
   <g id="LineCollection_9">
    <path clip-path="url(#p6b87d178a7)" d="M 306.718444 160.349938 
L 306.718444 177.057285 
" style="fill:none;stroke:#2ca02c;stroke-width:1.5;"/>
   </g>
   <g id="LineCollection_10">
    <path clip-path="url(#p6b87d178a7)" d="M 257.062278 160.349938 
L 257.062278 177.057285 
" style="fill:none;stroke:#2ca02c;stroke-width:1.5;"/>
   </g>
   <g id="LineCollection_11">
    <path clip-path="url(#p6b87d178a7)" d="M 257.062278 168.703611 
L 306.718444 168.703611 
" style="fill:none;stroke:#2ca02c;stroke-width:1.5;"/>
   </g>
   <g id="LineCollection_12">
    <path clip-path="url(#p6b87d178a7)" d="M 301.410612 160.349938 
L 301.410612 177.057285 
" style="fill:none;stroke:#2ca02c;stroke-width:1.5;"/>
   </g>
   <g id="LineCollection_13">
    <path clip-path="url(#p6b87d178a7)" d="M 406.170455 211.757161 
L 406.170455 228.464508 
" style="fill:none;stroke:#d62728;stroke-width:1.5;"/>
   </g>
   <g id="LineCollection_14">
    <path clip-path="url(#p6b87d178a7)" d="M 105.579545 211.757161 
L 105.579545 228.464508 
" style="fill:none;stroke:#d62728;stroke-width:1.5;"/>
   </g>
   <g id="LineCollection_15">
    <path clip-path="url(#p6b87d178a7)" d="M 105.579545 220.110834 
L 406.170455 220.110834 
" style="fill:none;stroke:#d62728;stroke-width:1.5;"/>
   </g>
   <g id="LineCollection_16">
    <path clip-path="url(#p6b87d178a7)" d="M 238.205507 211.757161 
L 238.205507 228.464508 
" style="fill:none;stroke:#d62728;stroke-width:1.5;"/>
   </g>
   <g id="line2d_61">
    <path clip-path="url(#p6b87d178a7)" d="M 311.118357 246.2 
L 311.118357 39.8 
" style="fill:none;stroke:#000000;stroke-dasharray:5.55,2.4;stroke-dashoffset:0;stroke-width:1.5;"/>
   </g>
   <g id="patch_3">
    <path d="M 90.55 246.2 
L 90.55 39.8 
" style="fill:none;stroke:#000000;stroke-linecap:square;stroke-linejoin:miter;stroke-width:0.8;"/>
   </g>
   <g id="patch_4">
    <path d="M 421.2 246.2 
L 421.2 39.8 
" style="fill:none;stroke:#000000;stroke-linecap:square;stroke-linejoin:miter;stroke-width:0.8;"/>
   </g>
   <g id="patch_5">
    <path d="M 90.55 246.2 
L 421.2 246.2 
" style="fill:none;stroke:#000000;stroke-linecap:square;stroke-linejoin:miter;stroke-width:0.8;"/>
   </g>
   <g id="patch_6">
    <path d="M 90.55 39.8 
L 421.2 39.8 
" style="fill:none;stroke:#000000;stroke-linecap:square;stroke-linejoin:miter;stroke-width:0.8;"/>
   </g>
  </g>
  <g id="axes_2">
   <g id="matplotlib.axis_3">
    <g id="xtick_41">
     <g id="line2d_62">
      <defs>
       <path d="M 0 0 
L 0 -3.5 
" id="me91955079f" style="stroke:#000000;stroke-width:0.8;"/>
      </defs>
      <g>
       <use style="stroke:#000000;stroke-width:0.8;" x="101.598671" xlink:href="#me91955079f" y="39.8"/>
      </g>
     </g>
     <g id="text_14">
      <!-- -35% -->
      <g transform="translate(88.681484 30.720312)scale(0.1 -0.1)">
       <defs>
        <path d="M 4.890625 31.390625 
L 31.203125 31.390625 
L 31.203125 23.390625 
L 4.890625 23.390625 
z
" id="DejaVuSans-45"/>
        <path d="M 72.703125 32.078125 
Q 68.453125 32.078125 66.03125 28.46875 
Q 63.625 24.859375 63.625 18.40625 
Q 63.625 12.0625 66.03125 8.421875 
Q 68.453125 4.78125 72.703125 4.78125 
Q 76.859375 4.78125 79.265625 8.421875 
Q 81.6875 12.0625 81.6875 18.40625 
Q 81.6875 24.8125 79.265625 28.4375 
Q 76.859375 32.078125 72.703125 32.078125 
z
M 72.703125 38.28125 
Q 80.421875 38.28125 84.953125 32.90625 
Q 89.5 27.546875 89.5 18.40625 
Q 89.5 9.28125 84.9375 3.921875 
Q 80.375 -1.421875 72.703125 -1.421875 
Q 64.890625 -1.421875 60.34375 3.921875 
Q 55.8125 9.28125 55.8125 18.40625 
Q 55.8125 27.59375 60.375 32.9375 
Q 64.9375 38.28125 72.703125 38.28125 
z
M 22.3125 68.015625 
Q 18.109375 68.015625 15.6875 64.375 
Q 13.28125 60.75 13.28125 54.390625 
Q 13.28125 47.953125 15.671875 44.328125 
Q 18.0625 40.71875 22.3125 40.71875 
Q 26.5625 40.71875 28.96875 44.328125 
Q 31.390625 47.953125 31.390625 54.390625 
Q 31.390625 60.6875 28.953125 64.34375 
Q 26.515625 68.015625 22.3125 68.015625 
z
M 66.40625 74.21875 
L 74.21875 74.21875 
L 28.609375 -1.421875 
L 20.796875 -1.421875 
z
M 22.3125 74.21875 
Q 30.03125 74.21875 34.609375 68.875 
Q 39.203125 63.53125 39.203125 54.390625 
Q 39.203125 45.171875 34.640625 39.84375 
Q 30.078125 34.515625 22.3125 34.515625 
Q 14.546875 34.515625 10.03125 39.859375 
Q 5.515625 45.21875 5.515625 54.390625 
Q 5.515625 63.484375 10.046875 68.84375 
Q 14.59375 74.21875 22.3125 74.21875 
z
" id="DejaVuSans-37"/>
       </defs>
       <use xlink:href="#DejaVuSans-45"/>
       <use x="36.083984" xlink:href="#DejaVuSans-51"/>
       <use x="99.707031" xlink:href="#DejaVuSans-53"/>
       <use x="163.330078" xlink:href="#DejaVuSans-37"/>
      </g>
     </g>
    </g>
    <g id="xtick_42">
     <g id="line2d_63">
      <g>
       <use style="stroke:#000000;stroke-width:0.8;" x="143.502609" xlink:href="#me91955079f" y="39.8"/>
      </g>
     </g>
     <g id="text_15">
      <!-- -28% -->
      <g transform="translate(130.585421 30.720312)scale(0.1 -0.1)">
       <defs>
        <path d="M 31.78125 34.625 
Q 24.75 34.625 20.71875 30.859375 
Q 16.703125 27.09375 16.703125 20.515625 
Q 16.703125 13.921875 20.71875 10.15625 
Q 24.75 6.390625 31.78125 6.390625 
Q 38.8125 6.390625 42.859375 10.171875 
Q 46.921875 13.96875 46.921875 20.515625 
Q 46.921875 27.09375 42.890625 30.859375 
Q 38.875 34.625 31.78125 34.625 
z
M 21.921875 38.8125 
Q 15.578125 40.375 12.03125 44.71875 
Q 8.5 49.078125 8.5 55.328125 
Q 8.5 64.0625 14.71875 69.140625 
Q 20.953125 74.21875 31.78125 74.21875 
Q 42.671875 74.21875 48.875 69.140625 
Q 55.078125 64.0625 55.078125 55.328125 
Q 55.078125 49.078125 51.53125 44.71875 
Q 48 40.375 41.703125 38.8125 
Q 48.828125 37.15625 52.796875 32.3125 
Q 56.78125 27.484375 56.78125 20.515625 
Q 56.78125 9.90625 50.3125 4.234375 
Q 43.84375 -1.421875 31.78125 -1.421875 
Q 19.734375 -1.421875 13.25 4.234375 
Q 6.78125 9.90625 6.78125 20.515625 
Q 6.78125 27.484375 10.78125 32.3125 
Q 14.796875 37.15625 21.921875 38.8125 
z
M 18.3125 54.390625 
Q 18.3125 48.734375 21.84375 45.5625 
Q 25.390625 42.390625 31.78125 42.390625 
Q 38.140625 42.390625 41.71875 45.5625 
Q 45.3125 48.734375 45.3125 54.390625 
Q 45.3125 60.0625 41.71875 63.234375 
Q 38.140625 66.40625 31.78125 66.40625 
Q 25.390625 66.40625 21.84375 63.234375 
Q 18.3125 60.0625 18.3125 54.390625 
z
" id="DejaVuSans-56"/>
       </defs>
       <use xlink:href="#DejaVuSans-45"/>
       <use x="36.083984" xlink:href="#DejaVuSans-50"/>
       <use x="99.707031" xlink:href="#DejaVuSans-56"/>
       <use x="163.330078" xlink:href="#DejaVuSans-37"/>
      </g>
     </g>
    </g>
    <g id="xtick_43">
     <g id="line2d_64">
      <g>
       <use style="stroke:#000000;stroke-width:0.8;" x="185.406546" xlink:href="#me91955079f" y="39.8"/>
      </g>
     </g>
     <g id="text_16">
      <!-- -21% -->
      <g transform="translate(172.489358 30.720312)scale(0.1 -0.1)">
       <use xlink:href="#DejaVuSans-45"/>
       <use x="36.083984" xlink:href="#DejaVuSans-50"/>
       <use x="99.707031" xlink:href="#DejaVuSans-49"/>
       <use x="163.330078" xlink:href="#DejaVuSans-37"/>
      </g>
     </g>
    </g>
    <g id="xtick_44">
     <g id="line2d_65">
      <g>
       <use style="stroke:#000000;stroke-width:0.8;" x="227.310483" xlink:href="#me91955079f" y="39.8"/>
      </g>
     </g>
     <g id="text_17">
      <!-- -14% -->
      <g transform="translate(214.393295 30.720312)scale(0.1 -0.1)">
       <use xlink:href="#DejaVuSans-45"/>
       <use x="36.083984" xlink:href="#DejaVuSans-49"/>
       <use x="99.707031" xlink:href="#DejaVuSans-52"/>
       <use x="163.330078" xlink:href="#DejaVuSans-37"/>
      </g>
     </g>
    </g>
    <g id="xtick_45">
     <g id="line2d_66">
      <g>
       <use style="stroke:#000000;stroke-width:0.8;" x="269.21442" xlink:href="#me91955079f" y="39.8"/>
      </g>
     </g>
     <g id="text_18">
      <!-- -7% -->
      <g transform="translate(259.478482 30.720312)scale(0.1 -0.1)">
       <defs>
        <path d="M 8.203125 72.90625 
L 55.078125 72.90625 
L 55.078125 68.703125 
L 28.609375 0 
L 18.3125 0 
L 43.21875 64.59375 
L 8.203125 64.59375 
z
" id="DejaVuSans-55"/>
       </defs>
       <use xlink:href="#DejaVuSans-45"/>
       <use x="36.083984" xlink:href="#DejaVuSans-55"/>
       <use x="99.707031" xlink:href="#DejaVuSans-37"/>
      </g>
     </g>
    </g>
    <g id="xtick_46">
     <g id="line2d_67">
      <g>
       <use style="stroke:#000000;stroke-width:0.8;" x="311.118357" xlink:href="#me91955079f" y="39.8"/>
      </g>
     </g>
     <g id="text_19">
      <!-- 0% -->
      <g transform="translate(303.186326 30.720312)scale(0.1 -0.1)">
       <use xlink:href="#DejaVuSans-48"/>
       <use x="63.623047" xlink:href="#DejaVuSans-37"/>
      </g>
     </g>
    </g>
    <g id="xtick_47">
     <g id="line2d_68">
      <g>
       <use style="stroke:#000000;stroke-width:0.8;" x="353.022294" xlink:href="#me91955079f" y="39.8"/>
      </g>
     </g>
     <g id="text_20">
      <!-- 7% -->
      <g transform="translate(345.090263 30.720312)scale(0.1 -0.1)">
       <use xlink:href="#DejaVuSans-55"/>
       <use x="63.623047" xlink:href="#DejaVuSans-37"/>
      </g>
     </g>
    </g>
    <g id="xtick_48">
     <g id="line2d_69">
      <g>
       <use style="stroke:#000000;stroke-width:0.8;" x="394.926231" xlink:href="#me91955079f" y="39.8"/>
      </g>
     </g>
     <g id="text_21">
      <!-- 14% -->
      <g transform="translate(383.81295 30.720312)scale(0.1 -0.1)">
       <use xlink:href="#DejaVuSans-49"/>
       <use x="63.623047" xlink:href="#DejaVuSans-52"/>
       <use x="127.246094" xlink:href="#DejaVuSans-37"/>
      </g>
     </g>
    </g>
    <g id="xtick_49">
     <g id="line2d_70">
      <defs>
       <path d="M 0 0 
L 0 -2 
" id="me7e1f2baea" style="stroke:#000000;stroke-width:0.6;"/>
      </defs>
      <g>
       <use style="stroke:#000000;stroke-width:0.6;" x="93.217884" xlink:href="#me7e1f2baea" y="39.8"/>
      </g>
     </g>
    </g>
    <g id="xtick_50">
     <g id="line2d_71">
      <g>
       <use style="stroke:#000000;stroke-width:0.6;" x="109.979459" xlink:href="#me7e1f2baea" y="39.8"/>
      </g>
     </g>
    </g>
    <g id="xtick_51">
     <g id="line2d_72">
      <g>
       <use style="stroke:#000000;stroke-width:0.6;" x="118.360246" xlink:href="#me7e1f2baea" y="39.8"/>
      </g>
     </g>
    </g>
    <g id="xtick_52">
     <g id="line2d_73">
      <g>
       <use style="stroke:#000000;stroke-width:0.6;" x="126.741034" xlink:href="#me7e1f2baea" y="39.8"/>
      </g>
     </g>
    </g>
    <g id="xtick_53">
     <g id="line2d_74">
      <g>
       <use style="stroke:#000000;stroke-width:0.6;" x="135.121821" xlink:href="#me7e1f2baea" y="39.8"/>
      </g>
     </g>
    </g>
    <g id="xtick_54">
     <g id="line2d_75">
      <g>
       <use style="stroke:#000000;stroke-width:0.6;" x="151.883396" xlink:href="#me7e1f2baea" y="39.8"/>
      </g>
     </g>
    </g>
    <g id="xtick_55">
     <g id="line2d_76">
      <g>
       <use style="stroke:#000000;stroke-width:0.6;" x="160.264183" xlink:href="#me7e1f2baea" y="39.8"/>
      </g>
     </g>
    </g>
    <g id="xtick_56">
     <g id="line2d_77">
      <g>
       <use style="stroke:#000000;stroke-width:0.6;" x="168.644971" xlink:href="#me7e1f2baea" y="39.8"/>
      </g>
     </g>
    </g>
    <g id="xtick_57">
     <g id="line2d_78">
      <g>
       <use style="stroke:#000000;stroke-width:0.6;" x="177.025758" xlink:href="#me7e1f2baea" y="39.8"/>
      </g>
     </g>
    </g>
    <g id="xtick_58">
     <g id="line2d_79">
      <g>
       <use style="stroke:#000000;stroke-width:0.6;" x="193.787333" xlink:href="#me7e1f2baea" y="39.8"/>
      </g>
     </g>
    </g>
    <g id="xtick_59">
     <g id="line2d_80">
      <g>
       <use style="stroke:#000000;stroke-width:0.6;" x="202.168121" xlink:href="#me7e1f2baea" y="39.8"/>
      </g>
     </g>
    </g>
    <g id="xtick_60">
     <g id="line2d_81">
      <g>
       <use style="stroke:#000000;stroke-width:0.6;" x="210.548908" xlink:href="#me7e1f2baea" y="39.8"/>
      </g>
     </g>
    </g>
    <g id="xtick_61">
     <g id="line2d_82">
      <g>
       <use style="stroke:#000000;stroke-width:0.6;" x="218.929695" xlink:href="#me7e1f2baea" y="39.8"/>
      </g>
     </g>
    </g>
    <g id="xtick_62">
     <g id="line2d_83">
      <g>
       <use style="stroke:#000000;stroke-width:0.6;" x="235.69127" xlink:href="#me7e1f2baea" y="39.8"/>
      </g>
     </g>
    </g>
    <g id="xtick_63">
     <g id="line2d_84">
      <g>
       <use style="stroke:#000000;stroke-width:0.6;" x="244.072058" xlink:href="#me7e1f2baea" y="39.8"/>
      </g>
     </g>
    </g>
    <g id="xtick_64">
     <g id="line2d_85">
      <g>
       <use style="stroke:#000000;stroke-width:0.6;" x="252.452845" xlink:href="#me7e1f2baea" y="39.8"/>
      </g>
     </g>
    </g>
    <g id="xtick_65">
     <g id="line2d_86">
      <g>
       <use style="stroke:#000000;stroke-width:0.6;" x="260.833633" xlink:href="#me7e1f2baea" y="39.8"/>
      </g>
     </g>
    </g>
    <g id="xtick_66">
     <g id="line2d_87">
      <g>
       <use style="stroke:#000000;stroke-width:0.6;" x="277.595207" xlink:href="#me7e1f2baea" y="39.8"/>
      </g>
     </g>
    </g>
    <g id="xtick_67">
     <g id="line2d_88">
      <g>
       <use style="stroke:#000000;stroke-width:0.6;" x="285.975995" xlink:href="#me7e1f2baea" y="39.8"/>
      </g>
     </g>
    </g>
    <g id="xtick_68">
     <g id="line2d_89">
      <g>
       <use style="stroke:#000000;stroke-width:0.6;" x="294.356782" xlink:href="#me7e1f2baea" y="39.8"/>
      </g>
     </g>
    </g>
    <g id="xtick_69">
     <g id="line2d_90">
      <g>
       <use style="stroke:#000000;stroke-width:0.6;" x="302.73757" xlink:href="#me7e1f2baea" y="39.8"/>
      </g>
     </g>
    </g>
    <g id="xtick_70">
     <g id="line2d_91">
      <g>
       <use style="stroke:#000000;stroke-width:0.6;" x="319.499145" xlink:href="#me7e1f2baea" y="39.8"/>
      </g>
     </g>
    </g>
    <g id="xtick_71">
     <g id="line2d_92">
      <g>
       <use style="stroke:#000000;stroke-width:0.6;" x="327.879932" xlink:href="#me7e1f2baea" y="39.8"/>
      </g>
     </g>
    </g>
    <g id="xtick_72">
     <g id="line2d_93">
      <g>
       <use style="stroke:#000000;stroke-width:0.6;" x="336.260719" xlink:href="#me7e1f2baea" y="39.8"/>
      </g>
     </g>
    </g>
    <g id="xtick_73">
     <g id="line2d_94">
      <g>
       <use style="stroke:#000000;stroke-width:0.6;" x="344.641507" xlink:href="#me7e1f2baea" y="39.8"/>
      </g>
     </g>
    </g>
    <g id="xtick_74">
     <g id="line2d_95">
      <g>
       <use style="stroke:#000000;stroke-width:0.6;" x="361.403082" xlink:href="#me7e1f2baea" y="39.8"/>
      </g>
     </g>
    </g>
    <g id="xtick_75">
     <g id="line2d_96">
      <g>
       <use style="stroke:#000000;stroke-width:0.6;" x="369.783869" xlink:href="#me7e1f2baea" y="39.8"/>
      </g>
     </g>
    </g>
    <g id="xtick_76">
     <g id="line2d_97">
      <g>
       <use style="stroke:#000000;stroke-width:0.6;" x="378.164657" xlink:href="#me7e1f2baea" y="39.8"/>
      </g>
     </g>
    </g>
    <g id="xtick_77">
     <g id="line2d_98">
      <g>
       <use style="stroke:#000000;stroke-width:0.6;" x="386.545444" xlink:href="#me7e1f2baea" y="39.8"/>
      </g>
     </g>
    </g>
    <g id="xtick_78">
     <g id="line2d_99">
      <g>
       <use style="stroke:#000000;stroke-width:0.6;" x="403.307019" xlink:href="#me7e1f2baea" y="39.8"/>
      </g>
     </g>
    </g>
    <g id="xtick_79">
     <g id="line2d_100">
      <g>
       <use style="stroke:#000000;stroke-width:0.6;" x="411.687806" xlink:href="#me7e1f2baea" y="39.8"/>
      </g>
     </g>
    </g>
    <g id="xtick_80">
     <g id="line2d_101">
      <g>
       <use style="stroke:#000000;stroke-width:0.6;" x="420.068594" xlink:href="#me7e1f2baea" y="39.8"/>
      </g>
     </g>
    </g>
    <g id="text_22">
     <!-- Normalized Error -->
     <g transform="translate(213.745313 19.121875)scale(0.1 -0.1)">
      <defs>
       <path d="M 9.8125 72.90625 
L 23.09375 72.90625 
L 55.421875 11.921875 
L 55.421875 72.90625 
L 64.984375 72.90625 
L 64.984375 0 
L 51.703125 0 
L 19.390625 60.984375 
L 19.390625 0 
L 9.8125 0 
z
" id="DejaVuSans-78"/>
       <path d="M 5.515625 54.6875 
L 48.1875 54.6875 
L 48.1875 46.484375 
L 14.40625 7.171875 
L 48.1875 7.171875 
L 48.1875 0 
L 4.296875 0 
L 4.296875 8.203125 
L 38.09375 47.515625 
L 5.515625 47.515625 
z
" id="DejaVuSans-122"/>
      </defs>
      <use xlink:href="#DejaVuSans-78"/>
      <use x="74.804688" xlink:href="#DejaVuSans-111"/>
      <use x="135.986328" xlink:href="#DejaVuSans-114"/>
      <use x="175.349609" xlink:href="#DejaVuSans-109"/>
      <use x="272.761719" xlink:href="#DejaVuSans-97"/>
      <use x="334.041016" xlink:href="#DejaVuSans-108"/>
      <use x="361.824219" xlink:href="#DejaVuSans-105"/>
      <use x="389.607422" xlink:href="#DejaVuSans-122"/>
      <use x="442.097656" xlink:href="#DejaVuSans-101"/>
      <use x="503.621094" xlink:href="#DejaVuSans-100"/>
      <use x="567.097656" xlink:href="#DejaVuSans-32"/>
      <use x="598.884766" xlink:href="#DejaVuSans-69"/>
      <use x="662.068359" xlink:href="#DejaVuSans-114"/>
      <use x="701.431641" xlink:href="#DejaVuSans-114"/>
      <use x="740.294922" xlink:href="#DejaVuSans-111"/>
      <use x="801.476562" xlink:href="#DejaVuSans-114"/>
     </g>
    </g>
   </g>
   <g id="patch_7">
    <path d="M 90.55 246.2 
L 90.55 39.8 
" style="fill:none;stroke:#000000;stroke-linecap:square;stroke-linejoin:miter;stroke-width:0.8;"/>
   </g>
   <g id="patch_8">
    <path d="M 421.2 246.2 
L 421.2 39.8 
" style="fill:none;stroke:#000000;stroke-linecap:square;stroke-linejoin:miter;stroke-width:0.8;"/>
   </g>
   <g id="patch_9">
    <path d="M 90.55 246.2 
L 421.2 246.2 
" style="fill:none;stroke:#000000;stroke-linecap:square;stroke-linejoin:miter;stroke-width:0.8;"/>
   </g>
   <g id="patch_10">
    <path d="M 90.55 39.8 
L 421.2 39.8 
" style="fill:none;stroke:#000000;stroke-linecap:square;stroke-linejoin:miter;stroke-width:0.8;"/>
   </g>
  </g>
 </g>
 <defs>
  <clipPath id="p6b87d178a7">
   <rect height="206.4" width="330.65" x="90.55" y="39.8"/>
  </clipPath>
 </defs>
</svg>
