<?xml version="1.0" encoding="utf-8" standalone="no"?>
<!DOCTYPE svg PUBLIC "-//W3C//DTD SVG 1.1//EN"
  "http://www.w3.org/Graphics/SVG/1.1/DTD/svg11.dtd">
<!-- Created with matplotlib (https://matplotlib.org/) -->
<svg height="288pt" version="1.1" viewBox="0 0 432 288" width="432pt" xmlns="http://www.w3.org/2000/svg" xmlns:xlink="http://www.w3.org/1999/xlink">
 <metadata>
  <rdf:RDF xmlns:cc="http://creativecommons.org/ns#" xmlns:dc="http://purl.org/dc/elements/1.1/" xmlns:rdf="http://www.w3.org/1999/02/22-rdf-syntax-ns#">
   <cc:Work>
    <dc:type rdf:resource="http://purl.org/dc/dcmitype/StillImage"/>
    <dc:date>2020-11-16T13:14:07.048272</dc:date>
    <dc:format>image/svg+xml</dc:format>
    <dc:creator>
     <cc:Agent>
      <dc:title>Matplotlib v3.3.3, https://matplotlib.org/</dc:title>
     </cc:Agent>
    </dc:creator>
   </cc:Work>
  </rdf:RDF>
 </metadata>
 <defs>
  <style type="text/css">*{stroke-linecap:butt;stroke-linejoin:round;}</style>
 </defs>
 <g id="figure_1">
  <g id="patch_1">
   <path d="M 0 288 
L 432 288 
L 432 0 
L 0 0 
z
" style="fill:none;"/>
  </g>
  <g id="axes_1">
   <g id="patch_2">
    <path d="M 90.55 246.2 
L 421.2 246.2 
L 421.2 39.8 
L 90.55 39.8 
z
" style="fill:#ffffff;"/>
   </g>
   <g id="PolyCollection_1">
    <path clip-path="url(#p55612c6e19)" d="M 283.271275 80.795719 
L 283.271275 50.982612 
L 284.269309 50.718707 
L 285.267342 50.474537 
L 286.265375 50.250758 
L 287.263409 50.047888 
L 288.261442 49.866316 
L 289.259475 49.706289 
L 290.257508 49.567917 
L 291.255542 49.451174 
L 292.253575 49.355898 
L 293.251608 49.281798 
L 294.249642 49.228458 
L 295.247675 49.195345 
L 296.245708 49.181818 
L 297.243742 49.187138 
L 298.241775 49.210479 
L 299.239808 49.250938 
L 300.237841 49.307553 
L 301.235875 49.37931 
L 302.233908 49.465162 
L 303.231941 49.56404 
L 304.229975 49.674868 
L 305.228008 49.796576 
L 306.226041 49.928116 
L 307.224075 50.068469 
L 308.222108 50.216662 
L 309.220141 50.371777 
L 310.218174 50.532959 
L 311.216208 50.699425 
L 312.214241 50.870473 
L 313.212274 51.045482 
L 314.210308 51.223921 
L 315.208341 51.405349 
L 316.206374 51.589413 
L 317.204408 51.775852 
L 318.202441 51.964487 
L 319.200474 52.155225 
L 320.198507 52.348046 
L 321.196541 52.543001 
L 322.194574 52.740203 
L 323.192607 52.939816 
L 324.190641 53.142048 
L 325.188674 53.347141 
L 326.186707 53.555359 
L 327.184741 53.766976 
L 328.182774 53.982272 
L 329.180807 54.201514 
L 330.17884 54.424953 
L 331.176874 54.652811 
L 332.174907 54.885274 
L 332.174907 76.893057 
L 332.174907 76.893057 
L 331.176874 77.12552 
L 330.17884 77.353378 
L 329.180807 77.576817 
L 328.182774 77.796059 
L 327.184741 78.011355 
L 326.186707 78.222973 
L 325.188674 78.43119 
L 324.190641 78.636283 
L 323.192607 78.838515 
L 322.194574 79.038128 
L 321.196541 79.23533 
L 320.198507 79.430285 
L 319.200474 79.623106 
L 318.202441 79.813844 
L 317.204408 80.002479 
L 316.206374 80.188918 
L 315.208341 80.372982 
L 314.210308 80.55441 
L 313.212274 80.73285 
L 312.214241 80.907859 
L 311.216208 81.078906 
L 310.218174 81.245372 
L 309.220141 81.406554 
L 308.222108 81.561669 
L 307.224075 81.709862 
L 306.226041 81.850215 
L 305.228008 81.981755 
L 304.229975 82.103464 
L 303.231941 82.214291 
L 302.233908 82.313169 
L 301.235875 82.399021 
L 300.237841 82.470778 
L 299.239808 82.527393 
L 298.241775 82.567852 
L 297.243742 82.591193 
L 296.245708 82.596513 
L 295.247675 82.582986 
L 294.249642 82.549873 
L 293.251608 82.496533 
L 292.253575 82.422433 
L 291.255542 82.327157 
L 290.257508 82.210414 
L 289.259475 82.072042 
L 288.261442 81.912015 
L 287.263409 81.730443 
L 286.265375 81.527574 
L 285.267342 81.303794 
L 284.269309 81.059624 
L 283.271275 80.795719 
z
" style="fill:#1f77b4;fill-opacity:0.3;"/>
   </g>
   <g id="PolyCollection_2">
    <path clip-path="url(#p55612c6e19)" d="M 317.83667 133.007781 
L 317.83667 101.584996 
L 318.599564 101.380955 
L 319.362459 101.199981 
L 320.125353 101.042427 
L 320.888248 100.908491 
L 321.651142 100.798211 
L 322.414037 100.711472 
L 323.176931 100.648 
L 323.939826 100.607378 
L 324.702721 100.589041 
L 325.465615 100.592292 
L 326.22851 100.616309 
L 326.991404 100.660155 
L 327.754299 100.72279 
L 328.517193 100.803088 
L 329.280088 100.89985 
L 330.042983 101.011816 
L 330.805877 101.137685 
L 331.568772 101.276127 
L 332.331666 101.425805 
L 333.094561 101.585384 
L 333.857455 101.75355 
L 334.62035 101.929024 
L 335.383244 102.110578 
L 336.146139 102.297045 
L 336.909034 102.48733 
L 337.671928 102.680426 
L 338.434823 102.875416 
L 339.197717 103.071483 
L 339.960612 103.267918 
L 340.723506 103.46412 
L 341.486401 103.659599 
L 342.249296 103.853977 
L 343.01219 104.046988 
L 343.775085 104.23847 
L 344.537979 104.428366 
L 345.300874 104.616714 
L 346.063768 104.803642 
L 346.826663 104.989357 
L 347.589558 105.174138 
L 348.352452 105.358325 
L 349.115347 105.542304 
L 349.878241 105.726503 
L 350.641136 105.911373 
L 351.40403 106.097383 
L 352.166925 106.285002 
L 352.929819 106.474692 
L 353.692714 106.666899 
L 354.455609 106.862037 
L 355.218503 107.060484 
L 355.218503 127.532293 
L 355.218503 127.532293 
L 354.455609 127.73074 
L 353.692714 127.925878 
L 352.929819 128.118085 
L 352.166925 128.307776 
L 351.40403 128.495394 
L 350.641136 128.681404 
L 349.878241 128.866274 
L 349.115347 129.050473 
L 348.352452 129.234452 
L 347.589558 129.418639 
L 346.826663 129.60342 
L 346.063768 129.789135 
L 345.300874 129.976063 
L 344.537979 130.164411 
L 343.775085 130.354307 
L 343.01219 130.545789 
L 342.249296 130.7388 
L 341.486401 130.933178 
L 340.723506 131.128657 
L 339.960612 131.324859 
L 339.197717 131.521294 
L 338.434823 131.717361 
L 337.671928 131.912351 
L 336.909034 132.105447 
L 336.146139 132.295733 
L 335.383244 132.482199 
L 334.62035 132.663753 
L 333.857455 132.839228 
L 333.094561 133.007393 
L 332.331666 133.166972 
L 331.568772 133.31665 
L 330.805877 133.455092 
L 330.042983 133.580961 
L 329.280088 133.692927 
L 328.517193 133.789689 
L 327.754299 133.869987 
L 326.991404 133.932623 
L 326.22851 133.976468 
L 325.465615 134.000485 
L 324.702721 134.003736 
L 323.939826 133.985399 
L 323.176931 133.944777 
L 322.414037 133.881306 
L 321.651142 133.794566 
L 320.888248 133.684286 
L 320.125353 133.55035 
L 319.362459 133.392796 
L 318.599564 133.211822 
L 317.83667 133.007781 
z
" style="fill:#ff7f0e;fill-opacity:0.3;"/>
   </g>
   <g id="PolyCollection_3">
    <path clip-path="url(#p55612c6e19)" d="M 325.517868 183.556624 
L 325.517868 153.850599 
L 327.163839 153.583914 
L 328.809811 153.336688 
L 330.455782 153.109582 
L 332.101753 152.90313 
L 333.747724 152.717731 
L 335.393695 152.553652 
L 337.039666 152.41102 
L 338.685637 152.28983 
L 340.331609 152.189942 
L 341.97758 152.111089 
L 343.623551 152.05288 
L 345.269522 152.01481 
L 346.915493 151.996264 
L 348.561464 151.996532 
L 350.207435 152.014815 
L 351.853407 152.05024 
L 353.499378 152.101873 
L 355.145349 152.168728 
L 356.79132 152.249785 
L 358.437291 152.344002 
L 360.083262 152.450327 
L 361.729234 152.567715 
L 363.375205 152.695137 
L 365.021176 152.831598 
L 366.667147 152.976141 
L 368.313118 153.127864 
L 369.959089 153.285926 
L 371.60506 153.449557 
L 373.251032 153.618061 
L 374.897003 153.790828 
L 376.542974 153.967331 
L 378.188945 154.147129 
L 379.834916 154.329872 
L 381.480887 154.515295 
L 383.126858 154.703217 
L 384.77283 154.893538 
L 386.418801 155.086231 
L 388.064772 155.281339 
L 389.710743 155.478963 
L 391.356714 155.679256 
L 393.002685 155.882413 
L 394.648656 156.088661 
L 396.294628 156.298249 
L 397.940599 156.511439 
L 399.58657 156.72849 
L 401.232541 156.949655 
L 402.878512 157.175168 
L 404.524483 157.405234 
L 406.170455 157.640023 
L 406.170455 179.7672 
L 406.170455 179.7672 
L 404.524483 180.001988 
L 402.878512 180.232055 
L 401.232541 180.457568 
L 399.58657 180.678733 
L 397.940599 180.895784 
L 396.294628 181.108974 
L 394.648656 181.318562 
L 393.002685 181.52481 
L 391.356714 181.727967 
L 389.710743 181.92826 
L 388.064772 182.125884 
L 386.418801 182.320991 
L 384.77283 182.513685 
L 383.126858 182.704006 
L 381.480887 182.891928 
L 379.834916 183.077351 
L 378.188945 183.260094 
L 376.542974 183.439892 
L 374.897003 183.616395 
L 373.251032 183.789162 
L 371.60506 183.957666 
L 369.959089 184.121297 
L 368.313118 184.279359 
L 366.667147 184.431082 
L 365.021176 184.575625 
L 363.375205 184.712085 
L 361.729234 184.839508 
L 360.083262 184.956896 
L 358.437291 185.063221 
L 356.79132 185.157438 
L 355.145349 185.238495 
L 353.499378 185.30535 
L 351.853407 185.356983 
L 350.207435 185.392408 
L 348.561464 185.410691 
L 346.915493 185.410959 
L 345.269522 185.392413 
L 343.623551 185.354342 
L 341.97758 185.296134 
L 340.331609 185.217281 
L 338.685637 185.117393 
L 337.039666 184.996202 
L 335.393695 184.853571 
L 333.747724 184.689492 
L 332.101753 184.504093 
L 330.455782 184.297641 
L 328.809811 184.070535 
L 327.163839 183.823308 
L 325.517868 183.556624 
z
" style="fill:#2ca02c;fill-opacity:0.3;"/>
   </g>
   <g id="PolyCollection_4">
    <path clip-path="url(#p55612c6e19)" d="M 105.579545 230.563853 
L 105.579545 209.657816 
L 111.400535 209.448938 
L 117.221526 209.243694 
L 123.042516 209.041754 
L 128.863506 208.842747 
L 134.684496 208.646277 
L 140.505486 208.451929 
L 146.326476 208.259281 
L 152.147466 208.067915 
L 157.968456 207.877427 
L 163.789446 207.687442 
L 169.610436 207.497621 
L 175.431426 207.307677 
L 181.252416 207.117381 
L 187.073406 206.926577 
L 192.894396 206.735187 
L 198.715386 206.543222 
L 204.536376 206.350786 
L 210.357366 206.158086 
L 216.178356 205.965431 
L 221.999346 205.77324 
L 227.820336 205.582035 
L 233.641326 205.392449 
L 239.462316 205.205217 
L 245.283306 205.021174 
L 251.104296 204.841248 
L 256.925286 204.666452 
L 262.746276 204.497875 
L 268.567266 204.336671 
L 274.388256 204.184047 
L 280.209246 204.04125 
L 286.030237 203.909551 
L 291.851227 203.790232 
L 297.672217 203.684571 
L 303.493207 203.593823 
L 309.314197 203.519209 
L 315.135187 203.461895 
L 320.956177 203.422981 
L 326.777167 203.403487 
L 332.598157 203.404334 
L 338.419147 203.426337 
L 344.240137 203.470191 
L 350.061127 203.536462 
L 355.882117 203.625578 
L 361.703107 203.737821 
L 367.524097 203.873325 
L 373.345087 204.032071 
L 379.166077 204.213884 
L 384.987067 204.418437 
L 390.808057 204.645251 
L 390.808057 235.576418 
L 390.808057 235.576418 
L 384.987067 235.803231 
L 379.166077 236.007785 
L 373.345087 236.189598 
L 367.524097 236.348344 
L 361.703107 236.483848 
L 355.882117 236.596091 
L 350.061127 236.685207 
L 344.240137 236.751478 
L 338.419147 236.795332 
L 332.598157 236.817335 
L 326.777167 236.818182 
L 320.956177 236.798687 
L 315.135187 236.759774 
L 309.314197 236.70246 
L 303.493207 236.627846 
L 297.672217 236.537098 
L 291.851227 236.431437 
L 286.030237 236.312118 
L 280.209246 236.180419 
L 274.388256 236.037622 
L 268.567266 235.884998 
L 262.746276 235.723794 
L 256.925286 235.555217 
L 251.104296 235.380421 
L 245.283306 235.200494 
L 239.462316 235.016451 
L 233.641326 234.82922 
L 227.820336 234.639634 
L 221.999346 234.448429 
L 216.178356 234.256237 
L 210.357366 234.063583 
L 204.536376 233.870883 
L 198.715386 233.678447 
L 192.894396 233.486481 
L 187.073406 233.295092 
L 181.252416 233.104288 
L 175.431426 232.913992 
L 169.610436 232.724048 
L 163.789446 232.534227 
L 157.968456 232.344242 
L 152.147466 232.153754 
L 146.326476 231.962388 
L 140.505486 231.76974 
L 134.684496 231.575392 
L 128.863506 231.378922 
L 123.042516 231.179915 
L 117.221526 230.977974 
L 111.400535 230.772731 
L 105.579545 230.563853 
z
" style="fill:#d62728;fill-opacity:0.3;"/>
   </g>
   <g id="matplotlib.axis_1">
    <g id="xtick_1">
     <g id="line2d_1">
      <defs>
       <path d="M 0 0 
L 0 3.5 
" id="m700cee17ea" style="stroke:#000000;stroke-width:0.8;"/>
      </defs>
      <g>
       <use style="stroke:#000000;stroke-width:0.8;" x="122.606203" xlink:href="#m700cee17ea" y="246.2"/>
      </g>
     </g>
     <g id="text_1">
      <!-- −30 -->
      <g transform="translate(112.053859 260.798437)scale(0.1 -0.1)">
       <defs>
        <path d="M 10.59375 35.5 
L 73.1875 35.5 
L 73.1875 27.203125 
L 10.59375 27.203125 
z
" id="DejaVuSans-8722"/>
        <path d="M 40.578125 39.3125 
Q 47.65625 37.796875 51.625 33 
Q 55.609375 28.21875 55.609375 21.1875 
Q 55.609375 10.40625 48.1875 4.484375 
Q 40.765625 -1.421875 27.09375 -1.421875 
Q 22.515625 -1.421875 17.65625 -0.515625 
Q 12.796875 0.390625 7.625 2.203125 
L 7.625 11.71875 
Q 11.71875 9.328125 16.59375 8.109375 
Q 21.484375 6.890625 26.8125 6.890625 
Q 36.078125 6.890625 40.9375 10.546875 
Q 45.796875 14.203125 45.796875 21.1875 
Q 45.796875 27.640625 41.28125 31.265625 
Q 36.765625 34.90625 28.71875 34.90625 
L 20.21875 34.90625 
L 20.21875 43.015625 
L 29.109375 43.015625 
Q 36.375 43.015625 40.234375 45.921875 
Q 44.09375 48.828125 44.09375 54.296875 
Q 44.09375 59.90625 40.109375 62.90625 
Q 36.140625 65.921875 28.71875 65.921875 
Q 24.65625 65.921875 20.015625 65.03125 
Q 15.375 64.15625 9.8125 62.3125 
L 9.8125 71.09375 
Q 15.4375 72.65625 20.34375 73.4375 
Q 25.25 74.21875 29.59375 74.21875 
Q 40.828125 74.21875 47.359375 69.109375 
Q 53.90625 64.015625 53.90625 55.328125 
Q 53.90625 49.265625 50.4375 45.09375 
Q 46.96875 40.921875 40.578125 39.3125 
z
" id="DejaVuSans-51"/>
        <path d="M 31.78125 66.40625 
Q 24.171875 66.40625 20.328125 58.90625 
Q 16.5 51.421875 16.5 36.375 
Q 16.5 21.390625 20.328125 13.890625 
Q 24.171875 6.390625 31.78125 6.390625 
Q 39.453125 6.390625 43.28125 13.890625 
Q 47.125 21.390625 47.125 36.375 
Q 47.125 51.421875 43.28125 58.90625 
Q 39.453125 66.40625 31.78125 66.40625 
z
M 31.78125 74.21875 
Q 44.046875 74.21875 50.515625 64.515625 
Q 56.984375 54.828125 56.984375 36.375 
Q 56.984375 17.96875 50.515625 8.265625 
Q 44.046875 -1.421875 31.78125 -1.421875 
Q 19.53125 -1.421875 13.0625 8.265625 
Q 6.59375 17.96875 6.59375 36.375 
Q 6.59375 54.828125 13.0625 64.515625 
Q 19.53125 74.21875 31.78125 74.21875 
z
" id="DejaVuSans-48"/>
       </defs>
       <use xlink:href="#DejaVuSans-8722"/>
       <use x="83.789062" xlink:href="#DejaVuSans-51"/>
       <use x="147.412109" xlink:href="#DejaVuSans-48"/>
      </g>
     </g>
    </g>
    <g id="xtick_2">
     <g id="line2d_2">
      <g>
       <use style="stroke:#000000;stroke-width:0.8;" x="161.012196" xlink:href="#m700cee17ea" y="246.2"/>
      </g>
     </g>
     <g id="text_2">
      <!-- −25 -->
      <g transform="translate(150.459852 260.798437)scale(0.1 -0.1)">
       <defs>
        <path d="M 19.1875 8.296875 
L 53.609375 8.296875 
L 53.609375 0 
L 7.328125 0 
L 7.328125 8.296875 
Q 12.9375 14.109375 22.625 23.890625 
Q 32.328125 33.6875 34.8125 36.53125 
Q 39.546875 41.84375 41.421875 45.53125 
Q 43.3125 49.21875 43.3125 52.78125 
Q 43.3125 58.59375 39.234375 62.25 
Q 35.15625 65.921875 28.609375 65.921875 
Q 23.96875 65.921875 18.8125 64.3125 
Q 13.671875 62.703125 7.8125 59.421875 
L 7.8125 69.390625 
Q 13.765625 71.78125 18.9375 73 
Q 24.125 74.21875 28.421875 74.21875 
Q 39.75 74.21875 46.484375 68.546875 
Q 53.21875 62.890625 53.21875 53.421875 
Q 53.21875 48.921875 51.53125 44.890625 
Q 49.859375 40.875 45.40625 35.40625 
Q 44.1875 33.984375 37.640625 27.21875 
Q 31.109375 20.453125 19.1875 8.296875 
z
" id="DejaVuSans-50"/>
        <path d="M 10.796875 72.90625 
L 49.515625 72.90625 
L 49.515625 64.59375 
L 19.828125 64.59375 
L 19.828125 46.734375 
Q 21.96875 47.46875 24.109375 47.828125 
Q 26.265625 48.1875 28.421875 48.1875 
Q 40.625 48.1875 47.75 41.5 
Q 54.890625 34.8125 54.890625 23.390625 
Q 54.890625 11.625 47.5625 5.09375 
Q 40.234375 -1.421875 26.90625 -1.421875 
Q 22.3125 -1.421875 17.546875 -0.640625 
Q 12.796875 0.140625 7.71875 1.703125 
L 7.71875 11.625 
Q 12.109375 9.234375 16.796875 8.0625 
Q 21.484375 6.890625 26.703125 6.890625 
Q 35.15625 6.890625 40.078125 11.328125 
Q 45.015625 15.765625 45.015625 23.390625 
Q 45.015625 31 40.078125 35.4375 
Q 35.15625 39.890625 26.703125 39.890625 
Q 22.75 39.890625 18.8125 39.015625 
Q 14.890625 38.140625 10.796875 36.28125 
z
" id="DejaVuSans-53"/>
       </defs>
       <use xlink:href="#DejaVuSans-8722"/>
       <use x="83.789062" xlink:href="#DejaVuSans-50"/>
       <use x="147.412109" xlink:href="#DejaVuSans-53"/>
      </g>
     </g>
    </g>
    <g id="xtick_3">
     <g id="line2d_3">
      <g>
       <use style="stroke:#000000;stroke-width:0.8;" x="199.41819" xlink:href="#m700cee17ea" y="246.2"/>
      </g>
     </g>
     <g id="text_3">
      <!-- −20 -->
      <g transform="translate(188.865846 260.798437)scale(0.1 -0.1)">
       <use xlink:href="#DejaVuSans-8722"/>
       <use x="83.789062" xlink:href="#DejaVuSans-50"/>
       <use x="147.412109" xlink:href="#DejaVuSans-48"/>
      </g>
     </g>
    </g>
    <g id="xtick_4">
     <g id="line2d_4">
      <g>
       <use style="stroke:#000000;stroke-width:0.8;" x="237.824183" xlink:href="#m700cee17ea" y="246.2"/>
      </g>
     </g>
     <g id="text_4">
      <!-- −15 -->
      <g transform="translate(227.271839 260.798437)scale(0.1 -0.1)">
       <defs>
        <path d="M 12.40625 8.296875 
L 28.515625 8.296875 
L 28.515625 63.921875 
L 10.984375 60.40625 
L 10.984375 69.390625 
L 28.421875 72.90625 
L 38.28125 72.90625 
L 38.28125 8.296875 
L 54.390625 8.296875 
L 54.390625 0 
L 12.40625 0 
z
" id="DejaVuSans-49"/>
       </defs>
       <use xlink:href="#DejaVuSans-8722"/>
       <use x="83.789062" xlink:href="#DejaVuSans-49"/>
       <use x="147.412109" xlink:href="#DejaVuSans-53"/>
      </g>
     </g>
    </g>
    <g id="xtick_5">
     <g id="line2d_5">
      <g>
       <use style="stroke:#000000;stroke-width:0.8;" x="276.230177" xlink:href="#m700cee17ea" y="246.2"/>
      </g>
     </g>
     <g id="text_5">
      <!-- −10 -->
      <g transform="translate(265.677833 260.798437)scale(0.1 -0.1)">
       <use xlink:href="#DejaVuSans-8722"/>
       <use x="83.789062" xlink:href="#DejaVuSans-49"/>
       <use x="147.412109" xlink:href="#DejaVuSans-48"/>
      </g>
     </g>
    </g>
    <g id="xtick_6">
     <g id="line2d_6">
      <g>
       <use style="stroke:#000000;stroke-width:0.8;" x="314.63617" xlink:href="#m700cee17ea" y="246.2"/>
      </g>
     </g>
     <g id="text_6">
      <!-- −5 -->
      <g transform="translate(307.265076 260.798437)scale(0.1 -0.1)">
       <use xlink:href="#DejaVuSans-8722"/>
       <use x="83.789062" xlink:href="#DejaVuSans-53"/>
      </g>
     </g>
    </g>
    <g id="xtick_7">
     <g id="line2d_7">
      <g>
       <use style="stroke:#000000;stroke-width:0.8;" x="353.042164" xlink:href="#m700cee17ea" y="246.2"/>
      </g>
     </g>
     <g id="text_7">
      <!-- 0 -->
      <g transform="translate(349.860914 260.798437)scale(0.1 -0.1)">
       <use xlink:href="#DejaVuSans-48"/>
      </g>
     </g>
    </g>
    <g id="xtick_8">
     <g id="line2d_8">
      <g>
       <use style="stroke:#000000;stroke-width:0.8;" x="391.448157" xlink:href="#m700cee17ea" y="246.2"/>
      </g>
     </g>
     <g id="text_8">
      <!-- 5 -->
      <g transform="translate(388.266907 260.798437)scale(0.1 -0.1)">
       <use xlink:href="#DejaVuSans-53"/>
      </g>
     </g>
    </g>
    <g id="xtick_9">
     <g id="line2d_9">
      <defs>
       <path d="M 0 0 
L 0 2 
" id="m40935c7e68" style="stroke:#000000;stroke-width:0.6;"/>
      </defs>
      <g>
       <use style="stroke:#000000;stroke-width:0.6;" x="91.881408" xlink:href="#m40935c7e68" y="246.2"/>
      </g>
     </g>
    </g>
    <g id="xtick_10">
     <g id="line2d_10">
      <g>
       <use style="stroke:#000000;stroke-width:0.6;" x="99.562606" xlink:href="#m40935c7e68" y="246.2"/>
      </g>
     </g>
    </g>
    <g id="xtick_11">
     <g id="line2d_11">
      <g>
       <use style="stroke:#000000;stroke-width:0.6;" x="107.243805" xlink:href="#m40935c7e68" y="246.2"/>
      </g>
     </g>
    </g>
    <g id="xtick_12">
     <g id="line2d_12">
      <g>
       <use style="stroke:#000000;stroke-width:0.6;" x="114.925004" xlink:href="#m40935c7e68" y="246.2"/>
      </g>
     </g>
    </g>
    <g id="xtick_13">
     <g id="line2d_13">
      <g>
       <use style="stroke:#000000;stroke-width:0.6;" x="130.287401" xlink:href="#m40935c7e68" y="246.2"/>
      </g>
     </g>
    </g>
    <g id="xtick_14">
     <g id="line2d_14">
      <g>
       <use style="stroke:#000000;stroke-width:0.6;" x="137.9686" xlink:href="#m40935c7e68" y="246.2"/>
      </g>
     </g>
    </g>
    <g id="xtick_15">
     <g id="line2d_15">
      <g>
       <use style="stroke:#000000;stroke-width:0.6;" x="145.649799" xlink:href="#m40935c7e68" y="246.2"/>
      </g>
     </g>
    </g>
    <g id="xtick_16">
     <g id="line2d_16">
      <g>
       <use style="stroke:#000000;stroke-width:0.6;" x="153.330997" xlink:href="#m40935c7e68" y="246.2"/>
      </g>
     </g>
    </g>
    <g id="xtick_17">
     <g id="line2d_17">
      <g>
       <use style="stroke:#000000;stroke-width:0.6;" x="168.693395" xlink:href="#m40935c7e68" y="246.2"/>
      </g>
     </g>
    </g>
    <g id="xtick_18">
     <g id="line2d_18">
      <g>
       <use style="stroke:#000000;stroke-width:0.6;" x="176.374593" xlink:href="#m40935c7e68" y="246.2"/>
      </g>
     </g>
    </g>
    <g id="xtick_19">
     <g id="line2d_19">
      <g>
       <use style="stroke:#000000;stroke-width:0.6;" x="184.055792" xlink:href="#m40935c7e68" y="246.2"/>
      </g>
     </g>
    </g>
    <g id="xtick_20">
     <g id="line2d_20">
      <g>
       <use style="stroke:#000000;stroke-width:0.6;" x="191.736991" xlink:href="#m40935c7e68" y="246.2"/>
      </g>
     </g>
    </g>
    <g id="xtick_21">
     <g id="line2d_21">
      <g>
       <use style="stroke:#000000;stroke-width:0.6;" x="207.099388" xlink:href="#m40935c7e68" y="246.2"/>
      </g>
     </g>
    </g>
    <g id="xtick_22">
     <g id="line2d_22">
      <g>
       <use style="stroke:#000000;stroke-width:0.6;" x="214.780587" xlink:href="#m40935c7e68" y="246.2"/>
      </g>
     </g>
    </g>
    <g id="xtick_23">
     <g id="line2d_23">
      <g>
       <use style="stroke:#000000;stroke-width:0.6;" x="222.461786" xlink:href="#m40935c7e68" y="246.2"/>
      </g>
     </g>
    </g>
    <g id="xtick_24">
     <g id="line2d_24">
      <g>
       <use style="stroke:#000000;stroke-width:0.6;" x="230.142984" xlink:href="#m40935c7e68" y="246.2"/>
      </g>
     </g>
    </g>
    <g id="xtick_25">
     <g id="line2d_25">
      <g>
       <use style="stroke:#000000;stroke-width:0.6;" x="245.505382" xlink:href="#m40935c7e68" y="246.2"/>
      </g>
     </g>
    </g>
    <g id="xtick_26">
     <g id="line2d_26">
      <g>
       <use style="stroke:#000000;stroke-width:0.6;" x="253.18658" xlink:href="#m40935c7e68" y="246.2"/>
      </g>
     </g>
    </g>
    <g id="xtick_27">
     <g id="line2d_27">
      <g>
       <use style="stroke:#000000;stroke-width:0.6;" x="260.867779" xlink:href="#m40935c7e68" y="246.2"/>
      </g>
     </g>
    </g>
    <g id="xtick_28">
     <g id="line2d_28">
      <g>
       <use style="stroke:#000000;stroke-width:0.6;" x="268.548978" xlink:href="#m40935c7e68" y="246.2"/>
      </g>
     </g>
    </g>
    <g id="xtick_29">
     <g id="line2d_29">
      <g>
       <use style="stroke:#000000;stroke-width:0.6;" x="283.911375" xlink:href="#m40935c7e68" y="246.2"/>
      </g>
     </g>
    </g>
    <g id="xtick_30">
     <g id="line2d_30">
      <g>
       <use style="stroke:#000000;stroke-width:0.6;" x="291.592574" xlink:href="#m40935c7e68" y="246.2"/>
      </g>
     </g>
    </g>
    <g id="xtick_31">
     <g id="line2d_31">
      <g>
       <use style="stroke:#000000;stroke-width:0.6;" x="299.273773" xlink:href="#m40935c7e68" y="246.2"/>
      </g>
     </g>
    </g>
    <g id="xtick_32">
     <g id="line2d_32">
      <g>
       <use style="stroke:#000000;stroke-width:0.6;" x="306.954971" xlink:href="#m40935c7e68" y="246.2"/>
      </g>
     </g>
    </g>
    <g id="xtick_33">
     <g id="line2d_33">
      <g>
       <use style="stroke:#000000;stroke-width:0.6;" x="322.317369" xlink:href="#m40935c7e68" y="246.2"/>
      </g>
     </g>
    </g>
    <g id="xtick_34">
     <g id="line2d_34">
      <g>
       <use style="stroke:#000000;stroke-width:0.6;" x="329.998567" xlink:href="#m40935c7e68" y="246.2"/>
      </g>
     </g>
    </g>
    <g id="xtick_35">
     <g id="line2d_35">
      <g>
       <use style="stroke:#000000;stroke-width:0.6;" x="337.679766" xlink:href="#m40935c7e68" y="246.2"/>
      </g>
     </g>
    </g>
    <g id="xtick_36">
     <g id="line2d_36">
      <g>
       <use style="stroke:#000000;stroke-width:0.6;" x="345.360965" xlink:href="#m40935c7e68" y="246.2"/>
      </g>
     </g>
    </g>
    <g id="xtick_37">
     <g id="line2d_37">
      <g>
       <use style="stroke:#000000;stroke-width:0.6;" x="360.723362" xlink:href="#m40935c7e68" y="246.2"/>
      </g>
     </g>
    </g>
    <g id="xtick_38">
     <g id="line2d_38">
      <g>
       <use style="stroke:#000000;stroke-width:0.6;" x="368.404561" xlink:href="#m40935c7e68" y="246.2"/>
      </g>
     </g>
    </g>
    <g id="xtick_39">
     <g id="line2d_39">
      <g>
       <use style="stroke:#000000;stroke-width:0.6;" x="376.08576" xlink:href="#m40935c7e68" y="246.2"/>
      </g>
     </g>
    </g>
    <g id="xtick_40">
     <g id="line2d_40">
      <g>
       <use style="stroke:#000000;stroke-width:0.6;" x="383.766958" xlink:href="#m40935c7e68" y="246.2"/>
      </g>
     </g>
    </g>
    <g id="xtick_41">
     <g id="line2d_41">
      <g>
       <use style="stroke:#000000;stroke-width:0.6;" x="399.129356" xlink:href="#m40935c7e68" y="246.2"/>
      </g>
     </g>
    </g>
    <g id="xtick_42">
     <g id="line2d_42">
      <g>
       <use style="stroke:#000000;stroke-width:0.6;" x="406.810554" xlink:href="#m40935c7e68" y="246.2"/>
      </g>
     </g>
    </g>
    <g id="xtick_43">
     <g id="line2d_43">
      <g>
       <use style="stroke:#000000;stroke-width:0.6;" x="414.491753" xlink:href="#m40935c7e68" y="246.2"/>
      </g>
     </g>
    </g>
    <g id="text_9">
     <!-- Time Estimation Error (min) -->
     <g transform="translate(186.734375 274.476562)scale(0.1 -0.1)">
      <defs>
       <path d="M -0.296875 72.90625 
L 61.375 72.90625 
L 61.375 64.59375 
L 35.5 64.59375 
L 35.5 0 
L 25.59375 0 
L 25.59375 64.59375 
L -0.296875 64.59375 
z
" id="DejaVuSans-84"/>
       <path d="M 9.421875 54.6875 
L 18.40625 54.6875 
L 18.40625 0 
L 9.421875 0 
z
M 9.421875 75.984375 
L 18.40625 75.984375 
L 18.40625 64.59375 
L 9.421875 64.59375 
z
" id="DejaVuSans-105"/>
       <path d="M 52 44.1875 
Q 55.375 50.25 60.0625 53.125 
Q 64.75 56 71.09375 56 
Q 79.640625 56 84.28125 50.015625 
Q 88.921875 44.046875 88.921875 33.015625 
L 88.921875 0 
L 79.890625 0 
L 79.890625 32.71875 
Q 79.890625 40.578125 77.09375 44.375 
Q 74.3125 48.1875 68.609375 48.1875 
Q 61.625 48.1875 57.5625 43.546875 
Q 53.515625 38.921875 53.515625 30.90625 
L 53.515625 0 
L 44.484375 0 
L 44.484375 32.71875 
Q 44.484375 40.625 41.703125 44.40625 
Q 38.921875 48.1875 33.109375 48.1875 
Q 26.21875 48.1875 22.15625 43.53125 
Q 18.109375 38.875 18.109375 30.90625 
L 18.109375 0 
L 9.078125 0 
L 9.078125 54.6875 
L 18.109375 54.6875 
L 18.109375 46.1875 
Q 21.1875 51.21875 25.484375 53.609375 
Q 29.78125 56 35.6875 56 
Q 41.65625 56 45.828125 52.96875 
Q 50 49.953125 52 44.1875 
z
" id="DejaVuSans-109"/>
       <path d="M 56.203125 29.59375 
L 56.203125 25.203125 
L 14.890625 25.203125 
Q 15.484375 15.921875 20.484375 11.0625 
Q 25.484375 6.203125 34.421875 6.203125 
Q 39.59375 6.203125 44.453125 7.46875 
Q 49.3125 8.734375 54.109375 11.28125 
L 54.109375 2.78125 
Q 49.265625 0.734375 44.1875 -0.34375 
Q 39.109375 -1.421875 33.890625 -1.421875 
Q 20.796875 -1.421875 13.15625 6.1875 
Q 5.515625 13.8125 5.515625 26.8125 
Q 5.515625 40.234375 12.765625 48.109375 
Q 20.015625 56 32.328125 56 
Q 43.359375 56 49.78125 48.890625 
Q 56.203125 41.796875 56.203125 29.59375 
z
M 47.21875 32.234375 
Q 47.125 39.59375 43.09375 43.984375 
Q 39.0625 48.390625 32.421875 48.390625 
Q 24.90625 48.390625 20.390625 44.140625 
Q 15.875 39.890625 15.1875 32.171875 
z
" id="DejaVuSans-101"/>
       <path id="DejaVuSans-32"/>
       <path d="M 9.8125 72.90625 
L 55.90625 72.90625 
L 55.90625 64.59375 
L 19.671875 64.59375 
L 19.671875 43.015625 
L 54.390625 43.015625 
L 54.390625 34.71875 
L 19.671875 34.71875 
L 19.671875 8.296875 
L 56.78125 8.296875 
L 56.78125 0 
L 9.8125 0 
z
" id="DejaVuSans-69"/>
       <path d="M 44.28125 53.078125 
L 44.28125 44.578125 
Q 40.484375 46.53125 36.375 47.5 
Q 32.28125 48.484375 27.875 48.484375 
Q 21.1875 48.484375 17.84375 46.4375 
Q 14.5 44.390625 14.5 40.28125 
Q 14.5 37.15625 16.890625 35.375 
Q 19.28125 33.59375 26.515625 31.984375 
L 29.59375 31.296875 
Q 39.15625 29.25 43.1875 25.515625 
Q 47.21875 21.78125 47.21875 15.09375 
Q 47.21875 7.46875 41.1875 3.015625 
Q 35.15625 -1.421875 24.609375 -1.421875 
Q 20.21875 -1.421875 15.453125 -0.5625 
Q 10.6875 0.296875 5.421875 2 
L 5.421875 11.28125 
Q 10.40625 8.6875 15.234375 7.390625 
Q 20.0625 6.109375 24.8125 6.109375 
Q 31.15625 6.109375 34.5625 8.28125 
Q 37.984375 10.453125 37.984375 14.40625 
Q 37.984375 18.0625 35.515625 20.015625 
Q 33.0625 21.96875 24.703125 23.78125 
L 21.578125 24.515625 
Q 13.234375 26.265625 9.515625 29.90625 
Q 5.8125 33.546875 5.8125 39.890625 
Q 5.8125 47.609375 11.28125 51.796875 
Q 16.75 56 26.8125 56 
Q 31.78125 56 36.171875 55.265625 
Q 40.578125 54.546875 44.28125 53.078125 
z
" id="DejaVuSans-115"/>
       <path d="M 18.3125 70.21875 
L 18.3125 54.6875 
L 36.8125 54.6875 
L 36.8125 47.703125 
L 18.3125 47.703125 
L 18.3125 18.015625 
Q 18.3125 11.328125 20.140625 9.421875 
Q 21.96875 7.515625 27.59375 7.515625 
L 36.8125 7.515625 
L 36.8125 0 
L 27.59375 0 
Q 17.1875 0 13.234375 3.875 
Q 9.28125 7.765625 9.28125 18.015625 
L 9.28125 47.703125 
L 2.6875 47.703125 
L 2.6875 54.6875 
L 9.28125 54.6875 
L 9.28125 70.21875 
z
" id="DejaVuSans-116"/>
       <path d="M 34.28125 27.484375 
Q 23.390625 27.484375 19.1875 25 
Q 14.984375 22.515625 14.984375 16.5 
Q 14.984375 11.71875 18.140625 8.90625 
Q 21.296875 6.109375 26.703125 6.109375 
Q 34.1875 6.109375 38.703125 11.40625 
Q 43.21875 16.703125 43.21875 25.484375 
L 43.21875 27.484375 
z
M 52.203125 31.203125 
L 52.203125 0 
L 43.21875 0 
L 43.21875 8.296875 
Q 40.140625 3.328125 35.546875 0.953125 
Q 30.953125 -1.421875 24.3125 -1.421875 
Q 15.921875 -1.421875 10.953125 3.296875 
Q 6 8.015625 6 15.921875 
Q 6 25.140625 12.171875 29.828125 
Q 18.359375 34.515625 30.609375 34.515625 
L 43.21875 34.515625 
L 43.21875 35.40625 
Q 43.21875 41.609375 39.140625 45 
Q 35.0625 48.390625 27.6875 48.390625 
Q 23 48.390625 18.546875 47.265625 
Q 14.109375 46.140625 10.015625 43.890625 
L 10.015625 52.203125 
Q 14.9375 54.109375 19.578125 55.046875 
Q 24.21875 56 28.609375 56 
Q 40.484375 56 46.34375 49.84375 
Q 52.203125 43.703125 52.203125 31.203125 
z
" id="DejaVuSans-97"/>
       <path d="M 30.609375 48.390625 
Q 23.390625 48.390625 19.1875 42.75 
Q 14.984375 37.109375 14.984375 27.296875 
Q 14.984375 17.484375 19.15625 11.84375 
Q 23.34375 6.203125 30.609375 6.203125 
Q 37.796875 6.203125 41.984375 11.859375 
Q 46.1875 17.53125 46.1875 27.296875 
Q 46.1875 37.015625 41.984375 42.703125 
Q 37.796875 48.390625 30.609375 48.390625 
z
M 30.609375 56 
Q 42.328125 56 49.015625 48.375 
Q 55.71875 40.765625 55.71875 27.296875 
Q 55.71875 13.875 49.015625 6.21875 
Q 42.328125 -1.421875 30.609375 -1.421875 
Q 18.84375 -1.421875 12.171875 6.21875 
Q 5.515625 13.875 5.515625 27.296875 
Q 5.515625 40.765625 12.171875 48.375 
Q 18.84375 56 30.609375 56 
z
" id="DejaVuSans-111"/>
       <path d="M 54.890625 33.015625 
L 54.890625 0 
L 45.90625 0 
L 45.90625 32.71875 
Q 45.90625 40.484375 42.875 44.328125 
Q 39.84375 48.1875 33.796875 48.1875 
Q 26.515625 48.1875 22.3125 43.546875 
Q 18.109375 38.921875 18.109375 30.90625 
L 18.109375 0 
L 9.078125 0 
L 9.078125 54.6875 
L 18.109375 54.6875 
L 18.109375 46.1875 
Q 21.34375 51.125 25.703125 53.5625 
Q 30.078125 56 35.796875 56 
Q 45.21875 56 50.046875 50.171875 
Q 54.890625 44.34375 54.890625 33.015625 
z
" id="DejaVuSans-110"/>
       <path d="M 41.109375 46.296875 
Q 39.59375 47.171875 37.8125 47.578125 
Q 36.03125 48 33.890625 48 
Q 26.265625 48 22.1875 43.046875 
Q 18.109375 38.09375 18.109375 28.8125 
L 18.109375 0 
L 9.078125 0 
L 9.078125 54.6875 
L 18.109375 54.6875 
L 18.109375 46.1875 
Q 20.953125 51.171875 25.484375 53.578125 
Q 30.03125 56 36.53125 56 
Q 37.453125 56 38.578125 55.875 
Q 39.703125 55.765625 41.0625 55.515625 
z
" id="DejaVuSans-114"/>
       <path d="M 31 75.875 
Q 24.46875 64.65625 21.28125 53.65625 
Q 18.109375 42.671875 18.109375 31.390625 
Q 18.109375 20.125 21.3125 9.0625 
Q 24.515625 -2 31 -13.1875 
L 23.1875 -13.1875 
Q 15.875 -1.703125 12.234375 9.375 
Q 8.59375 20.453125 8.59375 31.390625 
Q 8.59375 42.28125 12.203125 53.3125 
Q 15.828125 64.359375 23.1875 75.875 
z
" id="DejaVuSans-40"/>
       <path d="M 8.015625 75.875 
L 15.828125 75.875 
Q 23.140625 64.359375 26.78125 53.3125 
Q 30.421875 42.28125 30.421875 31.390625 
Q 30.421875 20.453125 26.78125 9.375 
Q 23.140625 -1.703125 15.828125 -13.1875 
L 8.015625 -13.1875 
Q 14.5 -2 17.703125 9.0625 
Q 20.90625 20.125 20.90625 31.390625 
Q 20.90625 42.671875 17.703125 53.65625 
Q 14.5 64.65625 8.015625 75.875 
z
" id="DejaVuSans-41"/>
      </defs>
      <use xlink:href="#DejaVuSans-84"/>
      <use x="57.958984" xlink:href="#DejaVuSans-105"/>
      <use x="85.742188" xlink:href="#DejaVuSans-109"/>
      <use x="183.154297" xlink:href="#DejaVuSans-101"/>
      <use x="244.677734" xlink:href="#DejaVuSans-32"/>
      <use x="276.464844" xlink:href="#DejaVuSans-69"/>
      <use x="339.648438" xlink:href="#DejaVuSans-115"/>
      <use x="391.748047" xlink:href="#DejaVuSans-116"/>
      <use x="430.957031" xlink:href="#DejaVuSans-105"/>
      <use x="458.740234" xlink:href="#DejaVuSans-109"/>
      <use x="556.152344" xlink:href="#DejaVuSans-97"/>
      <use x="617.431641" xlink:href="#DejaVuSans-116"/>
      <use x="656.640625" xlink:href="#DejaVuSans-105"/>
      <use x="684.423828" xlink:href="#DejaVuSans-111"/>
      <use x="745.605469" xlink:href="#DejaVuSans-110"/>
      <use x="808.984375" xlink:href="#DejaVuSans-32"/>
      <use x="840.771484" xlink:href="#DejaVuSans-69"/>
      <use x="903.955078" xlink:href="#DejaVuSans-114"/>
      <use x="943.318359" xlink:href="#DejaVuSans-114"/>
      <use x="982.181641" xlink:href="#DejaVuSans-111"/>
      <use x="1043.363281" xlink:href="#DejaVuSans-114"/>
      <use x="1084.476562" xlink:href="#DejaVuSans-32"/>
      <use x="1116.263672" xlink:href="#DejaVuSans-40"/>
      <use x="1155.277344" xlink:href="#DejaVuSans-109"/>
      <use x="1252.689453" xlink:href="#DejaVuSans-105"/>
      <use x="1280.472656" xlink:href="#DejaVuSans-110"/>
      <use x="1343.851562" xlink:href="#DejaVuSans-41"/>
     </g>
    </g>
   </g>
   <g id="matplotlib.axis_2">
    <g id="ytick_1">
     <g id="line2d_44">
      <defs>
       <path d="M 0 0 
L -3.5 0 
" id="m3c87c87904" style="stroke:#000000;stroke-width:0.8;"/>
      </defs>
      <g>
       <use style="stroke:#000000;stroke-width:0.8;" x="90.55" xlink:href="#m3c87c87904" y="65.889166"/>
      </g>
     </g>
     <g id="text_10">
      <!-- BUFAR -->
      <g transform="translate(50.742187 69.688384)scale(0.1 -0.1)">
       <defs>
        <path d="M 19.671875 34.8125 
L 19.671875 8.109375 
L 35.5 8.109375 
Q 43.453125 8.109375 47.28125 11.40625 
Q 51.125 14.703125 51.125 21.484375 
Q 51.125 28.328125 47.28125 31.5625 
Q 43.453125 34.8125 35.5 34.8125 
z
M 19.671875 64.796875 
L 19.671875 42.828125 
L 34.28125 42.828125 
Q 41.5 42.828125 45.03125 45.53125 
Q 48.578125 48.25 48.578125 53.8125 
Q 48.578125 59.328125 45.03125 62.0625 
Q 41.5 64.796875 34.28125 64.796875 
z
M 9.8125 72.90625 
L 35.015625 72.90625 
Q 46.296875 72.90625 52.390625 68.21875 
Q 58.5 63.53125 58.5 54.890625 
Q 58.5 48.1875 55.375 44.234375 
Q 52.25 40.28125 46.1875 39.3125 
Q 53.46875 37.75 57.5 32.78125 
Q 61.53125 27.828125 61.53125 20.40625 
Q 61.53125 10.640625 54.890625 5.3125 
Q 48.25 0 35.984375 0 
L 9.8125 0 
z
" id="DejaVuSans-66"/>
        <path d="M 8.6875 72.90625 
L 18.609375 72.90625 
L 18.609375 28.609375 
Q 18.609375 16.890625 22.84375 11.734375 
Q 27.09375 6.59375 36.625 6.59375 
Q 46.09375 6.59375 50.34375 11.734375 
Q 54.59375 16.890625 54.59375 28.609375 
L 54.59375 72.90625 
L 64.5 72.90625 
L 64.5 27.390625 
Q 64.5 13.140625 57.4375 5.859375 
Q 50.390625 -1.421875 36.625 -1.421875 
Q 22.796875 -1.421875 15.734375 5.859375 
Q 8.6875 13.140625 8.6875 27.390625 
z
" id="DejaVuSans-85"/>
        <path d="M 9.8125 72.90625 
L 51.703125 72.90625 
L 51.703125 64.59375 
L 19.671875 64.59375 
L 19.671875 43.109375 
L 48.578125 43.109375 
L 48.578125 34.8125 
L 19.671875 34.8125 
L 19.671875 0 
L 9.8125 0 
z
" id="DejaVuSans-70"/>
        <path d="M 34.1875 63.1875 
L 20.796875 26.90625 
L 47.609375 26.90625 
z
M 28.609375 72.90625 
L 39.796875 72.90625 
L 67.578125 0 
L 57.328125 0 
L 50.6875 18.703125 
L 17.828125 18.703125 
L 11.1875 0 
L 0.78125 0 
z
" id="DejaVuSans-65"/>
        <path d="M 44.390625 34.1875 
Q 47.5625 33.109375 50.5625 29.59375 
Q 53.5625 26.078125 56.59375 19.921875 
L 66.609375 0 
L 56 0 
L 46.6875 18.703125 
Q 43.0625 26.03125 39.671875 28.421875 
Q 36.28125 30.8125 30.421875 30.8125 
L 19.671875 30.8125 
L 19.671875 0 
L 9.8125 0 
L 9.8125 72.90625 
L 32.078125 72.90625 
Q 44.578125 72.90625 50.734375 67.671875 
Q 56.890625 62.453125 56.890625 51.90625 
Q 56.890625 45.015625 53.6875 40.46875 
Q 50.484375 35.9375 44.390625 34.1875 
z
M 19.671875 64.796875 
L 19.671875 38.921875 
L 32.078125 38.921875 
Q 39.203125 38.921875 42.84375 42.21875 
Q 46.484375 45.515625 46.484375 51.90625 
Q 46.484375 58.296875 42.84375 61.546875 
Q 39.203125 64.796875 32.078125 64.796875 
z
" id="DejaVuSans-82"/>
       </defs>
       <use xlink:href="#DejaVuSans-66"/>
       <use x="68.603516" xlink:href="#DejaVuSans-85"/>
       <use x="141.796875" xlink:href="#DejaVuSans-70"/>
       <use x="190.191406" xlink:href="#DejaVuSans-65"/>
       <use x="258.599609" xlink:href="#DejaVuSans-82"/>
      </g>
     </g>
    </g>
    <g id="ytick_2">
     <g id="line2d_45">
      <g>
       <use style="stroke:#000000;stroke-width:0.8;" x="90.55" xlink:href="#m3c87c87904" y="117.296389"/>
      </g>
     </g>
     <g id="text_11">
      <!-- RAFAR original -->
      <g transform="translate(10.976562 121.095607)scale(0.1 -0.1)">
       <defs>
        <path d="M 45.40625 27.984375 
Q 45.40625 37.75 41.375 43.109375 
Q 37.359375 48.484375 30.078125 48.484375 
Q 22.859375 48.484375 18.828125 43.109375 
Q 14.796875 37.75 14.796875 27.984375 
Q 14.796875 18.265625 18.828125 12.890625 
Q 22.859375 7.515625 30.078125 7.515625 
Q 37.359375 7.515625 41.375 12.890625 
Q 45.40625 18.265625 45.40625 27.984375 
z
M 54.390625 6.78125 
Q 54.390625 -7.171875 48.1875 -13.984375 
Q 42 -20.796875 29.203125 -20.796875 
Q 24.46875 -20.796875 20.265625 -20.09375 
Q 16.0625 -19.390625 12.109375 -17.921875 
L 12.109375 -9.1875 
Q 16.0625 -11.328125 19.921875 -12.34375 
Q 23.78125 -13.375 27.78125 -13.375 
Q 36.625 -13.375 41.015625 -8.765625 
Q 45.40625 -4.15625 45.40625 5.171875 
L 45.40625 9.625 
Q 42.625 4.78125 38.28125 2.390625 
Q 33.9375 0 27.875 0 
Q 17.828125 0 11.671875 7.65625 
Q 5.515625 15.328125 5.515625 27.984375 
Q 5.515625 40.671875 11.671875 48.328125 
Q 17.828125 56 27.875 56 
Q 33.9375 56 38.28125 53.609375 
Q 42.625 51.21875 45.40625 46.390625 
L 45.40625 54.6875 
L 54.390625 54.6875 
z
" id="DejaVuSans-103"/>
        <path d="M 9.421875 75.984375 
L 18.40625 75.984375 
L 18.40625 0 
L 9.421875 0 
z
" id="DejaVuSans-108"/>
       </defs>
       <use xlink:href="#DejaVuSans-82"/>
       <use x="65.482422" xlink:href="#DejaVuSans-65"/>
       <use x="133.890625" xlink:href="#DejaVuSans-70"/>
       <use x="182.285156" xlink:href="#DejaVuSans-65"/>
       <use x="250.693359" xlink:href="#DejaVuSans-82"/>
       <use x="320.175781" xlink:href="#DejaVuSans-32"/>
       <use x="351.962891" xlink:href="#DejaVuSans-111"/>
       <use x="413.144531" xlink:href="#DejaVuSans-114"/>
       <use x="454.257812" xlink:href="#DejaVuSans-105"/>
       <use x="482.041016" xlink:href="#DejaVuSans-103"/>
       <use x="545.517578" xlink:href="#DejaVuSans-105"/>
       <use x="573.300781" xlink:href="#DejaVuSans-110"/>
       <use x="636.679688" xlink:href="#DejaVuSans-97"/>
       <use x="697.958984" xlink:href="#DejaVuSans-108"/>
      </g>
     </g>
    </g>
    <g id="ytick_3">
     <g id="line2d_46">
      <g>
       <use style="stroke:#000000;stroke-width:0.8;" x="90.55" xlink:href="#m3c87c87904" y="168.703611"/>
      </g>
     </g>
     <g id="text_12">
      <!-- RAFAR empiric -->
      <g transform="translate(10.946875 172.50283)scale(0.1 -0.1)">
       <defs>
        <path d="M 18.109375 8.203125 
L 18.109375 -20.796875 
L 9.078125 -20.796875 
L 9.078125 54.6875 
L 18.109375 54.6875 
L 18.109375 46.390625 
Q 20.953125 51.265625 25.265625 53.625 
Q 29.59375 56 35.59375 56 
Q 45.5625 56 51.78125 48.09375 
Q 58.015625 40.1875 58.015625 27.296875 
Q 58.015625 14.40625 51.78125 6.484375 
Q 45.5625 -1.421875 35.59375 -1.421875 
Q 29.59375 -1.421875 25.265625 0.953125 
Q 20.953125 3.328125 18.109375 8.203125 
z
M 48.6875 27.296875 
Q 48.6875 37.203125 44.609375 42.84375 
Q 40.53125 48.484375 33.40625 48.484375 
Q 26.265625 48.484375 22.1875 42.84375 
Q 18.109375 37.203125 18.109375 27.296875 
Q 18.109375 17.390625 22.1875 11.75 
Q 26.265625 6.109375 33.40625 6.109375 
Q 40.53125 6.109375 44.609375 11.75 
Q 48.6875 17.390625 48.6875 27.296875 
z
" id="DejaVuSans-112"/>
        <path d="M 48.78125 52.59375 
L 48.78125 44.1875 
Q 44.96875 46.296875 41.140625 47.34375 
Q 37.3125 48.390625 33.40625 48.390625 
Q 24.65625 48.390625 19.8125 42.84375 
Q 14.984375 37.3125 14.984375 27.296875 
Q 14.984375 17.28125 19.8125 11.734375 
Q 24.65625 6.203125 33.40625 6.203125 
Q 37.3125 6.203125 41.140625 7.25 
Q 44.96875 8.296875 48.78125 10.40625 
L 48.78125 2.09375 
Q 45.015625 0.34375 40.984375 -0.53125 
Q 36.96875 -1.421875 32.421875 -1.421875 
Q 20.0625 -1.421875 12.78125 6.34375 
Q 5.515625 14.109375 5.515625 27.296875 
Q 5.515625 40.671875 12.859375 48.328125 
Q 20.21875 56 33.015625 56 
Q 37.15625 56 41.109375 55.140625 
Q 45.0625 54.296875 48.78125 52.59375 
z
" id="DejaVuSans-99"/>
       </defs>
       <use xlink:href="#DejaVuSans-82"/>
       <use x="65.482422" xlink:href="#DejaVuSans-65"/>
       <use x="133.890625" xlink:href="#DejaVuSans-70"/>
       <use x="182.285156" xlink:href="#DejaVuSans-65"/>
       <use x="250.693359" xlink:href="#DejaVuSans-82"/>
       <use x="320.175781" xlink:href="#DejaVuSans-32"/>
       <use x="351.962891" xlink:href="#DejaVuSans-101"/>
       <use x="413.486328" xlink:href="#DejaVuSans-109"/>
       <use x="510.898438" xlink:href="#DejaVuSans-112"/>
       <use x="574.375" xlink:href="#DejaVuSans-105"/>
       <use x="602.158203" xlink:href="#DejaVuSans-114"/>
       <use x="643.271484" xlink:href="#DejaVuSans-105"/>
       <use x="671.054688" xlink:href="#DejaVuSans-99"/>
      </g>
     </g>
    </g>
    <g id="ytick_4">
     <g id="line2d_47">
      <g>
       <use style="stroke:#000000;stroke-width:0.8;" x="90.55" xlink:href="#m3c87c87904" y="220.110834"/>
      </g>
     </g>
     <g id="text_13">
      <!-- RAFAR tuned -->
      <g transform="translate(19.257812 223.910053)scale(0.1 -0.1)">
       <defs>
        <path d="M 8.5 21.578125 
L 8.5 54.6875 
L 17.484375 54.6875 
L 17.484375 21.921875 
Q 17.484375 14.15625 20.5 10.265625 
Q 23.53125 6.390625 29.59375 6.390625 
Q 36.859375 6.390625 41.078125 11.03125 
Q 45.3125 15.671875 45.3125 23.6875 
L 45.3125 54.6875 
L 54.296875 54.6875 
L 54.296875 0 
L 45.3125 0 
L 45.3125 8.40625 
Q 42.046875 3.421875 37.71875 1 
Q 33.40625 -1.421875 27.6875 -1.421875 
Q 18.265625 -1.421875 13.375 4.4375 
Q 8.5 10.296875 8.5 21.578125 
z
M 31.109375 56 
z
" id="DejaVuSans-117"/>
        <path d="M 45.40625 46.390625 
L 45.40625 75.984375 
L 54.390625 75.984375 
L 54.390625 0 
L 45.40625 0 
L 45.40625 8.203125 
Q 42.578125 3.328125 38.25 0.953125 
Q 33.9375 -1.421875 27.875 -1.421875 
Q 17.96875 -1.421875 11.734375 6.484375 
Q 5.515625 14.40625 5.515625 27.296875 
Q 5.515625 40.1875 11.734375 48.09375 
Q 17.96875 56 27.875 56 
Q 33.9375 56 38.25 53.625 
Q 42.578125 51.265625 45.40625 46.390625 
z
M 14.796875 27.296875 
Q 14.796875 17.390625 18.875 11.75 
Q 22.953125 6.109375 30.078125 6.109375 
Q 37.203125 6.109375 41.296875 11.75 
Q 45.40625 17.390625 45.40625 27.296875 
Q 45.40625 37.203125 41.296875 42.84375 
Q 37.203125 48.484375 30.078125 48.484375 
Q 22.953125 48.484375 18.875 42.84375 
Q 14.796875 37.203125 14.796875 27.296875 
z
" id="DejaVuSans-100"/>
       </defs>
       <use xlink:href="#DejaVuSans-82"/>
       <use x="65.482422" xlink:href="#DejaVuSans-65"/>
       <use x="133.890625" xlink:href="#DejaVuSans-70"/>
       <use x="182.285156" xlink:href="#DejaVuSans-65"/>
       <use x="250.693359" xlink:href="#DejaVuSans-82"/>
       <use x="320.175781" xlink:href="#DejaVuSans-32"/>
       <use x="351.962891" xlink:href="#DejaVuSans-116"/>
       <use x="391.171875" xlink:href="#DejaVuSans-117"/>
       <use x="454.550781" xlink:href="#DejaVuSans-110"/>
       <use x="517.929688" xlink:href="#DejaVuSans-101"/>
       <use x="579.453125" xlink:href="#DejaVuSans-100"/>
      </g>
     </g>
    </g>
    <g id="ytick_5">
     <g id="line2d_48">
      <defs>
       <path d="M 0 0 
L -2 0 
" id="m93ec0d91f2" style="stroke:#000000;stroke-width:0.6;"/>
      </defs>
      <g>
       <use style="stroke:#000000;stroke-width:0.6;" x="90.55" xlink:href="#m93ec0d91f2" y="45.326276"/>
      </g>
     </g>
    </g>
    <g id="ytick_6">
     <g id="line2d_49">
      <g>
       <use style="stroke:#000000;stroke-width:0.6;" x="90.55" xlink:href="#m93ec0d91f2" y="55.607721"/>
      </g>
     </g>
    </g>
    <g id="ytick_7">
     <g id="line2d_50">
      <g>
       <use style="stroke:#000000;stroke-width:0.6;" x="90.55" xlink:href="#m93ec0d91f2" y="76.17061"/>
      </g>
     </g>
    </g>
    <g id="ytick_8">
     <g id="line2d_51">
      <g>
       <use style="stroke:#000000;stroke-width:0.6;" x="90.55" xlink:href="#m93ec0d91f2" y="86.452055"/>
      </g>
     </g>
    </g>
    <g id="ytick_9">
     <g id="line2d_52">
      <g>
       <use style="stroke:#000000;stroke-width:0.6;" x="90.55" xlink:href="#m93ec0d91f2" y="96.733499"/>
      </g>
     </g>
    </g>
    <g id="ytick_10">
     <g id="line2d_53">
      <g>
       <use style="stroke:#000000;stroke-width:0.6;" x="90.55" xlink:href="#m93ec0d91f2" y="107.014944"/>
      </g>
     </g>
    </g>
    <g id="ytick_11">
     <g id="line2d_54">
      <g>
       <use style="stroke:#000000;stroke-width:0.6;" x="90.55" xlink:href="#m93ec0d91f2" y="127.577833"/>
      </g>
     </g>
    </g>
    <g id="ytick_12">
     <g id="line2d_55">
      <g>
       <use style="stroke:#000000;stroke-width:0.6;" x="90.55" xlink:href="#m93ec0d91f2" y="137.859278"/>
      </g>
     </g>
    </g>
    <g id="ytick_13">
     <g id="line2d_56">
      <g>
       <use style="stroke:#000000;stroke-width:0.6;" x="90.55" xlink:href="#m93ec0d91f2" y="148.140722"/>
      </g>
     </g>
    </g>
    <g id="ytick_14">
     <g id="line2d_57">
      <g>
       <use style="stroke:#000000;stroke-width:0.6;" x="90.55" xlink:href="#m93ec0d91f2" y="158.422167"/>
      </g>
     </g>
    </g>
    <g id="ytick_15">
     <g id="line2d_58">
      <g>
       <use style="stroke:#000000;stroke-width:0.6;" x="90.55" xlink:href="#m93ec0d91f2" y="178.985056"/>
      </g>
     </g>
    </g>
    <g id="ytick_16">
     <g id="line2d_59">
      <g>
       <use style="stroke:#000000;stroke-width:0.6;" x="90.55" xlink:href="#m93ec0d91f2" y="189.266501"/>
      </g>
     </g>
    </g>
    <g id="ytick_17">
     <g id="line2d_60">
      <g>
       <use style="stroke:#000000;stroke-width:0.6;" x="90.55" xlink:href="#m93ec0d91f2" y="199.547945"/>
      </g>
     </g>
    </g>
    <g id="ytick_18">
     <g id="line2d_61">
      <g>
       <use style="stroke:#000000;stroke-width:0.6;" x="90.55" xlink:href="#m93ec0d91f2" y="209.82939"/>
      </g>
     </g>
    </g>
    <g id="ytick_19">
     <g id="line2d_62">
      <g>
       <use style="stroke:#000000;stroke-width:0.6;" x="90.55" xlink:href="#m93ec0d91f2" y="230.392279"/>
      </g>
     </g>
    </g>
    <g id="ytick_20">
     <g id="line2d_63">
      <g>
       <use style="stroke:#000000;stroke-width:0.6;" x="90.55" xlink:href="#m93ec0d91f2" y="240.673724"/>
      </g>
     </g>
    </g>
   </g>
   <g id="LineCollection_1">
    <path clip-path="url(#p55612c6e19)" d="M 332.174907 57.535492 
L 332.174907 74.242839 
" style="fill:none;stroke:#1f77b4;stroke-width:1.5;"/>
   </g>
   <g id="LineCollection_2">
    <path clip-path="url(#p55612c6e19)" d="M 283.271275 57.535492 
L 283.271275 74.242839 
" style="fill:none;stroke:#1f77b4;stroke-width:1.5;"/>
   </g>
   <g id="LineCollection_3">
    <path clip-path="url(#p55612c6e19)" d="M 283.271275 65.889166 
L 332.174907 65.889166 
" style="fill:none;stroke:#1f77b4;stroke-width:1.5;"/>
   </g>
   <g id="LineCollection_4">
    <path clip-path="url(#p55612c6e19)" d="M 298.633673 57.535492 
L 298.633673 74.242839 
" style="fill:none;stroke:#1f77b4;stroke-width:1.5;"/>
   </g>
   <g id="LineCollection_5">
    <path clip-path="url(#p55612c6e19)" d="M 355.218503 108.942715 
L 355.218503 125.650062 
" style="fill:none;stroke:#ff7f0e;stroke-width:1.5;"/>
   </g>
   <g id="LineCollection_6">
    <path clip-path="url(#p55612c6e19)" d="M 317.83667 108.942715 
L 317.83667 125.650062 
" style="fill:none;stroke:#ff7f0e;stroke-width:1.5;"/>
   </g>
   <g id="LineCollection_7">
    <path clip-path="url(#p55612c6e19)" d="M 317.83667 117.296389 
L 355.218503 117.296389 
" style="fill:none;stroke:#ff7f0e;stroke-width:1.5;"/>
   </g>
   <g id="LineCollection_8">
    <path clip-path="url(#p55612c6e19)" d="M 325.517868 108.942715 
L 325.517868 125.650062 
" style="fill:none;stroke:#ff7f0e;stroke-width:1.5;"/>
   </g>
   <g id="LineCollection_9">
    <path clip-path="url(#p55612c6e19)" d="M 406.170455 160.349938 
L 406.170455 177.057285 
" style="fill:none;stroke:#2ca02c;stroke-width:1.5;"/>
   </g>
   <g id="LineCollection_10">
    <path clip-path="url(#p55612c6e19)" d="M 325.517868 160.349938 
L 325.517868 177.057285 
" style="fill:none;stroke:#2ca02c;stroke-width:1.5;"/>
   </g>
   <g id="LineCollection_11">
    <path clip-path="url(#p55612c6e19)" d="M 325.517868 168.703611 
L 406.170455 168.703611 
" style="fill:none;stroke:#2ca02c;stroke-width:1.5;"/>
   </g>
   <g id="LineCollection_12">
    <path clip-path="url(#p55612c6e19)" d="M 351.377904 160.349938 
L 351.377904 177.057285 
" style="fill:none;stroke:#2ca02c;stroke-width:1.5;"/>
   </g>
   <g id="LineCollection_13">
    <path clip-path="url(#p55612c6e19)" d="M 390.808057 211.757161 
L 390.808057 228.464508 
" style="fill:none;stroke:#d62728;stroke-width:1.5;"/>
   </g>
   <g id="LineCollection_14">
    <path clip-path="url(#p55612c6e19)" d="M 105.579545 211.757161 
L 105.579545 228.464508 
" style="fill:none;stroke:#d62728;stroke-width:1.5;"/>
   </g>
   <g id="LineCollection_15">
    <path clip-path="url(#p55612c6e19)" d="M 105.579545 220.110834 
L 390.808057 220.110834 
" style="fill:none;stroke:#d62728;stroke-width:1.5;"/>
   </g>
   <g id="LineCollection_16">
    <path clip-path="url(#p55612c6e19)" d="M 321.677269 211.757161 
L 321.677269 228.464508 
" style="fill:none;stroke:#d62728;stroke-width:1.5;"/>
   </g>
   <g id="line2d_64">
    <path clip-path="url(#p55612c6e19)" d="M 353.042164 246.2 
L 353.042164 39.8 
" style="fill:none;stroke:#000000;stroke-dasharray:5.55,2.4;stroke-dashoffset:0;stroke-width:1.5;"/>
   </g>
   <g id="patch_3">
    <path d="M 90.55 246.2 
L 90.55 39.8 
" style="fill:none;stroke:#000000;stroke-linecap:square;stroke-linejoin:miter;stroke-width:0.8;"/>
   </g>
   <g id="patch_4">
    <path d="M 421.2 246.2 
L 421.2 39.8 
" style="fill:none;stroke:#000000;stroke-linecap:square;stroke-linejoin:miter;stroke-width:0.8;"/>
   </g>
   <g id="patch_5">
    <path d="M 90.55 246.2 
L 421.2 246.2 
" style="fill:none;stroke:#000000;stroke-linecap:square;stroke-linejoin:miter;stroke-width:0.8;"/>
   </g>
   <g id="patch_6">
    <path d="M 90.55 39.8 
L 421.2 39.8 
" style="fill:none;stroke:#000000;stroke-linecap:square;stroke-linejoin:miter;stroke-width:0.8;"/>
   </g>
  </g>
  <g id="axes_2">
   <g id="matplotlib.axis_3">
    <g id="xtick_44">
     <g id="line2d_65">
      <defs>
       <path d="M 0 0 
L 0 -3.5 
" id="mb2842c88ca" style="stroke:#000000;stroke-width:0.8;"/>
      </defs>
      <g>
       <use style="stroke:#000000;stroke-width:0.8;" x="122.606203" xlink:href="#mb2842c88ca" y="39.8"/>
      </g>
     </g>
     <g id="text_14">
      <!-- -24% -->
      <g transform="translate(109.689015 30.720312)scale(0.1 -0.1)">
       <defs>
        <path d="M 4.890625 31.390625 
L 31.203125 31.390625 
L 31.203125 23.390625 
L 4.890625 23.390625 
z
" id="DejaVuSans-45"/>
        <path d="M 37.796875 64.3125 
L 12.890625 25.390625 
L 37.796875 25.390625 
z
M 35.203125 72.90625 
L 47.609375 72.90625 
L 47.609375 25.390625 
L 58.015625 25.390625 
L 58.015625 17.1875 
L 47.609375 17.1875 
L 47.609375 0 
L 37.796875 0 
L 37.796875 17.1875 
L 4.890625 17.1875 
L 4.890625 26.703125 
z
" id="DejaVuSans-52"/>
        <path d="M 72.703125 32.078125 
Q 68.453125 32.078125 66.03125 28.46875 
Q 63.625 24.859375 63.625 18.40625 
Q 63.625 12.0625 66.03125 8.421875 
Q 68.453125 4.78125 72.703125 4.78125 
Q 76.859375 4.78125 79.265625 8.421875 
Q 81.6875 12.0625 81.6875 18.40625 
Q 81.6875 24.8125 79.265625 28.4375 
Q 76.859375 32.078125 72.703125 32.078125 
z
M 72.703125 38.28125 
Q 80.421875 38.28125 84.953125 32.90625 
Q 89.5 27.546875 89.5 18.40625 
Q 89.5 9.28125 84.9375 3.921875 
Q 80.375 -1.421875 72.703125 -1.421875 
Q 64.890625 -1.421875 60.34375 3.921875 
Q 55.8125 9.28125 55.8125 18.40625 
Q 55.8125 27.59375 60.375 32.9375 
Q 64.9375 38.28125 72.703125 38.28125 
z
M 22.3125 68.015625 
Q 18.109375 68.015625 15.6875 64.375 
Q 13.28125 60.75 13.28125 54.390625 
Q 13.28125 47.953125 15.671875 44.328125 
Q 18.0625 40.71875 22.3125 40.71875 
Q 26.5625 40.71875 28.96875 44.328125 
Q 31.390625 47.953125 31.390625 54.390625 
Q 31.390625 60.6875 28.953125 64.34375 
Q 26.515625 68.015625 22.3125 68.015625 
z
M 66.40625 74.21875 
L 74.21875 74.21875 
L 28.609375 -1.421875 
L 20.796875 -1.421875 
z
M 22.3125 74.21875 
Q 30.03125 74.21875 34.609375 68.875 
Q 39.203125 63.53125 39.203125 54.390625 
Q 39.203125 45.171875 34.640625 39.84375 
Q 30.078125 34.515625 22.3125 34.515625 
Q 14.546875 34.515625 10.03125 39.859375 
Q 5.515625 45.21875 5.515625 54.390625 
Q 5.515625 63.484375 10.046875 68.84375 
Q 14.59375 74.21875 22.3125 74.21875 
z
" id="DejaVuSans-37"/>
       </defs>
       <use xlink:href="#DejaVuSans-45"/>
       <use x="36.083984" xlink:href="#DejaVuSans-50"/>
       <use x="99.707031" xlink:href="#DejaVuSans-52"/>
       <use x="163.330078" xlink:href="#DejaVuSans-37"/>
      </g>
     </g>
    </g>
    <g id="xtick_45">
     <g id="line2d_66">
      <g>
       <use style="stroke:#000000;stroke-width:0.8;" x="161.012196" xlink:href="#mb2842c88ca" y="39.8"/>
      </g>
     </g>
     <g id="text_15">
      <!-- -20% -->
      <g transform="translate(148.095009 30.720312)scale(0.1 -0.1)">
       <use xlink:href="#DejaVuSans-45"/>
       <use x="36.083984" xlink:href="#DejaVuSans-50"/>
       <use x="99.707031" xlink:href="#DejaVuSans-48"/>
       <use x="163.330078" xlink:href="#DejaVuSans-37"/>
      </g>
     </g>
    </g>
    <g id="xtick_46">
     <g id="line2d_67">
      <g>
       <use style="stroke:#000000;stroke-width:0.8;" x="199.41819" xlink:href="#mb2842c88ca" y="39.8"/>
      </g>
     </g>
     <g id="text_16">
      <!-- -16% -->
      <g transform="translate(186.501002 30.720312)scale(0.1 -0.1)">
       <defs>
        <path d="M 33.015625 40.375 
Q 26.375 40.375 22.484375 35.828125 
Q 18.609375 31.296875 18.609375 23.390625 
Q 18.609375 15.53125 22.484375 10.953125 
Q 26.375 6.390625 33.015625 6.390625 
Q 39.65625 6.390625 43.53125 10.953125 
Q 47.40625 15.53125 47.40625 23.390625 
Q 47.40625 31.296875 43.53125 35.828125 
Q 39.65625 40.375 33.015625 40.375 
z
M 52.59375 71.296875 
L 52.59375 62.3125 
Q 48.875 64.0625 45.09375 64.984375 
Q 41.3125 65.921875 37.59375 65.921875 
Q 27.828125 65.921875 22.671875 59.328125 
Q 17.53125 52.734375 16.796875 39.40625 
Q 19.671875 43.65625 24.015625 45.921875 
Q 28.375 48.1875 33.59375 48.1875 
Q 44.578125 48.1875 50.953125 41.515625 
Q 57.328125 34.859375 57.328125 23.390625 
Q 57.328125 12.15625 50.6875 5.359375 
Q 44.046875 -1.421875 33.015625 -1.421875 
Q 20.359375 -1.421875 13.671875 8.265625 
Q 6.984375 17.96875 6.984375 36.375 
Q 6.984375 53.65625 15.1875 63.9375 
Q 23.390625 74.21875 37.203125 74.21875 
Q 40.921875 74.21875 44.703125 73.484375 
Q 48.484375 72.75 52.59375 71.296875 
z
" id="DejaVuSans-54"/>
       </defs>
       <use xlink:href="#DejaVuSans-45"/>
       <use x="36.083984" xlink:href="#DejaVuSans-49"/>
       <use x="99.707031" xlink:href="#DejaVuSans-54"/>
       <use x="163.330078" xlink:href="#DejaVuSans-37"/>
      </g>
     </g>
    </g>
    <g id="xtick_47">
     <g id="line2d_68">
      <g>
       <use style="stroke:#000000;stroke-width:0.8;" x="237.824183" xlink:href="#mb2842c88ca" y="39.8"/>
      </g>
     </g>
     <g id="text_17">
      <!-- -12% -->
      <g transform="translate(224.906996 30.720312)scale(0.1 -0.1)">
       <use xlink:href="#DejaVuSans-45"/>
       <use x="36.083984" xlink:href="#DejaVuSans-49"/>
       <use x="99.707031" xlink:href="#DejaVuSans-50"/>
       <use x="163.330078" xlink:href="#DejaVuSans-37"/>
      </g>
     </g>
    </g>
    <g id="xtick_48">
     <g id="line2d_69">
      <g>
       <use style="stroke:#000000;stroke-width:0.8;" x="276.230177" xlink:href="#mb2842c88ca" y="39.8"/>
      </g>
     </g>
     <g id="text_18">
      <!-- -8% -->
      <g transform="translate(266.494239 30.720312)scale(0.1 -0.1)">
       <defs>
        <path d="M 31.78125 34.625 
Q 24.75 34.625 20.71875 30.859375 
Q 16.703125 27.09375 16.703125 20.515625 
Q 16.703125 13.921875 20.71875 10.15625 
Q 24.75 6.390625 31.78125 6.390625 
Q 38.8125 6.390625 42.859375 10.171875 
Q 46.921875 13.96875 46.921875 20.515625 
Q 46.921875 27.09375 42.890625 30.859375 
Q 38.875 34.625 31.78125 34.625 
z
M 21.921875 38.8125 
Q 15.578125 40.375 12.03125 44.71875 
Q 8.5 49.078125 8.5 55.328125 
Q 8.5 64.0625 14.71875 69.140625 
Q 20.953125 74.21875 31.78125 74.21875 
Q 42.671875 74.21875 48.875 69.140625 
Q 55.078125 64.0625 55.078125 55.328125 
Q 55.078125 49.078125 51.53125 44.71875 
Q 48 40.375 41.703125 38.8125 
Q 48.828125 37.15625 52.796875 32.3125 
Q 56.78125 27.484375 56.78125 20.515625 
Q 56.78125 9.90625 50.3125 4.234375 
Q 43.84375 -1.421875 31.78125 -1.421875 
Q 19.734375 -1.421875 13.25 4.234375 
Q 6.78125 9.90625 6.78125 20.515625 
Q 6.78125 27.484375 10.78125 32.3125 
Q 14.796875 37.15625 21.921875 38.8125 
z
M 18.3125 54.390625 
Q 18.3125 48.734375 21.84375 45.5625 
Q 25.390625 42.390625 31.78125 42.390625 
Q 38.140625 42.390625 41.71875 45.5625 
Q 45.3125 48.734375 45.3125 54.390625 
Q 45.3125 60.0625 41.71875 63.234375 
Q 38.140625 66.40625 31.78125 66.40625 
Q 25.390625 66.40625 21.84375 63.234375 
Q 18.3125 60.0625 18.3125 54.390625 
z
" id="DejaVuSans-56"/>
       </defs>
       <use xlink:href="#DejaVuSans-45"/>
       <use x="36.083984" xlink:href="#DejaVuSans-56"/>
       <use x="99.707031" xlink:href="#DejaVuSans-37"/>
      </g>
     </g>
    </g>
    <g id="xtick_49">
     <g id="line2d_70">
      <g>
       <use style="stroke:#000000;stroke-width:0.8;" x="314.63617" xlink:href="#mb2842c88ca" y="39.8"/>
      </g>
     </g>
     <g id="text_19">
      <!-- -4% -->
      <g transform="translate(304.900233 30.720312)scale(0.1 -0.1)">
       <use xlink:href="#DejaVuSans-45"/>
       <use x="36.083984" xlink:href="#DejaVuSans-52"/>
       <use x="99.707031" xlink:href="#DejaVuSans-37"/>
      </g>
     </g>
    </g>
    <g id="xtick_50">
     <g id="line2d_71">
      <g>
       <use style="stroke:#000000;stroke-width:0.8;" x="353.042164" xlink:href="#mb2842c88ca" y="39.8"/>
      </g>
     </g>
     <g id="text_20">
      <!-- 0% -->
      <g transform="translate(345.110132 30.720312)scale(0.1 -0.1)">
       <use xlink:href="#DejaVuSans-48"/>
       <use x="63.623047" xlink:href="#DejaVuSans-37"/>
      </g>
     </g>
    </g>
    <g id="xtick_51">
     <g id="line2d_72">
      <g>
       <use style="stroke:#000000;stroke-width:0.8;" x="391.448157" xlink:href="#mb2842c88ca" y="39.8"/>
      </g>
     </g>
     <g id="text_21">
      <!-- 4% -->
      <g transform="translate(383.516126 30.720312)scale(0.1 -0.1)">
       <use xlink:href="#DejaVuSans-52"/>
       <use x="63.623047" xlink:href="#DejaVuSans-37"/>
      </g>
     </g>
    </g>
    <g id="xtick_52">
     <g id="line2d_73">
      <defs>
       <path d="M 0 0 
L 0 -2 
" id="m571e85ab00" style="stroke:#000000;stroke-width:0.6;"/>
      </defs>
      <g>
       <use style="stroke:#000000;stroke-width:0.6;" x="91.881408" xlink:href="#m571e85ab00" y="39.8"/>
      </g>
     </g>
    </g>
    <g id="xtick_53">
     <g id="line2d_74">
      <g>
       <use style="stroke:#000000;stroke-width:0.6;" x="99.562606" xlink:href="#m571e85ab00" y="39.8"/>
      </g>
     </g>
    </g>
    <g id="xtick_54">
     <g id="line2d_75">
      <g>
       <use style="stroke:#000000;stroke-width:0.6;" x="107.243805" xlink:href="#m571e85ab00" y="39.8"/>
      </g>
     </g>
    </g>
    <g id="xtick_55">
     <g id="line2d_76">
      <g>
       <use style="stroke:#000000;stroke-width:0.6;" x="114.925004" xlink:href="#m571e85ab00" y="39.8"/>
      </g>
     </g>
    </g>
    <g id="xtick_56">
     <g id="line2d_77">
      <g>
       <use style="stroke:#000000;stroke-width:0.6;" x="130.287401" xlink:href="#m571e85ab00" y="39.8"/>
      </g>
     </g>
    </g>
    <g id="xtick_57">
     <g id="line2d_78">
      <g>
       <use style="stroke:#000000;stroke-width:0.6;" x="137.9686" xlink:href="#m571e85ab00" y="39.8"/>
      </g>
     </g>
    </g>
    <g id="xtick_58">
     <g id="line2d_79">
      <g>
       <use style="stroke:#000000;stroke-width:0.6;" x="145.649799" xlink:href="#m571e85ab00" y="39.8"/>
      </g>
     </g>
    </g>
    <g id="xtick_59">
     <g id="line2d_80">
      <g>
       <use style="stroke:#000000;stroke-width:0.6;" x="153.330997" xlink:href="#m571e85ab00" y="39.8"/>
      </g>
     </g>
    </g>
    <g id="xtick_60">
     <g id="line2d_81">
      <g>
       <use style="stroke:#000000;stroke-width:0.6;" x="168.693395" xlink:href="#m571e85ab00" y="39.8"/>
      </g>
     </g>
    </g>
    <g id="xtick_61">
     <g id="line2d_82">
      <g>
       <use style="stroke:#000000;stroke-width:0.6;" x="176.374593" xlink:href="#m571e85ab00" y="39.8"/>
      </g>
     </g>
    </g>
    <g id="xtick_62">
     <g id="line2d_83">
      <g>
       <use style="stroke:#000000;stroke-width:0.6;" x="184.055792" xlink:href="#m571e85ab00" y="39.8"/>
      </g>
     </g>
    </g>
    <g id="xtick_63">
     <g id="line2d_84">
      <g>
       <use style="stroke:#000000;stroke-width:0.6;" x="191.736991" xlink:href="#m571e85ab00" y="39.8"/>
      </g>
     </g>
    </g>
    <g id="xtick_64">
     <g id="line2d_85">
      <g>
       <use style="stroke:#000000;stroke-width:0.6;" x="207.099388" xlink:href="#m571e85ab00" y="39.8"/>
      </g>
     </g>
    </g>
    <g id="xtick_65">
     <g id="line2d_86">
      <g>
       <use style="stroke:#000000;stroke-width:0.6;" x="214.780587" xlink:href="#m571e85ab00" y="39.8"/>
      </g>
     </g>
    </g>
    <g id="xtick_66">
     <g id="line2d_87">
      <g>
       <use style="stroke:#000000;stroke-width:0.6;" x="222.461786" xlink:href="#m571e85ab00" y="39.8"/>
      </g>
     </g>
    </g>
    <g id="xtick_67">
     <g id="line2d_88">
      <g>
       <use style="stroke:#000000;stroke-width:0.6;" x="230.142984" xlink:href="#m571e85ab00" y="39.8"/>
      </g>
     </g>
    </g>
    <g id="xtick_68">
     <g id="line2d_89">
      <g>
       <use style="stroke:#000000;stroke-width:0.6;" x="245.505382" xlink:href="#m571e85ab00" y="39.8"/>
      </g>
     </g>
    </g>
    <g id="xtick_69">
     <g id="line2d_90">
      <g>
       <use style="stroke:#000000;stroke-width:0.6;" x="253.18658" xlink:href="#m571e85ab00" y="39.8"/>
      </g>
     </g>
    </g>
    <g id="xtick_70">
     <g id="line2d_91">
      <g>
       <use style="stroke:#000000;stroke-width:0.6;" x="260.867779" xlink:href="#m571e85ab00" y="39.8"/>
      </g>
     </g>
    </g>
    <g id="xtick_71">
     <g id="line2d_92">
      <g>
       <use style="stroke:#000000;stroke-width:0.6;" x="268.548978" xlink:href="#m571e85ab00" y="39.8"/>
      </g>
     </g>
    </g>
    <g id="xtick_72">
     <g id="line2d_93">
      <g>
       <use style="stroke:#000000;stroke-width:0.6;" x="283.911375" xlink:href="#m571e85ab00" y="39.8"/>
      </g>
     </g>
    </g>
    <g id="xtick_73">
     <g id="line2d_94">
      <g>
       <use style="stroke:#000000;stroke-width:0.6;" x="291.592574" xlink:href="#m571e85ab00" y="39.8"/>
      </g>
     </g>
    </g>
    <g id="xtick_74">
     <g id="line2d_95">
      <g>
       <use style="stroke:#000000;stroke-width:0.6;" x="299.273773" xlink:href="#m571e85ab00" y="39.8"/>
      </g>
     </g>
    </g>
    <g id="xtick_75">
     <g id="line2d_96">
      <g>
       <use style="stroke:#000000;stroke-width:0.6;" x="306.954971" xlink:href="#m571e85ab00" y="39.8"/>
      </g>
     </g>
    </g>
    <g id="xtick_76">
     <g id="line2d_97">
      <g>
       <use style="stroke:#000000;stroke-width:0.6;" x="322.317369" xlink:href="#m571e85ab00" y="39.8"/>
      </g>
     </g>
    </g>
    <g id="xtick_77">
     <g id="line2d_98">
      <g>
       <use style="stroke:#000000;stroke-width:0.6;" x="329.998567" xlink:href="#m571e85ab00" y="39.8"/>
      </g>
     </g>
    </g>
    <g id="xtick_78">
     <g id="line2d_99">
      <g>
       <use style="stroke:#000000;stroke-width:0.6;" x="337.679766" xlink:href="#m571e85ab00" y="39.8"/>
      </g>
     </g>
    </g>
    <g id="xtick_79">
     <g id="line2d_100">
      <g>
       <use style="stroke:#000000;stroke-width:0.6;" x="345.360965" xlink:href="#m571e85ab00" y="39.8"/>
      </g>
     </g>
    </g>
    <g id="xtick_80">
     <g id="line2d_101">
      <g>
       <use style="stroke:#000000;stroke-width:0.6;" x="360.723362" xlink:href="#m571e85ab00" y="39.8"/>
      </g>
     </g>
    </g>
    <g id="xtick_81">
     <g id="line2d_102">
      <g>
       <use style="stroke:#000000;stroke-width:0.6;" x="368.404561" xlink:href="#m571e85ab00" y="39.8"/>
      </g>
     </g>
    </g>
    <g id="xtick_82">
     <g id="line2d_103">
      <g>
       <use style="stroke:#000000;stroke-width:0.6;" x="376.08576" xlink:href="#m571e85ab00" y="39.8"/>
      </g>
     </g>
    </g>
    <g id="xtick_83">
     <g id="line2d_104">
      <g>
       <use style="stroke:#000000;stroke-width:0.6;" x="383.766958" xlink:href="#m571e85ab00" y="39.8"/>
      </g>
     </g>
    </g>
    <g id="xtick_84">
     <g id="line2d_105">
      <g>
       <use style="stroke:#000000;stroke-width:0.6;" x="399.129356" xlink:href="#m571e85ab00" y="39.8"/>
      </g>
     </g>
    </g>
    <g id="xtick_85">
     <g id="line2d_106">
      <g>
       <use style="stroke:#000000;stroke-width:0.6;" x="406.810554" xlink:href="#m571e85ab00" y="39.8"/>
      </g>
     </g>
    </g>
    <g id="xtick_86">
     <g id="line2d_107">
      <g>
       <use style="stroke:#000000;stroke-width:0.6;" x="414.491753" xlink:href="#m571e85ab00" y="39.8"/>
      </g>
     </g>
    </g>
    <g id="text_22">
     <!-- Normalized Error -->
     <g transform="translate(213.745313 19.121875)scale(0.1 -0.1)">
      <defs>
       <path d="M 9.8125 72.90625 
L 23.09375 72.90625 
L 55.421875 11.921875 
L 55.421875 72.90625 
L 64.984375 72.90625 
L 64.984375 0 
L 51.703125 0 
L 19.390625 60.984375 
L 19.390625 0 
L 9.8125 0 
z
" id="DejaVuSans-78"/>
       <path d="M 5.515625 54.6875 
L 48.1875 54.6875 
L 48.1875 46.484375 
L 14.40625 7.171875 
L 48.1875 7.171875 
L 48.1875 0 
L 4.296875 0 
L 4.296875 8.203125 
L 38.09375 47.515625 
L 5.515625 47.515625 
z
" id="DejaVuSans-122"/>
      </defs>
      <use xlink:href="#DejaVuSans-78"/>
      <use x="74.804688" xlink:href="#DejaVuSans-111"/>
      <use x="135.986328" xlink:href="#DejaVuSans-114"/>
      <use x="175.349609" xlink:href="#DejaVuSans-109"/>
      <use x="272.761719" xlink:href="#DejaVuSans-97"/>
      <use x="334.041016" xlink:href="#DejaVuSans-108"/>
      <use x="361.824219" xlink:href="#DejaVuSans-105"/>
      <use x="389.607422" xlink:href="#DejaVuSans-122"/>
      <use x="442.097656" xlink:href="#DejaVuSans-101"/>
      <use x="503.621094" xlink:href="#DejaVuSans-100"/>
      <use x="567.097656" xlink:href="#DejaVuSans-32"/>
      <use x="598.884766" xlink:href="#DejaVuSans-69"/>
      <use x="662.068359" xlink:href="#DejaVuSans-114"/>
      <use x="701.431641" xlink:href="#DejaVuSans-114"/>
      <use x="740.294922" xlink:href="#DejaVuSans-111"/>
      <use x="801.476562" xlink:href="#DejaVuSans-114"/>
     </g>
    </g>
   </g>
   <g id="patch_7">
    <path d="M 90.55 246.2 
L 90.55 39.8 
" style="fill:none;stroke:#000000;stroke-linecap:square;stroke-linejoin:miter;stroke-width:0.8;"/>
   </g>
   <g id="patch_8">
    <path d="M 421.2 246.2 
L 421.2 39.8 
" style="fill:none;stroke:#000000;stroke-linecap:square;stroke-linejoin:miter;stroke-width:0.8;"/>
   </g>
   <g id="patch_9">
    <path d="M 90.55 246.2 
L 421.2 246.2 
" style="fill:none;stroke:#000000;stroke-linecap:square;stroke-linejoin:miter;stroke-width:0.8;"/>
   </g>
   <g id="patch_10">
    <path d="M 90.55 39.8 
L 421.2 39.8 
" style="fill:none;stroke:#000000;stroke-linecap:square;stroke-linejoin:miter;stroke-width:0.8;"/>
   </g>
  </g>
 </g>
 <defs>
  <clipPath id="p55612c6e19">
   <rect height="206.4" width="330.65" x="90.55" y="39.8"/>
  </clipPath>
 </defs>
</svg>
